<?xml version="1.0" encoding="UTF-8" standalone="no"?>
<!-- Created with Inkscape (http://www.inkscape.org/) -->

<svg
   xmlns:dc="http://purl.org/dc/elements/1.1/"
   xmlns:cc="http://creativecommons.org/ns#"
   xmlns:rdf="http://www.w3.org/1999/02/22-rdf-syntax-ns#"
   xmlns:svg="http://www.w3.org/2000/svg"
   xmlns="http://www.w3.org/2000/svg"
   xmlns:sodipodi="http://sodipodi.sourceforge.net/DTD/sodipodi-0.dtd"
   xmlns:inkscape="http://www.inkscape.org/namespaces/inkscape"
   version="1.1"
   id="svg2"
   xml:space="preserve"
   width="166.73332"
   height="287.436"
   viewBox="0 0 166.73333 287.43601"
   sodipodi:docname="tokedo_icon.svg"
   inkscape:version="0.92.2 2405546, 2018-03-11"><metadata
     id="metadata8"><rdf:RDF><cc:Work
         rdf:about=""><dc:format>image/svg+xml</dc:format><dc:type
           rdf:resource="http://purl.org/dc/dcmitype/StillImage" /><dc:title></dc:title></cc:Work></rdf:RDF></metadata><defs
     id="defs6"><clipPath
       clipPathUnits="userSpaceOnUse"
       id="clipPath20"><path
         d="m 1176.057,299.137 c 5.269,-1.031 10.195,-2.922 14.778,-5.67 v 0 c 4.581,-2.75 8.533,-6.157 11.858,-10.225 v 0 c 3.32,-4.066 5.955,-8.62 7.903,-13.661 v 0 c 1.948,-5.04 2.923,-10.367 2.923,-15.982 v 0 c 0,-6.414 -1.204,-12.429 -3.609,-18.043 v 0 c -2.406,-5.611 -5.731,-10.538 -9.968,-14.778 v 0 c -4.239,-4.237 -9.166,-7.561 -14.778,-9.967 v 0 c -5.614,-2.406 -11.628,-3.609 -18.043,-3.609 v 0 c -6.417,0 -12.432,1.203 -18.043,3.609 v 0 c -5.614,2.406 -10.542,5.73 -14.778,9.967 v 0 c -4.24,4.24 -7.562,9.167 -9.967,14.778 v 0 c -2.406,5.614 -3.608,11.629 -3.608,18.043 v 0 c 0,5.499 0.944,10.77 2.834,15.81 v 0 c 1.891,5.042 4.469,9.566 7.733,13.575 v 0 c 3.266,4.012 7.131,7.389 11.6,10.139 v 0 c 4.468,2.749 9.336,4.699 14.606,5.843 v 0 19.589 c -7.905,-1.143 -15.294,-3.636 -22.167,-7.475 v 0 c -6.874,-3.837 -12.802,-8.619 -17.786,-14.349 v 0 c -4.984,-5.727 -8.908,-12.286 -11.771,-19.676 v 0 c -2.865,-7.389 -4.295,-15.208 -4.295,-23.456 v 0 c 0,-9.048 1.718,-17.584 5.155,-25.604 v 0 c 3.436,-8.018 8.133,-15.006 14.091,-20.964 v 0 c 5.954,-5.956 12.913,-10.655 20.877,-14.092 v 0 c 7.962,-3.436 16.468,-5.155 25.519,-5.155 v 0 c 9.048,0 17.554,1.719 25.519,5.155 v 0 c 7.961,3.437 14.921,8.136 20.879,14.092 v 0 c 5.955,5.958 10.653,12.946 14.09,20.964 v 0 c 3.437,8.02 5.155,16.556 5.155,25.604 v 0 c 0,8.364 -1.461,16.239 -4.381,23.628 v 0 c -2.922,7.39 -6.904,13.979 -11.944,19.762 v 0 c -5.042,5.786 -11.027,10.598 -17.957,14.434 v 0 c -6.932,3.84 -14.408,6.272 -22.425,7.304 v 0 z m -572.138,14.435 c -7.964,-3.437 -14.923,-8.136 -20.879,-14.091 v 0 c -5.958,-5.958 -10.654,-12.947 -14.091,-20.965 v 0 c -3.437,-8.02 -5.155,-16.556 -5.155,-25.604 v 0 c 0,-8.248 1.431,-16.067 4.296,-23.456 v 0 c 2.862,-7.39 6.788,-13.949 11.771,-19.676 v 0 c 4.983,-5.73 10.912,-10.512 17.786,-14.349 v 0 c 6.873,-3.839 14.262,-6.331 22.167,-7.475 v 0 19.59 c -5.271,1.143 -10.139,3.093 -14.606,5.843 v 0 c -4.468,2.749 -8.334,6.126 -11.6,10.139 v 0 c -3.265,4.008 -5.842,8.533 -7.732,13.574 v 0 c -1.89,5.04 -2.836,10.311 -2.836,15.81 v 0 c 0,6.415 1.203,12.429 3.609,18.043 v 0 c 2.406,5.612 5.727,10.539 9.966,14.779 v 0 c 4.238,4.237 9.164,7.561 14.779,9.966 v 0 c 5.612,2.406 11.626,3.609 18.043,3.609 v 0 c 6.415,0 12.429,-1.203 18.044,-3.609 v 0 c 5.611,-2.405 10.538,-5.729 14.778,-9.966 v 0 c 4.237,-4.24 7.561,-9.167 9.966,-14.779 v 0 c 2.406,-5.614 3.609,-11.628 3.609,-18.043 v 0 c 0,-5.614 -0.974,-10.942 -2.921,-15.982 v 0 c -1.949,-5.041 -4.584,-9.595 -7.905,-13.661 v 0 c -3.323,-4.068 -7.276,-7.475 -11.856,-10.224 v 0 c -4.584,-2.749 -9.511,-4.64 -14.779,-5.671 v 0 -19.59 c 8.017,1.031 15.492,3.464 22.425,7.304 v 0 c 6.93,3.837 12.915,8.649 17.958,14.435 v 0 c 5.04,5.783 9.02,12.371 11.942,19.761 v 0 c 2.921,7.389 4.382,15.264 4.382,23.628 v 0 c 0,9.048 -1.718,17.584 -5.154,25.604 v 0 c -3.438,8.018 -8.136,15.007 -14.092,20.965 v 0 c -5.958,5.955 -12.917,10.654 -20.879,14.091 v 0 c -7.963,3.436 -16.469,5.155 -25.518,5.155 v 0 c -9.052,0 -17.557,-1.719 -25.518,-5.155 m 194.781,3.78 -52.068,-55.676 -0.516,-0.344 19.075,-25.948 35.055,-46.569 h 25.089 l -53.272,70.799 54.131,57.738 z M 528.051,297.247 h 21.996 v 20.104 h -21.996 z m -77.844,20.105 v -20.105 h 39.867 V 188.815 h 20.105 v 83.687 h -0.171 v 44.85 z m 520.16,-0.344 V 209.092 h 20.105 v 87.812 h 19.987 c 6.086,0 11.83,-1.177 17.229,-3.524 v 0 c 5.398,-2.349 10.106,-5.528 14.13,-9.537 v 0 c 4.019,-4.011 7.176,-8.678 9.475,-14.005 v 0 c 2.297,-5.327 3.448,-11.027 3.448,-17.098 v 0 c 0,-5.614 -1.005,-10.942 -3.007,-15.982 v 0 c -2.006,-5.041 -4.726,-9.509 -8.163,-13.402 v 0 c -3.437,-3.897 -7.505,-7.105 -12.201,-9.624 v 0 c -4.7,-2.521 -9.739,-4.124 -15.122,-4.811 v 0 -20.277 c 8.248,0.687 15.921,2.835 23.026,6.444 v 0 c 7.103,3.609 13.289,8.274 18.559,14.004 v 0 c 5.269,5.727 9.422,12.314 12.459,19.763 v 0 c 3.034,7.444 4.554,15.406 4.554,23.885 v 0 c 0,8.821 -1.691,17.125 -5.07,24.917 v 0 c -3.38,7.79 -7.99,14.606 -13.833,20.449 v 0 c -5.843,5.843 -12.659,10.453 -20.449,13.833 v 0 c -7.792,3.378 -16.096,5.069 -24.917,5.069 v 0 z m -113.414,-0.171 v -48.116 h 19.762 v 28.355 h 63.409 v 19.761 z M 725.667,316.493 V 261.16 h 19.931 l 0.174,0.172 v 55.161 z m 171.669,-68.049 h 34.54 v 19.761 h -34.54 z m -40.383,0 v -59.629 h 83.171 v 19.762 h -63.409 v 39.867 z m -131.286,-9.451 v -50.349 h 20.105 v 50.177 l -0.174,0.172 z"
         id="path18"
         inkscape:connector-curvature="0" /></clipPath><linearGradient
       x1="0"
       y1="0"
       x2="1"
       y2="0"
       gradientUnits="userSpaceOnUse"
       gradientTransform="matrix(782.55762,0,0,-782.55762,450.20703,253.25562)"
       spreadMethod="pad"
       id="linearGradient30"><stop
         style="stop-opacity:1;stop-color:#60dd1c"
         offset="0"
         id="stop26" /><stop
         style="stop-opacity:1;stop-color:#00b1f1"
         offset="1"
         id="stop28" /></linearGradient><clipPath
       clipPathUnits="userSpaceOnUse"
       id="clipPath40"><path
         d="m 310.523,305.218 c 13.218,-18.843 27.001,-31.332 25.319,-49.282 v 0 c -0.687,-7.331 -8.1,-14.059 -10.623,-14.936 v 0 c 11.789,32.881 -38.202,62.103 -28.926,95.634 v 0 c -9.615,-16.259 -3.823,-28.295 -0.282,-40.592 v 0 c 13.359,-46.395 -41.17,-58.139 -19.973,-9.024 v 0 C 267.684,273.883 260.28,263.837 260.212,241 v 0 H 260 v -36.695 l 62.5,-36.07 62.5,36.07 v 33.968 c 0.03,0.801 0.05,1.605 0.05,2.415 v 0 c 0,38.57 -37.361,66.396 -45.707,75.432 v 0 c -16.689,18.068 -30.607,35.588 -12.994,67.692 v 0 c -11.962,-10.72 -34.85,-51.473 -15.826,-78.594"
         id="path38"
         inkscape:connector-curvature="0" /></clipPath><linearGradient
       x1="0"
       y1="0"
       x2="1"
       y2="0"
       gradientUnits="userSpaceOnUse"
       gradientTransform="matrix(0,-215.57654,-215.57654,0,322.52496,383.81201)"
       spreadMethod="pad"
       id="linearGradient54"><stop
         style="stop-opacity:1;stop-color:#60dd1c"
         offset="0"
         id="stop46" /><stop
         style="stop-opacity:1;stop-color:#60dd1c"
         offset="0.204284"
         id="stop48" /><stop
         style="stop-opacity:1;stop-color:#60dd1c"
         offset="0.28440875"
         id="stop50" /><stop
         style="stop-opacity:1;stop-color:#00b1f1"
         offset="1"
         id="stop52" /></linearGradient></defs><sodipodi:namedview
     pagecolor="#ffffff"
     bordercolor="#666666"
     borderopacity="1"
     objecttolerance="10"
     gridtolerance="10"
     guidetolerance="10"
     inkscape:pageopacity="0"
     inkscape:pageshadow="2"
     inkscape:window-width="1366"
     inkscape:window-height="704"
     id="namedview4"
     showgrid="false"
     fit-margin-top="0"
     fit-margin-left="0"
     fit-margin-right="0"
     fit-margin-bottom="0"
     inkscape:zoom="0.23829499"
     inkscape:cx="-216.66932"
     inkscape:cy="-233.026"
     inkscape:window-x="0"
     inkscape:window-y="27"
     inkscape:window-maximized="1"
     inkscape:current-layer="g10" /><g
     id="g10"
     inkscape:groupmode="layer"
     inkscape:label="tokedo_nuovo"
     transform="matrix(1.3333333,0,0,-1.3333333,-346.66666,511.74932)"><g
       id="g14"><g
         id="g16"
         clip-path="url(#clipPath20)"><g
           id="g22"><g
             id="g24" /></g></g></g><g
       id="g34"><g
         id="g36"
         clip-path="url(#clipPath40)"><g
           id="g42"><g
             id="g44"><path
               d="m 310.523,305.218 c 13.218,-18.843 27.001,-31.332 25.319,-49.282 v 0 c -0.687,-7.331 -8.1,-14.059 -10.623,-14.936 v 0 c 11.789,32.881 -38.202,62.103 -28.926,95.634 v 0 c -9.615,-16.259 -3.823,-28.295 -0.282,-40.592 v 0 c 13.359,-46.395 -41.17,-58.139 -19.973,-9.024 v 0 C 267.684,273.883 260.28,263.837 260.212,241 v 0 H 260 v -36.695 l 62.5,-36.07 62.5,36.07 v 33.968 c 0.03,0.801 0.05,1.605 0.05,2.415 v 0 c 0,38.57 -37.361,66.396 -45.707,75.432 v 0 c -16.689,18.068 -30.607,35.588 -12.994,67.692 v 0 c -11.962,-10.72 -34.85,-51.473 -15.826,-78.594"
               style="fill:url(#linearGradient54);stroke:none"
               id="path56"
               inkscape:connector-curvature="0" /></g></g></g></g></g></svg>