<?xml version="1.0" standalone="no"?>
<!DOCTYPE svg PUBLIC "-//W3C//DTD SVG 20010904//EN"
 "http://www.w3.org/TR/2001/REC-SVG-20010904/DTD/svg10.dtd">
<svg version="1.0" xmlns="http://www.w3.org/2000/svg"
 width="1549.000000pt" height="1549.000000pt" viewBox="0 0 1549.000000 1549.000000"
 preserveAspectRatio="xMidYMid meet">
<metadata>
Created by potrace 1.11, written by Peter Selinger 2001-2013
</metadata>
<g transform="translate(0.000000,1549.000000) scale(0.100000,-0.100000)"
fill="#000000" stroke="none">
<path d="M14510 15479 c-662 -44 -1261 -145 -1840 -310 -181 -52 -539 -169
-685 -224 -309 -117 -744 -315 -1016 -461 -916 -492 -1655 -1074 -2370 -1864
-52 -58 -267 -318 -478 -577 -378 -465 -385 -473 -420 -473 -20 0 -396 11
-836 24 -895 26 -1060 24 -1390 -19 -795 -103 -1516 -384 -2164 -843 -300
-213 -342 -252 -1359 -1266 -601 -599 -981 -986 -994 -1011 -25 -48 -34 -145
-19 -201 23 -85 100 -167 185 -194 25 -8 662 -45 1812 -104 975 -50 1775 -94
1778 -96 2 -3 -33 -52 -79 -110 -97 -121 -121 -179 -112 -267 7 -63 27 -108
130 -285 l74 -127 -417 -495 c-230 -273 -428 -509 -439 -525 -12 -16 -28 -56
-36 -88 -22 -88 -9 -140 84 -319 254 -489 616 -920 1045 -1243 174 -131 455
-304 625 -384 76 -36 95 -41 161 -41 120 -1 82 -28 824 593 193 161 356 295
363 298 7 3 68 -27 137 -66 156 -90 200 -105 277 -98 76 7 123 31 239 122 52
41 98 75 103 75 4 0 7 -19 7 -42 0 -24 40 -830 90 -1791 82 -1606 91 -1752
110 -1793 39 -90 103 -145 196 -169 70 -18 144 -8 209 30 59 35 1880 1864
2005 2015 597 719 960 1529 1089 2425 42 295 44 347 50 1310 l6 939 346 271
c596 464 758 603 1083 924 172 170 416 435 562 611 952 1147 1592 2541 1843
4010 94 553 142 1221 98 1364 -63 205 -204 364 -387 435 -134 53 -205 59 -490
40z m301 -588 c16 -16 29 -38 29 -48 0 -69 -34 -508 -50 -650 -224 -1968
-1163 -3779 -2635 -5079 -186 -164 -413 -345 -1180 -940 -445 -345 -1453
-1126 -2238 -1736 -786 -609 -1431 -1108 -1434 -1108 -20 0 -372 232 -538 354
-123 91 -303 236 -413 334 l-73 66 769 770 c529 530 775 783 787 811 27 58 31
151 10 216 -25 73 -101 150 -174 174 -68 22 -159 16 -221 -15 -32 -15 -266
-243 -810 -786 l-765 -764 -55 62 c-217 247 -464 583 -634 865 l-37 62 953
1173 c523 645 1371 1688 1882 2318 511 630 977 1199 1035 1265 221 251 598
615 871 841 1146 947 2547 1567 3985 1763 316 43 308 42 560 61 338 26 341 26
376 -9z m-8032 -3866 c272 -8 495 -16 496 -17 2 -2 -465 -579 -1037 -1283
-572 -704 -1045 -1288 -1052 -1297 -11 -15 -124 -11 -1646 68 -899 46 -1643
85 -1653 86 -13 2 195 216 685 704 723 721 810 801 1076 987 742 521 1636 793
2527 769 61 -2 332 -9 604 -17z m4098 -4357 c-3 -570 -7 -730 -21 -847 -108
-933 -476 -1750 -1095 -2431 -52 -58 -376 -385 -721 -726 l-625 -622 -3 47
c-21 347 -162 3178 -160 3210 l3 43 1305 1014 c718 557 1309 1013 1313 1013 5
1 7 -315 4 -701z m-5762 -156 c320 -429 870 -972 1287 -1271 l47 -34 -365
-303 c-200 -167 -368 -304 -374 -304 -20 0 -229 131 -346 216 -308 225 -570
498 -769 804 -45 69 -96 150 -113 182 l-32 56 302 360 c167 199 305 361 308
361 3 0 28 -30 55 -67z"/>
<path d="M11215 12544 c-306 -43 -554 -168 -753 -380 -494 -524 -419 -1358
162 -1796 469 -353 1146 -305 1567 112 234 232 359 530 359 854 0 333 -122
628 -355 861 -170 171 -372 280 -610 330 -76 16 -307 28 -370 19z m253 -579
c353 -70 581 -431 492 -779 -30 -118 -82 -209 -169 -296 -127 -126 -270 -185
-446 -184 -251 1 -463 131 -570 349 -48 98 -66 174 -66 285 0 111 18 187 66
285 63 128 170 232 302 293 131 60 251 74 391 47z"/>
<path d="M8383 8863 c-62 -21 -136 -92 -163 -155 -60 -140 -1 -296 140 -370
65 -33 176 -33 243 2 181 92 214 331 66 464 -80 72 -188 94 -286 59z"/>
<path d="M2845 4581 c-316 -56 -603 -202 -822 -420 -157 -155 -617 -762 -911
-1204 -545 -816 -884 -1494 -998 -1992 -36 -159 -44 -372 -20 -496 33 -161
110 -281 234 -362 116 -76 229 -107 387 -107 429 0 1141 302 2035 863 530 333
1110 754 1403 1019 254 230 430 544 493 883 28 149 26 421 -4 573 -130 653
-637 1143 -1288 1246 -136 22 -377 20 -509 -3z m474 -637 c153 -32 322 -118
433 -222 111 -104 206 -259 254 -417 25 -82 28 -105 28 -255 1 -183 -6 -226
-61 -359 -66 -161 -154 -273 -343 -435 -275 -237 -753 -575 -1230 -871 -749
-465 -1386 -755 -1660 -755 l-50 0 0 64 c0 78 18 160 65 294 189 542 783 1563
1328 2282 130 172 317 390 390 456 143 130 331 212 547 238 59 7 220 -4 299
-20z"/>
</g>
</svg>
