<svg id="back" xmlns="http://www.w3.org/2000/svg" viewBox="0 0 1550.279 1453.176">
  <defs>
    <style>
      .cls-1 {
        fill: #888;
      }
    </style>
  </defs>
  <path id="Path_910" data-name="Path 910" class="cls-1" d="M595.168,359.8V4.046L1.416,593.195l593.752,594.789V832.256s519.636-128.6,877.34,472.453c0,0,89.175-458.752-310.341-791.181C1162.2,513.5,985.264,348.051,595.168,359.8Z" transform="translate(40.396 66.881)"/>
  <path id="Path_911" data-name="Path 911" class="cls-1" d="M1527.136,1454.82l-39.6-66.5c-301.6-506.824-720.516-478.447-822.447-463v402.589L0,661.631,665.092,1.644V398.239c375.834-3.041,550.523,155.555,557.668,162.229,406.927,338.542,320.056,813.623,319.14,818.377ZM757.249,859.677c170.112,0,482.608,57.226,733.892,424.5,3.78-143.891-26.457-445.7-307.388-679.446-2.923-2.6-176.637-158.656-547.245-146.9l-30.414.886V143.468L83.624,661.808l522.412,523.36V877.66l22.441-5.551C630.544,871.577,679.561,859.677,757.249,859.677Z" transform="translate(0 -1.644)"/>
</svg>
