<svg id="calendar_1_" data-name="calendar (1)" xmlns="http://www.w3.org/2000/svg" viewBox="0 0 38 38">
  <defs>
    <style>
      .cls-1 {
        fill: #b8b8b8;
      }
    </style>
  </defs>
  <g id="Group_1136" data-name="Group 1136">
    <g id="Group_1135" data-name="Group 1135">
      <path id="Path_1083" data-name="Path 1083" class="cls-1" d="M34.66,4.453H33.547V3.34a3.34,3.34,0,1,0-6.68,0V4.453H22.414V3.34a3.34,3.34,0,0,0-6.68,0V4.453h-4.6V3.34a3.34,3.34,0,0,0-6.68,0V4.453H3.34A3.344,3.344,0,0,0,0,7.793V34.66A3.344,3.344,0,0,0,3.34,38H34.66A3.344,3.344,0,0,0,38,34.66V7.793A3.344,3.344,0,0,0,34.66,4.453ZM29.094,3.34a1.113,1.113,0,1,1,2.227,0V7.793a1.113,1.113,0,1,1-2.227,0Zm-11.133,0a1.113,1.113,0,0,1,2.227,0V7.793a1.113,1.113,0,0,1-2.227,0ZM6.68,3.34a1.113,1.113,0,1,1,2.227,0V7.793a1.113,1.113,0,1,1-2.227,0ZM35.773,34.66a1.115,1.115,0,0,1-1.113,1.113H3.34A1.115,1.115,0,0,1,2.227,34.66V15.734H35.773Zm0-21.152H2.227V7.793A1.115,1.115,0,0,1,3.34,6.68H4.453V7.793a3.34,3.34,0,1,0,6.68,0V6.68h4.6V7.793a3.34,3.34,0,1,0,6.68,0V6.68h4.453V7.793a3.34,3.34,0,1,0,6.68,0V6.68H34.66a1.115,1.115,0,0,1,1.113,1.113Z"/>
    </g>
  </g>
  <g id="Group_1138" data-name="Group 1138" transform="translate(4.453 17.961)">
    <g id="Group_1137" data-name="Group 1137">
      <path id="Path_1084" data-name="Path 1084" class="cls-1" d="M87.98,242H61.113A1.113,1.113,0,0,0,60,243.113v13.359a1.113,1.113,0,0,0,1.113,1.113H87.98a1.113,1.113,0,0,0,1.113-1.113V243.113A1.113,1.113,0,0,0,87.98,242Zm-21.3,13.359H62.227v-4.453H66.68Zm0-6.68H62.227v-4.453H66.68Zm6.828,6.68h-4.6v-4.453h4.6Zm0-6.68h-4.6v-4.453h4.6Zm6.68,6.68H75.734v-4.453h4.453Zm0-6.68H75.734v-4.453h4.453Zm6.68,6.68H82.414v-4.453h4.453Zm0-6.68H82.414v-4.453h4.453Z" transform="translate(-60 -242)"/>
    </g>
  </g>
</svg>
