<svg xmlns="http://www.w3.org/2000/svg" viewBox="0 0 844 844">
  <defs>
    <style>
      .cls-1 {
        fill: #eff2fa;
      }

      .cls-2 {
        fill: #e4eaf6;
      }

      .cls-3 {
        fill: #f9af39;
      }

      .cls-4 {
        fill: #fff;
      }

      .cls-5 {
        fill: #c7cfe2;
      }

      .cls-6 {
        fill: #afb9d2;
      }

      .cls-7 {
        fill: #d7deed;
      }

      .cls-8 {
        fill: #f6c358;
      }

      .cls-9 {
        fill: #ff9600;
      }

      .cls-10 {
        fill: #707487;
      }
    </style>
  </defs>
  <g id="Group_1340" data-name="Group 1340" transform="translate(-9922 6504)">
    <g id="wall-calendar" transform="translate(9922 -6504)">
      <path id="Path_1337" data-name="Path 1337" class="cls-1" d="M814.9,745.241H29.1A29.1,29.1,0,0,1,0,716.138V46.758a29.1,29.1,0,0,1,29.1-29.1H814.9a29.1,29.1,0,0,1,29.1,29.1V716.138A29.1,29.1,0,0,1,814.9,745.241Z" transform="translate(0 11.448)"/>
      <path id="Path_1338" data-name="Path 1338" class="cls-2" d="M549.01,596.413A231.442,231.442,0,0,0,580.413,480c0-128.586-104.241-232.827-232.827-232.827S114.759,351.413,114.759,480a231.447,231.447,0,0,0,31.4,116.414Z" transform="translate(74.414 160.276)"/>
      <path id="Path_1339" data-name="Path 1339" class="cls-3" d="M844,163.172H0V46.758a29.1,29.1,0,0,1,29.1-29.1H814.9a29.1,29.1,0,0,1,29.1,29.1Z" transform="translate(0 11.448)"/>
      <rect id="Rectangle_840" data-name="Rectangle 840" class="cls-2" width="844" height="29.103" transform="translate(0 174.621)"/>
      <circle id="Ellipse_164" data-name="Ellipse 164" class="cls-4" cx="43.656" cy="43.656" r="43.656" transform="translate(80.033 50.93)"/>
      <path id="Path_1340" data-name="Path 1340" class="cls-5" d="M83.62,116.414h0A21.828,21.828,0,0,1,61.793,94.587V21.827A21.829,21.829,0,0,1,83.62,0h0a21.828,21.828,0,0,1,21.827,21.827V94.586A21.827,21.827,0,0,1,83.62,116.414Z" transform="translate(40.069)"/>
      <path id="Path_1341" data-name="Path 1341" class="cls-6" d="M83.62,52.724A21.828,21.828,0,0,1,61.793,30.9V74.553a21.827,21.827,0,1,0,43.654,0V30.9A21.827,21.827,0,0,1,83.62,52.724Z" transform="translate(40.069 20.035)"/>
      <circle id="Ellipse_165" data-name="Ellipse 165" class="cls-4" cx="43.656" cy="43.656" r="43.656" transform="translate(676.656 50.93)"/>
      <path id="Path_1342" data-name="Path 1342" class="cls-5" d="M445.552,116.414h0a21.828,21.828,0,0,1-21.827-21.827V21.827A21.827,21.827,0,0,1,445.552,0h0a21.828,21.828,0,0,1,21.827,21.827V94.586A21.829,21.829,0,0,1,445.552,116.414Z" transform="translate(274.759)"/>
      <path id="Path_1343" data-name="Path 1343" class="cls-6" d="M445.552,52.724A21.828,21.828,0,0,1,423.725,30.9V74.553a21.827,21.827,0,0,0,43.654,0V30.9A21.829,21.829,0,0,1,445.552,52.724Z" transform="translate(274.759 20.035)"/>
      <g id="Group_1328" data-name="Group 1328" transform="translate(87.309 305.584)">
        <path id="Path_1344" data-name="Path 1344" class="cls-2" d="M125.724,258.138H67.517a14.554,14.554,0,0,1-14.552-14.552V199.93a14.554,14.554,0,0,1,14.552-14.552h58.206a14.554,14.554,0,0,1,14.552,14.552v43.656A14.553,14.553,0,0,1,125.724,258.138Z" transform="translate(-52.965 -185.378)"/>
        <path id="Path_1345" data-name="Path 1345" class="cls-2" d="M196.345,258.138H138.138a14.554,14.554,0,0,1-14.552-14.552V199.93a14.554,14.554,0,0,1,14.552-14.552h58.206A14.554,14.554,0,0,1,210.9,199.93v43.656A14.553,14.553,0,0,1,196.345,258.138Z" transform="translate(-7.172 -185.378)"/>
        <path id="Path_1346" data-name="Path 1346" class="cls-2" d="M266.966,258.138H208.759a14.554,14.554,0,0,1-14.552-14.552V199.93a14.554,14.554,0,0,1,14.552-14.552h58.206a14.554,14.554,0,0,1,14.552,14.552v43.656A14.554,14.554,0,0,1,266.966,258.138Z" transform="translate(38.622 -185.378)"/>
        <path id="Path_1347" data-name="Path 1347" class="cls-2" d="M337.587,258.138H279.38a14.554,14.554,0,0,1-14.552-14.552V199.93a14.554,14.554,0,0,1,14.552-14.552h58.206a14.554,14.554,0,0,1,14.552,14.552v43.656A14.554,14.554,0,0,1,337.587,258.138Z" transform="translate(84.415 -185.378)"/>
      </g>
      <g id="Group_1329" data-name="Group 1329" transform="translate(552.965 305.584)">
        <path id="Path_1348" data-name="Path 1348" class="cls-7" d="M408.207,258.138H350a14.554,14.554,0,0,1-14.552-14.552V199.93A14.554,14.554,0,0,1,350,185.378h58.206a14.554,14.554,0,0,1,14.552,14.552v43.656A14.553,14.553,0,0,1,408.207,258.138Z" transform="translate(-335.448 -185.378)"/>
        <path id="Path_1349" data-name="Path 1349" class="cls-7" d="M478.828,258.138H420.621a14.554,14.554,0,0,1-14.552-14.552V199.93a14.554,14.554,0,0,1,14.552-14.552h58.206A14.554,14.554,0,0,1,493.38,199.93v43.656A14.554,14.554,0,0,1,478.828,258.138Z" transform="translate(-289.655 -185.378)"/>
      </g>
      <g id="Group_1330" data-name="Group 1330" transform="translate(87.309 247.378)">
        <path id="Path_1350" data-name="Path 1350" class="cls-5" d="M125.724,179.173H67.517A14.554,14.554,0,0,1,52.965,164.62h0a14.554,14.554,0,0,1,14.552-14.552h58.206a14.554,14.554,0,0,1,14.552,14.552h0A14.553,14.553,0,0,1,125.724,179.173Z" transform="translate(-52.965 -150.068)"/>
        <path id="Path_1351" data-name="Path 1351" class="cls-5" d="M196.345,179.173H138.138a14.554,14.554,0,0,1-14.552-14.552h0a14.554,14.554,0,0,1,14.552-14.552h58.206A14.554,14.554,0,0,1,210.9,164.62h0A14.553,14.553,0,0,1,196.345,179.173Z" transform="translate(-7.172 -150.068)"/>
        <path id="Path_1352" data-name="Path 1352" class="cls-5" d="M266.966,179.173H208.759a14.554,14.554,0,0,1-14.552-14.552h0a14.554,14.554,0,0,1,14.552-14.552h58.206a14.554,14.554,0,0,1,14.552,14.552h0A14.554,14.554,0,0,1,266.966,179.173Z" transform="translate(38.622 -150.068)"/>
        <path id="Path_1353" data-name="Path 1353" class="cls-5" d="M337.587,179.173H279.38a14.554,14.554,0,0,1-14.552-14.552h0a14.554,14.554,0,0,1,14.552-14.552h58.206a14.554,14.554,0,0,1,14.552,14.552h0A14.554,14.554,0,0,1,337.587,179.173Z" transform="translate(84.415 -150.068)"/>
      </g>
      <g id="Group_1331" data-name="Group 1331" transform="translate(552.965 247.378)">
        <path id="Path_1354" data-name="Path 1354" class="cls-8" d="M408.207,179.173H350a14.554,14.554,0,0,1-14.552-14.552h0A14.554,14.554,0,0,1,350,150.068h58.206a14.554,14.554,0,0,1,14.552,14.552h0A14.553,14.553,0,0,1,408.207,179.173Z" transform="translate(-335.448 -150.068)"/>
        <path id="Path_1355" data-name="Path 1355" class="cls-9" d="M478.828,179.173H420.621a14.554,14.554,0,0,1-14.552-14.552h0a14.554,14.554,0,0,1,14.552-14.552h58.206A14.554,14.554,0,0,1,493.38,164.62h0A14.554,14.554,0,0,1,478.828,179.173Z" transform="translate(-289.655 -150.068)"/>
      </g>
      <g id="Group_1332" data-name="Group 1332" transform="translate(87.309 407.448)">
        <path id="Path_1356" data-name="Path 1356" class="cls-2" d="M125.724,319.931H67.517a14.554,14.554,0,0,1-14.552-14.552V261.724a14.554,14.554,0,0,1,14.552-14.552h58.206a14.554,14.554,0,0,1,14.552,14.552V305.38A14.552,14.552,0,0,1,125.724,319.931Z" transform="translate(-52.965 -247.172)"/>
        <path id="Path_1357" data-name="Path 1357" class="cls-2" d="M196.345,319.931H138.138a14.554,14.554,0,0,1-14.552-14.552V261.724a14.554,14.554,0,0,1,14.552-14.552h58.206A14.554,14.554,0,0,1,210.9,261.724V305.38A14.552,14.552,0,0,1,196.345,319.931Z" transform="translate(-7.172 -247.172)"/>
        <path id="Path_1358" data-name="Path 1358" class="cls-2" d="M266.966,319.931H208.759a14.554,14.554,0,0,1-14.552-14.552V261.724a14.554,14.554,0,0,1,14.552-14.552h58.206a14.554,14.554,0,0,1,14.552,14.552V305.38A14.553,14.553,0,0,1,266.966,319.931Z" transform="translate(38.622 -247.172)"/>
        <path id="Path_1359" data-name="Path 1359" class="cls-2" d="M337.587,319.931H279.38a14.554,14.554,0,0,1-14.552-14.552V261.724a14.554,14.554,0,0,1,14.552-14.552h58.206a14.554,14.554,0,0,1,14.552,14.552V305.38A14.553,14.553,0,0,1,337.587,319.931Z" transform="translate(84.415 -247.172)"/>
      </g>
      <g id="Group_1333" data-name="Group 1333" transform="translate(552.965 407.448)">
        <path id="Path_1360" data-name="Path 1360" class="cls-7" d="M408.207,319.931H350a14.554,14.554,0,0,1-14.552-14.552V261.724A14.554,14.554,0,0,1,350,247.172h58.206a14.554,14.554,0,0,1,14.552,14.552V305.38A14.552,14.552,0,0,1,408.207,319.931Z" transform="translate(-335.448 -247.172)"/>
        <path id="Path_1361" data-name="Path 1361" class="cls-7" d="M478.828,319.931H420.621a14.554,14.554,0,0,1-14.552-14.552V261.724a14.554,14.554,0,0,1,14.552-14.552h58.206a14.554,14.554,0,0,1,14.552,14.552V305.38A14.553,14.553,0,0,1,478.828,319.931Z" transform="translate(-289.655 -247.172)"/>
      </g>
      <g id="Group_1334" data-name="Group 1334" transform="translate(87.309 509.308)">
        <path id="Path_1362" data-name="Path 1362" class="cls-2" d="M125.724,381.724H67.517a14.554,14.554,0,0,1-14.552-14.552V323.516a14.554,14.554,0,0,1,14.552-14.552h58.206a14.554,14.554,0,0,1,14.552,14.552v43.656A14.553,14.553,0,0,1,125.724,381.724Z" transform="translate(-52.965 -308.964)"/>
        <path id="Path_1363" data-name="Path 1363" class="cls-2" d="M196.345,381.724H138.138a14.554,14.554,0,0,1-14.552-14.552V323.516a14.554,14.554,0,0,1,14.552-14.552h58.206A14.554,14.554,0,0,1,210.9,323.516v43.656A14.553,14.553,0,0,1,196.345,381.724Z" transform="translate(-7.172 -308.964)"/>
        <path id="Path_1364" data-name="Path 1364" class="cls-2" d="M266.966,381.724H208.759a14.554,14.554,0,0,1-14.552-14.552V323.516a14.554,14.554,0,0,1,14.552-14.552h58.206a14.554,14.554,0,0,1,14.552,14.552v43.656A14.554,14.554,0,0,1,266.966,381.724Z" transform="translate(38.622 -308.964)"/>
        <path id="Path_1365" data-name="Path 1365" class="cls-2" d="M337.587,381.724H279.38a14.554,14.554,0,0,1-14.552-14.552V323.516a14.554,14.554,0,0,1,14.552-14.552h58.206a14.554,14.554,0,0,1,14.552,14.552v43.656A14.554,14.554,0,0,1,337.587,381.724Z" transform="translate(84.415 -308.964)"/>
      </g>
      <g id="Group_1335" data-name="Group 1335" transform="translate(552.965 509.308)">
        <path id="Path_1366" data-name="Path 1366" class="cls-7" d="M408.207,381.724H350a14.554,14.554,0,0,1-14.552-14.552V323.516A14.554,14.554,0,0,1,350,308.964h58.206a14.554,14.554,0,0,1,14.552,14.552v43.656A14.553,14.553,0,0,1,408.207,381.724Z" transform="translate(-335.448 -308.964)"/>
        <path id="Path_1367" data-name="Path 1367" class="cls-7" d="M478.828,381.724H420.621a14.554,14.554,0,0,1-14.552-14.552V323.516a14.554,14.554,0,0,1,14.552-14.552h58.206a14.554,14.554,0,0,1,14.552,14.552v43.656A14.554,14.554,0,0,1,478.828,381.724Z" transform="translate(-289.655 -308.964)"/>
      </g>
      <g id="Group_1336" data-name="Group 1336" transform="translate(87.309 611.171)">
        <path id="Path_1368" data-name="Path 1368" class="cls-2" d="M125.724,443.518H67.517a14.554,14.554,0,0,1-14.552-14.552V385.31a14.554,14.554,0,0,1,14.552-14.552h58.206a14.554,14.554,0,0,1,14.552,14.552v43.656A14.554,14.554,0,0,1,125.724,443.518Z" transform="translate(-52.965 -370.758)"/>
        <path id="Path_1369" data-name="Path 1369" class="cls-2" d="M196.345,443.518H138.138a14.554,14.554,0,0,1-14.552-14.552V385.31a14.554,14.554,0,0,1,14.552-14.552h58.206A14.554,14.554,0,0,1,210.9,385.31v43.656A14.554,14.554,0,0,1,196.345,443.518Z" transform="translate(-7.172 -370.758)"/>
        <path id="Path_1370" data-name="Path 1370" class="cls-2" d="M266.966,443.518H208.759a14.554,14.554,0,0,1-14.552-14.552V385.31a14.554,14.554,0,0,1,14.552-14.552h58.206a14.554,14.554,0,0,1,14.552,14.552v43.656A14.555,14.555,0,0,1,266.966,443.518Z" transform="translate(38.622 -370.758)"/>
        <path id="Path_1371" data-name="Path 1371" class="cls-2" d="M337.587,443.518H279.38a14.554,14.554,0,0,1-14.552-14.552V385.31a14.554,14.554,0,0,1,14.552-14.552h58.206a14.554,14.554,0,0,1,14.552,14.552v43.656A14.555,14.555,0,0,1,337.587,443.518Z" transform="translate(84.415 -370.758)"/>
      </g>
      <g id="Group_1337" data-name="Group 1337" transform="translate(552.965 611.171)">
        <path id="Path_1372" data-name="Path 1372" class="cls-7" d="M408.207,443.518H350a14.554,14.554,0,0,1-14.552-14.552V385.31A14.554,14.554,0,0,1,350,370.758h58.206a14.554,14.554,0,0,1,14.552,14.552v43.656A14.554,14.554,0,0,1,408.207,443.518Z" transform="translate(-335.448 -370.758)"/>
        <path id="Path_1373" data-name="Path 1373" class="cls-7" d="M478.828,443.518H420.621a14.554,14.554,0,0,1-14.552-14.552V385.31a14.554,14.554,0,0,1,14.552-14.552h58.206A14.554,14.554,0,0,1,493.38,385.31v43.656A14.555,14.555,0,0,1,478.828,443.518Z" transform="translate(-289.655 -370.758)"/>
      </g>
      <circle id="Ellipse_166" data-name="Ellipse 166" class="cls-6" cx="203.724" cy="203.724" r="203.724" transform="translate(218.276 436.552)"/>
      <circle id="Ellipse_167" data-name="Ellipse 167" class="cls-4" cx="174.621" cy="174.621" r="174.621" transform="translate(247.379 465.656)"/>
      <circle id="Ellipse_168" data-name="Ellipse 168" class="cls-1" cx="101.862" cy="101.862" r="101.862" transform="translate(320.138 538.414)"/>
      <g id="Group_1338" data-name="Group 1338" transform="translate(232.825 451.103)">
        <path id="Path_1374" data-name="Path 1374" class="cls-10" d="M261.724,273.655h0a14.554,14.554,0,0,0-14.552,14.552V302.76a14.554,14.554,0,0,0,14.552,14.552h0a14.554,14.554,0,0,0,14.552-14.552V288.207A14.554,14.554,0,0,0,261.724,273.655Z" transform="translate(-72.55 -273.655)"/>
        <path id="Path_1375" data-name="Path 1375" class="cls-10" d="M261.724,476.69h0a14.554,14.554,0,0,0-14.552,14.552v14.552a14.554,14.554,0,0,0,14.552,14.552h0a14.554,14.554,0,0,0,14.552-14.552V491.242A14.553,14.553,0,0,0,261.724,476.69Z" transform="translate(-72.55 -141.999)"/>
        <path id="Path_1376" data-name="Path 1376" class="cls-10" d="M387.932,394.138h0a14.554,14.554,0,0,0-14.552-14.552H358.827a14.554,14.554,0,0,0-14.552,14.552h0a14.554,14.554,0,0,0,14.552,14.552H373.38A14.555,14.555,0,0,0,387.932,394.138Z" transform="translate(-9.584 -204.965)"/>
        <path id="Path_1377" data-name="Path 1377" class="cls-10" d="M184.9,394.138h0a14.554,14.554,0,0,0-14.552-14.552H155.792a14.554,14.554,0,0,0-14.552,14.552h0a14.554,14.554,0,0,0,14.552,14.552h14.552A14.554,14.554,0,0,0,184.9,394.138Z" transform="translate(-141.24 -204.965)"/>
      </g>
      <g id="Group_1339" data-name="Group 1339" transform="translate(363.794 523.86)">
        <path id="Path_1378" data-name="Path 1378" class="cls-5" d="M261.724,492.414h0a14.554,14.554,0,0,1-14.552-14.552V332.344a14.554,14.554,0,0,1,14.552-14.552h0a14.554,14.554,0,0,1,14.552,14.552V477.862A14.553,14.553,0,0,1,261.724,492.414Z" transform="translate(-203.518 -317.792)"/>
        <path id="Path_1379" data-name="Path 1379" class="cls-5" d="M220.69,394.138h0a14.554,14.554,0,0,1,14.552-14.552H380.76a14.554,14.554,0,0,1,14.552,14.552h0a14.554,14.554,0,0,1-14.552,14.552H235.242A14.554,14.554,0,0,1,220.69,394.138Z" transform="translate(-220.69 -277.722)"/>
      </g>
      <circle id="Ellipse_169" data-name="Ellipse 169" class="cls-3" cx="29.103" cy="29.103" r="29.103" transform="translate(392.897 611.173)"/>
    </g>
  </g>
</svg>
