<svg xmlns="http://www.w3.org/2000/svg" viewBox="0 0 1677.579 1784.295">
  <defs>
    <style>
      .cls-1 {
        fill: #eac6bb;
      }

      .cls-2 {
        fill: #d3b1a9;
      }

      .cls-3 {
        fill: #f5f7fa;
      }

      .cls-4 {
        fill: #c9dfff;
      }

      .cls-5 {
        fill: #b1d1ff;
      }

      .cls-6 {
        fill: #f6bb42;
      }

      .cls-7 {
        fill: #e6e9ed;
      }

      .cls-8 {
        fill: #ccd1d9;
      }

      .cls-9 {
        fill: #ffce54;
      }

      .cls-10 {
        fill: #edab37;
      }

      .cls-11 {
        fill: #965353;
      }

      .cls-12 {
        fill: #844646;
      }

      .cls-13 {
        fill: #9ba0a4;
      }

      .cls-14 {
        fill: #f6c358;
      }

      .cls-15 {
        fill: #fcd462;
      }

      .cls-16 {
        fill: #ffb950;
      }

      .cls-17 {
        fill: #dc8744;
      }

      .cls-18 {
        fill: #b5794a;
      }
    </style>
  </defs>
  <g id="Group_1194" data-name="Group 1194" transform="translate(-471.999 16665.295)">
    <g id="Group_1192" data-name="Group 1192">
      <g id="bitcoin" transform="translate(471.999 -16363.652)">
        <path id="Path_1098" data-name="Path 1098" class="cls-1" d="M535.67,428.161c0,98.722-57.1,184.073-139.873,225.2a251.777,251.777,0,0,1-363.669-223.8V344.8l83.924-56.788s84.2,27.975,181.835,27.975c97.575,0,153.86-27.975,153.86-27.975L535.67,344.8Z" transform="translate(51.796 467.333)"/>
        <path id="Path_1099" data-name="Path 1099" class="cls-2" d="M311.925,288s-9.987,4.756-27.975,10.323V428.181c0,98.722-57.1,184.073-139.873,225.2a249.558,249.558,0,0,1-55.949,19.89A250.178,250.178,0,0,0,255.975,653.4c82.777-41.123,139.873-126.473,139.873-225.2V344.844Z" transform="translate(191.618 467.313)"/>
        <path id="Path_1100" data-name="Path 1100" class="cls-3" d="M184.026,502.7l-55.949,27.975L72.128,502.7V392.48a251.47,251.47,0,0,0,223.8,0V502.7l-55.949,27.975Z" transform="translate(151.669 728.181)"/>
        <path id="Path_1101" data-name="Path 1101" class="cls-4" d="M399.772,451.975,455.721,424h83.924A139.745,139.745,0,0,1,679.518,563.873V647.8a27.877,27.877,0,0,1-27.974,27.975H36.1A27.842,27.842,0,0,1,8.128,647.8V563.873A139.888,139.888,0,0,1,148,424h83.924l55.949,27.975L343.823,424Z" transform="translate(-8.128 806.88)"/>
        <path id="Path_1102" data-name="Path 1102" class="cls-5" d="M223.407,424H139.484l-4.7,2.35c66.272,11.106,116.6,68.258,116.6,137.523V647.8a27.877,27.877,0,0,1-27.975,27.975h111.9A27.878,27.878,0,0,0,363.28,647.8V563.873A139.763,139.763,0,0,0,223.407,424Z" transform="translate(308.109 806.88)"/>
        <path id="Path_1108" data-name="Path 1108" class="cls-6" d="M563.745,408.432v34.157c-54.243-71.055-93.967-86.441-139.873-80.567L507.8,245.368A264.894,264.894,0,0,1,563.745,408.432Z" transform="translate(1029.91 360.869)"/>
        <g id="Group_1193" data-name="Group 1193">
          <path id="Path_1103" data-name="Path 1103" class="cls-3" d="M471.77,418.756a250.812,250.812,0,0,0,111.9-26.268V502.68l-55.949,27.975L471.77,502.68l-55.949,27.975L359.872,502.68V392.74A254.317,254.317,0,0,0,471.77,418.756Z" transform="translate(870.114 728.201)"/>
          <path id="Path_1104" data-name="Path 1104" class="cls-7" d="M967.262,563.873V647.8a27.842,27.842,0,0,1-27.975,27.975H323.847A27.7,27.7,0,0,1,295.872,647.8V563.873A139.745,139.745,0,0,1,435.745,424h83.924l55.949,27.975L631.567,424l55.949,27.975L743.465,424h83.924A139.924,139.924,0,0,1,967.262,563.873Z" transform="translate(710.317 806.88)"/>
          <path id="Path_1105" data-name="Path 1105" class="cls-8" d="M511.152,424H427.228l-4.7,2.35c66.1,11.134,116.6,68.286,116.6,137.523V647.8a27.842,27.842,0,0,1-27.975,27.975h111.9A27.842,27.842,0,0,0,651.024,647.8V563.873A139.924,139.924,0,0,0,511.152,424Z" transform="translate(1026.555 806.88)"/>
          <path id="Path_1106" data-name="Path 1106" class="cls-1" d="M319.872,450.746V329.9c198.06,24.338,289.257-40.843,363.669-50.354,45.906-5.875,85.63,9.511,139.873,80.567v92.036c0,98.722-57.04,184.073-139.873,225.2a250.44,250.44,0,0,1-111.9,26.268,254.317,254.317,0,0,1-111.9-26.016A251.024,251.024,0,0,1,319.872,452.116Z" transform="translate(770.241 443.349)"/>
          <path id="Path_1107" data-name="Path 1107" class="cls-2" d="M571.774,278.64V451.551c0,98.722-57.04,184.073-139.873,225.2a248.494,248.494,0,0,1-56.061,19.89A250.847,250.847,0,0,0,543.8,676.746c82.833-41.123,139.873-126.473,139.873-225.2V359.514C640.676,303.23,606.8,282.165,571.774,278.64Z" transform="translate(909.983 443.943)"/>
          <path id="Path_1109" data-name="Path 1109" class="cls-9" d="M787.44,318.695,703.516,435.348C629.1,444.86,537.907,510.041,339.847,485.7c-9.232-1.119-18.463-2.518-27.975-3.944C311.872,335.2,430.764,216,577.63,216A265.868,265.868,0,0,1,787.44,318.695Z" transform="translate(750.266 287.542)"/>
          <path id="Path_1110" data-name="Path 1110" class="cls-6" d="M529.165,318.695a265.283,265.283,0,0,1,44.759,87.281L636.7,318.695C588.024,256.311,511.961,216,426.891,216a266.357,266.357,0,0,0-54.634,5.679A266.5,266.5,0,0,1,529.165,318.695Z" transform="translate(901.034 287.542)"/>
          <path id="Path_1111" data-name="Path 1111" class="cls-10" d="M492.695,245.368,429.92,332.649a265.094,265.094,0,0,1,7.049,29.066.278.278,0,0,1,.112.028,106.243,106.243,0,0,1,11.693,1.958c.923.2,1.846.448,2.741.671a92.607,92.607,0,0,1,11.134,3.441c.923.336,1.846.811,2.8,1.2a122.06,122.06,0,0,1,19.135,10.127c1.9,1.231,3.888,2.322,5.847,3.721,2.574,1.818,5.259,4.028,7.861,6.126,2.8,2.266,5.623,4.616,8.532,7.189,2.406,2.154,4.868,4.448,7.273,6.854,3.5,3.385,7.049,7.106,10.6,11.022,2.07,2.21,4.084,4.336,6.182,6.742,5.791,6.63,11.693,13.764,17.82,21.764V408.432A265.285,265.285,0,0,0,492.695,245.368Z" transform="translate(1045.011 360.869)"/>
        </g>
        <path id="Path_1112" data-name="Path 1112" class="cls-11" d="M535.67,439.8v84.763l-83.924-56.788s-56.285,27.975-153.86,27.975c-97.631,0-181.835-27.975-181.835-27.975L32.128,524.559V439.8c0-123.648,100.149-223.8,223.8-223.8H423.772V327.9A111.885,111.885,0,0,1,535.67,439.8Z" transform="translate(51.796 287.542)"/>
        <path id="Path_1113" data-name="Path 1113" class="cls-12" d="M224.026,327.9V216h-111.9V383.847c61.8,0,111.9,22.1,111.9,83.924v10.323C242.014,472.527,252,467.771,252,467.771l83.924,56.788V439.8A111.885,111.885,0,0,0,224.026,327.9Z" transform="translate(251.541 287.542)"/>
        <g id="Group_1189" data-name="Group 1189" transform="translate(306.769 0)">
          <path id="Path_1118" data-name="Path 1118" class="cls-13" d="M491.729,72h-111.9a27.975,27.975,0,1,0,0,55.949h83.924V463.644a27.975,27.975,0,1,0,55.949,0V99.975A27.949,27.949,0,0,0,491.729,72Z" transform="translate(543.33 -72)"/>
          <path id="Path_1119" data-name="Path 1119" class="cls-13" d="M235.729,72h-111.9A27.949,27.949,0,0,0,95.856,99.975V463.644a27.975,27.975,0,0,0,55.949,0V127.949h83.924a27.975,27.975,0,0,0,0-55.949Z" transform="translate(-95.856 -72)"/>
        </g>
      </g>
      <g id="Group_1190" data-name="Group 1190" transform="translate(1009.229 -16665.295)">
        <g id="Group_891" data-name="Group 891" transform="translate(0 0)">
          <ellipse id="Ellipse_68" data-name="Ellipse 68" class="cls-14" cx="301.7" cy="301.699" rx="301.7" ry="301.699"/>
          <ellipse id="Ellipse_69" data-name="Ellipse 69" class="cls-15" cx="257.446" cy="257.445" rx="257.446" ry="257.445" transform="translate(44.254 44.257)"/>
          <path id="Path_811" data-name="Path 811" class="cls-14" d="M459.21,678.3a226.726,226.726,0,0,1-43.82-4.236l3.342-17a209.721,209.721,0,0,0,40.344,3.911l.207,15.661,0,1.663Zm44.014-4.319-3.384-17a207.308,207.308,0,0,0,38.973-11.841l6.649,16A224.506,224.506,0,0,1,503.225,673.984Zm-130.1-12.659a224.79,224.79,0,0,1-38.942-20.789l9.62-14.409a208.05,208.05,0,0,0,35.939,19.182Zm211.242-21.047-9.645-14.393A209.286,209.286,0,0,0,606.192,600l12.26,12.244A226.243,226.243,0,0,1,584.364,640.278Zm-284.33-27.7a227.179,227.179,0,0,1-28.069-34.048l14.384-9.673a209.732,209.732,0,0,0,25.922,31.45Zm346.414-34.445-14.4-9.638a207.914,207.914,0,0,0,19.22-35.922l16.01,6.634A225.748,225.748,0,0,1,646.449,578.132ZM251.057,539.646a223.888,223.888,0,0,1-12.878-42.23l16.991-3.393a206.828,206.828,0,0,0,11.878,38.956Zm429.007-42.692-17-3.36a209.761,209.761,0,0,0,3.951-40.559v-.91h17.328v.91A227,227,0,0,1,680.064,496.954ZM233.8,453.493v-.456a226.979,226.979,0,0,1,4.188-43.452L255,412.91a209.727,209.727,0,0,0-3.867,40.128ZM662.9,411.618a206.85,206.85,0,0,0-11.968-38.926l15.981-6.7a223.685,223.685,0,0,1,12.966,42.2ZM266.718,373.9l-16.025-6.6a224.973,224.973,0,0,1,20.742-38.968l14.427,9.6A207.46,207.46,0,0,0,266.718,373.9Zm364.841-37.057a209.8,209.8,0,0,0-25.988-31.391l12.21-12.294a226.94,226.94,0,0,1,28.136,33.989ZM311.65,306.382l-12.285-12.218a226.894,226.894,0,0,1,34.028-28.108l9.679,14.375A209.412,209.412,0,0,0,311.65,306.382ZM573.986,279.7A207.6,207.6,0,0,0,538,260.6l6.583-16.034a225.487,225.487,0,0,1,38.988,20.7ZM378.929,261.1l-6.685-15.991a224.286,224.286,0,0,1,42.208-12.919l3.418,16.991A206.34,206.34,0,0,0,378.929,261.1Zm120.057-12.18a209.612,209.612,0,0,0-39.913-3.825l-.479-12.084.317-5.245a234.994,234.994,0,0,1,43.38,4.146Z" transform="translate(-157.376 -151.314)"/>
        </g>
        <g id="Group_892" data-name="Group 892" transform="translate(217.153 136.309)">
          <path id="Path_815" data-name="Path 815" class="cls-16" d="M328.219,265.476,238.345,221.1V123.586Z" transform="translate(-148.472 -123.586)"/>
          <path id="Path_816" data-name="Path 816" class="cls-17" d="M257.6,123.586V221.1l-89.875,44.375Z" transform="translate(-167.724 -123.586)"/>
          <path id="Path_817" data-name="Path 817" class="cls-16" d="M328.219,276.921,238.345,418.81V321.3Z" transform="translate(-148.472 -81.779)"/>
          <path id="Path_818" data-name="Path 818" class="cls-17" d="M257.6,321.3V418.81l-89.875-141.89Z" transform="translate(-167.724 -81.779)"/>
          <path id="Path_819" data-name="Path 819" class="cls-18" d="M347.474,244.6,257.6,288.94,167.724,244.6,257.6,200.245Z" transform="translate(-167.724 -102.686)"/>
        </g>
      </g>
    </g>
  </g>
</svg>
