<svg xmlns="http://www.w3.org/2000/svg" viewBox="0 0 28 28">
  <defs>
    <style>
      .cls-1, .cls-4 {
        fill: none;
      }

      .cls-1 {
        stroke: #d4d4d4;
      }

      .cls-2 {
        fill: #d4d4d4;
      }

      .cls-3 {
        stroke: none;
      }
    </style>
  </defs>
  <g id="Group_1304" data-name="Group 1304" transform="translate(-1514 -492)">
    <g id="Ellipse_143" data-name="Ellipse 143" class="cls-1" transform="translate(1514 492)">
      <circle class="cls-3" cx="14" cy="14" r="14"/>
      <circle class="cls-4" cx="14" cy="14" r="13.5"/>
    </g>
    <path id="Path_1289" data-name="Path 1289" class="cls-2" d="M30.247,35.272a4.11,4.11,0,0,1-2.72.926,4.683,4.683,0,0,1-2.453-.679,4.012,4.012,0,0,1-1.67-2.054,8.826,8.826,0,0,1-.537-3.218,8.637,8.637,0,0,1,.453-2.774,4.211,4.211,0,0,1,1.572-2.144,4.676,4.676,0,0,1,2.784-.8,3.888,3.888,0,0,1,2.4.72,4.461,4.461,0,0,1,1.459,2.3l1.882-.444A5.734,5.734,0,0,0,31.361,24a5.917,5.917,0,0,0-3.646-1.1,7.167,7.167,0,0,0-3.5.872,5.9,5.9,0,0,0-2.453,2.55,8.514,8.514,0,0,0-.862,3.937,9.829,9.829,0,0,0,.763,3.872,5.929,5.929,0,0,0,2.226,2.753,6.857,6.857,0,0,0,3.8.952A5.956,5.956,0,0,0,31.5,36.6,6.435,6.435,0,0,0,33.666,33l-1.911-.483A4.742,4.742,0,0,1,30.247,35.272Z" transform="translate(1501.102 476.104)"/>
  </g>
</svg>
