<?xml version="1.0" encoding="utf-8"?>
<!-- Generator: Adobe Illustrator 22.0.1, SVG Export Plug-In . SVG Version: 6.00 Build 0)  -->
<svg version="1.1" id="background_home_Token_Creator"
	 xmlns="http://www.w3.org/2000/svg" xmlns:xlink="http://www.w3.org/1999/xlink" x="0px" y="0px" viewBox="0 0 1925 1403"
	 style="enable-background:new 0 0 1925 1403;" xml:space="preserve">
<style type="text/css">
	.st0{fill:#FF9407;}
	.st1{opacity:0.1;enable-background:new    ;}
	.st2{fill:#8F6848;}
	.st3{clip-path:url(#SVGID_2_);}
	.st4{fill:url(#Path_1299_1_);}
	.st5{clip-path:url(#SVGID_4_);}
	.st6{opacity:0.1;fill:#FFFFFF;enable-background:new    ;}
	.st7{clip-path:url(#SVGID_6_);}
	.st8{fill:url(#Ellipse_147_1_);}
	.st9{fill:#FF8861;}
	.st10{clip-path:url(#SVGID_8_);}
	.st11{clip-path:url(#SVGID_10_);}
	.st12{fill:url(#Ellipse_148_1_);}
	.st13{fill:url(#Path_1310_1_);}
	.st14{fill:url(#Path_1311_1_);}
	.st15{fill:url(#Path_1312_1_);}
	.st16{fill:url(#Path_1313_1_);}
	.st17{clip-path:url(#SVGID_12_);}
	.st18{fill:#AEAEAE;}
	.st19{clip-path:url(#SVGID_14_);}
	.st20{fill:#00677F;}
	.st21{fill:#FEB950;}
	.st22{fill:#F0F6F7;}
	.st23{fill:#69A4F9;}
	.st24{fill:#F6C358;}
	.st25{fill:#B2B2B2;}
	.st26{fill:#DC8744;}
	.st27{fill:#565656;}
	.st28{fill:url(#Path_107_1_);}
	.st29{fill:url(#Path_108_1_);}
	.st30{fill:url(#Path_109_1_);}
	.st31{fill:url(#Path_110_1_);}
	.st32{fill:url(#Path_111_1_);}
	.st33{fill:#FBE12A;}
	.st34{fill:#F9B52B;}
	.st35{fill:#E09D27;}
	.st36{fill:#FFEE99;}
</style>
<g id="OBJECTS" transform="translate(2.006 250.519)">
	<g id="Group_1323">
		<g id="Group_1313" transform="translate(650.161 542.422)">
			<path id="Path_1334" class="st0" d="M147.5,62.2c34.2-34.4,89.9-34.6,124.3-0.4c0.1,0.1,0.3,0.3,0.4,0.4
				c34.4,34.7,34.4,90.6,0,125.3c-34.2,34.4-89.9,34.6-124.3,0.4c-0.1-0.1-0.3-0.3-0.4-0.4C113,152.8,113,96.9,147.5,62.2z"/>
			<path id="Path_1296" class="st1" d="M203.3,189.6c-42.3-24.7-56.6-79.1-31.9-121.4c7.6-13,18.4-23.9,31.3-31.6
				c-48.7,3.9-85.1,46.6-81.2,95.3s46.6,85.1,95.3,81.2c13.3-1.1,26.2-5.1,37.7-11.9C236.7,202.7,218.8,198.6,203.3,189.6z"/>
			<path id="Path_1297" class="st2" d="M296.7,140.1c-0.4,2.4-0.9,4.8-1.6,7.2c53.9,36.2,88,66.4,82.9,75.3
				c-7.2,12.5-88.3-21.2-181.2-75.2S34.5,39.6,41.7,27.1c5.2-8.9,48.2,5.8,106.3,34.7c1.8-1.7,3.6-3.4,5.5-5
				C70.9,14.1,7.6-8.9,0.6,3.2c-9,15.5,77.4,82.6,193,149.8S410,262,419,246.5C426,234.3,374.7,190.7,296.7,140.1z"/>
			<path id="Path_1298" class="st1" d="M238.6,208.6c2.8-1,5.5-2.1,8.2-3.3c-19.9-10.2-41.3-21.8-63.3-34.7S140.7,145,122,132.8
				c0.3,2.9,0.7,5.9,1.2,8.8c17.9,11.4,37,23,57,34.6S219.8,198.7,238.6,208.6z"/>
		</g>
		<g id="Group_1322">
			<g>
				<defs>
					<path id="SVGID_1_" d="M699.4,755.6c-43.8-47.2-80.9-100.2-110.4-157.5c-12.3-24-23.5-52.2-13.5-77.2
						c14.7-37,63.8-43.7,93.5-70c41.2-36.4,36.1-106,3.9-150.6s-83.6-70.4-133-94.5C408.6,141.7,275.3,59,138.1,9.7
						C93.2-6.4,43.7-1.6,0,17.5v1135h703.7c-9.3-20.1-20-40.9-15.3-62.2c8.9-40,61.4-48.6,92-75.6c38.1-33.7,37.8-95.7,15.3-141.4
						S734,792.9,699.4,755.6z"/>
				</defs>
				<clipPath id="SVGID_2_">
					<use xlink:href="#SVGID_1_"  style="overflow:visible;"/>
				</clipPath>
				<g id="Group_1314" class="st3">
					
						<linearGradient id="Path_1299_1_" gradientUnits="userSpaceOnUse" x1="704.348" y1="707.2781" x2="705.348" y2="707.2781" gradientTransform="matrix(1094.4849 0 0 -1501.0768 -771181.5625 1062429.25)">
						<stop  offset="0" style="stop-color:#003846"/>
						<stop  offset="1" style="stop-color:#005F74"/>
					</linearGradient>
					<path id="Path_1299" class="st4" d="M539.8,205.7c49.4,24.1,100.8,49.9,133,94.5c32.2,44.6,37.3,114.2-3.9,150.6
						c-29.7,26.3-78.8,33-93.5,70c-10,25.1,1.2,53.3,13.5,77.2c29.5,57.3,66.6,110.2,110.4,157.5c34.6,37.3,73.9,71.9,96.4,117.7
						c22.5,45.8,22.8,107.7-15.3,141.4c-30.6,27.1-83.1,35.7-92,75.6c-5.2,23.3,8.1,46.1,17.8,67.9c36.3,81.1,23.6,182.2-31.7,251.7
						c-55.2,69.5-150.5,104.4-237.3,86.8c-61.2-12.4-115.4-47.9-175.4-65.2c-83.4-24.1-172.2-11.6-258.9-12.8s-181.8-20.9-235-89.7
						c-37.3-48.1-47.2-111.9-50.2-172.8c-7.6-158,23-315.6,89.2-459.3c31.3-67.7,70.8-133.5,81.4-207.3
						c17.2-120-44.1-247.6,0.2-360.4C-74.8,36,42.3-24.6,138.1,9.7C275.3,59,408.6,141.7,539.8,205.7z"/>
				</g>
			</g>
			<g>
				<defs>
					<path id="SVGID_3_" d="M699.4,755.6c-43.8-47.2-80.9-100.2-110.4-157.5c-12.3-24-23.5-52.2-13.5-77.2
						c14.7-37,63.8-43.7,93.5-70c41.2-36.4,36.1-106,3.9-150.6s-83.6-70.4-133-94.5C408.6,141.7,275.3,59,138.1,9.7
						C93.2-6.4,43.7-1.6,0,17.5v1135h703.7c-9.3-20.1-20-40.9-15.3-62.2c8.9-40,61.4-48.6,92-75.6c38.1-33.7,37.8-95.7,15.3-141.4
						S734,792.9,699.4,755.6z"/>
				</defs>
				<clipPath id="SVGID_4_">
					<use xlink:href="#SVGID_3_"  style="overflow:visible;"/>
				</clipPath>
				<g id="Group_1315" class="st5">
					<path id="Path_1301" class="st6" d="M318.9,994.1c9.9-8.4,17.4-21.8,22.9-34c9.1-20.2,22.7-43.8,44.8-43.7
						c27.4,0.1,46.5,38.2,73.3,32c30.4-7,26.2-60.3,55.4-71.3c18,2.4,29.3,19.9,40.5,34.2s29.9,28,46.1,19.7
						c22.1-11.3,11.7-45.9,22.4-68.4c6.6-14,22.4-22.6,37.8-21.8s29.7,10.5,37.4,24c6.5,11.4,8.3,24.8,13.4,36.9
						s15.3,23.8,28.3,23.7c15.6-0.1,26-16.5,30.1-31.7c7.1-26,5.1-54,13.6-79.5s34.4-49.2,59.9-41c13.5,4.4,23,16.4,31,28.3
						c38.9,57.6,63.6,123.7,72,192.7L318.9,994.1L318.9,994.1z"/>
				</g>
			</g>
			<g>
				<defs>
					<path id="SVGID_5_" d="M699.4,755.6c-43.8-47.2-80.9-100.2-110.4-157.5c-12.3-24-23.5-52.2-13.5-77.2
						c14.7-37,63.8-43.7,93.5-70c41.2-36.4,36.1-106,3.9-150.6s-83.6-70.4-133-94.5C408.6,141.7,275.3,59,138.1,9.7
						C93.2-6.4,43.7-1.6,0,17.5v1135h703.7c-9.3-20.1-20-40.9-15.3-62.2c8.9-40,61.4-48.6,92-75.6c38.1-33.7,37.8-95.7,15.3-141.4
						S734,792.9,699.4,755.6z"/>
				</defs>
				<clipPath id="SVGID_6_">
					<use xlink:href="#SVGID_5_"  style="overflow:visible;"/>
				</clipPath>
				<g id="Group_1317" class="st7">
					
						<linearGradient id="Ellipse_147_1_" gradientUnits="userSpaceOnUse" x1="703.1638" y1="707.8688" x2="703.8717" y2="708.5768" gradientTransform="matrix(357.664 0 0 -359.268 -250989.5313 255561.3125)">
						<stop  offset="0" style="stop-color:#FF7B4C"/>
						<stop  offset="1" style="stop-color:#FFC944"/>
					</linearGradient>
					<ellipse id="Ellipse_147" class="st8" cx="633.3" cy="1119.7" rx="178.8" ry="179.6"/>
					<g id="Group_1316" transform="translate(454.452 940.027)">
						<path id="Path_1303" class="st9" d="M294.1,220.5c-46.3-2.4-89.2,31.8-135.4,27.4c-26.2-2.5-49.4-17.1-71.3-31.7
							s-44.5-29.9-70.5-34.1c-5.6-0.9-11.3-1.1-16.9-0.7c0.2,24.5,5.4,48.7,15.4,71.1c10.9-0.2,20.9,1.1,26.8,3
							c28.4,9.3,51.2,30.1,76.4,46.3c25.1,16.2,56.7,28,84.4,17c22-8.8,36.7-30.1,57.4-41.7c21.6-12,47.8-12.2,71.8-5.2
							c6.1-10.3,11.2-21.1,15.2-32.4C331.4,228.9,313.2,221.5,294.1,220.5z"/>
						<path id="Path_1304" class="st9" d="M347,124.8c-45-14.4-94.1,18.2-140.1,7.5c-29.5-6.9-52-30.1-78.3-45
							C101,71.7,68.5,66.1,37.1,70C16,97.5,3.3,130.4,0.6,165c10-5.6,20.7-9.9,31.9-12.8c34.1-8.6,70.3-3.7,100.8,13.8
							c21.4,12.4,40.4,31,64.8,34.9c44,7,79.6-36.2,122.9-47c11.4-2.8,23.2-3.2,34.7-1.3c-1.4-9.1-3.5-18.1-6.2-27
							C348.6,125.3,347.8,125,347,124.8z"/>
						<path id="Path_1305" class="st9" d="M91,23.1c24.1-5.2,49.3-4.9,72.4,3.5c27.1,9.8,49.3,29.7,74.1,44.3s56.4,23.9,82.1,10.8
							c2.3-1.2,4.4-2.5,6.5-3.9C273.9,1.2,171.7-22.5,91,23.1L91,23.1z"/>
					</g>
					<path id="Path_1306" class="st1" d="M671.2,1224.1c-98.8,0-178.8-80.4-178.8-179.6c0-13.9,1.6-27.8,4.7-41.3
						c-27.6,32.5-42.7,73.8-42.7,116.4c0,99.2,80.1,179.6,178.8,179.6c84.6,0,155.5-59,174.1-138.4
						C773.5,1201,723.7,1224.2,671.2,1224.1z"/>
				</g>
			</g>
			<g>
				<defs>
					<path id="SVGID_7_" d="M699.4,755.6c-43.8-47.2-80.9-100.2-110.4-157.5c-12.3-24-23.5-52.2-13.5-77.2
						c14.7-37,63.8-43.7,93.5-70c41.2-36.4,36.1-106,3.9-150.6s-83.6-70.4-133-94.5C408.6,141.7,275.3,59,138.1,9.7
						C93.2-6.4,43.7-1.6,0,17.5v1135h703.7c-9.3-20.1-20-40.9-15.3-62.2c8.9-40,61.4-48.6,92-75.6c38.1-33.7,37.8-95.7,15.3-141.4
						S734,792.9,699.4,755.6z"/>
				</defs>
				<clipPath id="SVGID_8_">
					<use xlink:href="#SVGID_7_"  style="overflow:visible;"/>
				</clipPath>
				<g id="Group_1318" class="st10">
					<path id="Path_1308" class="st6" d="M469.8,380.3c-9.9-8.4-17.4-21.8-22.9-34c-9.1-20.2-22.7-43.8-44.8-43.7
						c-27.4,0.1-46.5,38.2-73.3,32c-30.4-7-26.2-60.3-55.4-71.3c-18,2.4-29.3,19.9-40.5,34.2s-29.9,28-46.1,19.7
						c-22.1-11.3-11.7-45.9-22.4-68.4c-6.6-14-22.4-22.6-37.8-21.8S97,237.6,89.4,251c-6.5,11.4-8.3,24.8-13.4,36.9
						s-15.3,23.8-28.3,23.7c-15.6-0.1-26-16.5-30.1-31.7c-7.1-26-5.1-54-13.6-79.5s-34.4-49.2-59.9-41c-13.5,4.4-23,16.4-31,28.3
						c-38.9,57.6-63.6,123.7-72,192.7L469.8,380.3z"/>
				</g>
			</g>
			<g>
				<defs>
					<path id="SVGID_9_" d="M699.4,755.6c-43.8-47.2-80.9-100.2-110.4-157.5c-12.3-24-23.5-52.2-13.5-77.2
						c14.7-37,63.8-43.7,93.5-70c41.2-36.4,36.1-106,3.9-150.6s-83.6-70.4-133-94.5C408.6,141.7,275.3,59,138.1,9.7
						C93.2-6.4,43.7-1.6,0,17.5v1135h703.7c-9.3-20.1-20-40.9-15.3-62.2c8.9-40,61.4-48.6,92-75.6c38.1-33.7,37.8-95.7,15.3-141.4
						S734,792.9,699.4,755.6z"/>
				</defs>
				<clipPath id="SVGID_10_">
					<use xlink:href="#SVGID_9_"  style="overflow:visible;"/>
				</clipPath>
				<g id="Group_1319" class="st11">
					
						<linearGradient id="Ellipse_148_1_" gradientUnits="userSpaceOnUse" x1="703.1041" y1="707.9063" x2="703.8121" y2="708.6143" gradientTransform="matrix(347.188 0 0 -348.746 -243913.2813 247711.3281)">
						<stop  offset="0" style="stop-color:#47B4F4"/>
						<stop  offset="1" style="stop-color:#7EC5F3"/>
					</linearGradient>
					<ellipse id="Ellipse_148" class="st12" cx="318.8" cy="708.5" rx="173.6" ry="174.4"/>
					
						<linearGradient id="Path_1310_1_" gradientUnits="userSpaceOnUse" x1="702.9399" y1="708.4631" x2="703.515" y2="709.2421" gradientTransform="matrix(309.1721 0 0 -229.3173 -217110.0625 163217.7656)">
						<stop  offset="0" style="stop-color:#008735"/>
						<stop  offset="1" style="stop-color:#00BA4A"/>
					</linearGradient>
					<path id="Path_1310" class="st13" d="M455.1,705.7c4.8-16.3-3.5-33.2-11.5-48.2c-20.3-37.9-41.1-76.5-71.8-106.6
						c-4.3-4.2-8.8-8.3-13.5-12.1c-13-3-26.3-4.6-39.6-4.6c-86.4,0-158.1,63.4-171.4,146.4c11.1,17.6,32.1,30.2,51.9,24.6
						c10.6-3,19.7-10.7,30.6-12.4c19.5-3,36.2,14,45.9,31.3c6.2,11,11.3,23,20.8,31.4s25.1,11.5,34.2,2.9c8.5-8,7.7-21.7,4.5-33
						s-8.1-22.8-5.5-34.2c3.2-14.5,17.6-23.7,32.1-20.5c5.1,1.1,9.7,3.7,13.4,7.4c9.4,9.5,10.6,24.4,18,35.5
						c7.2,10.9,20.7,17.4,33.6,15.9S451.5,718.2,455.1,705.7z"/>
					
						<linearGradient id="Path_1311_1_" gradientUnits="userSpaceOnUse" x1="702.5671" y1="710.6982" x2="702.9861" y2="711.7222" gradientTransform="matrix(261.068 0 0 -107.4352 -183177.875 77229.8203)">
						<stop  offset="0" style="stop-color:#008735"/>
						<stop  offset="1" style="stop-color:#00BA4A"/>
					</linearGradient>
					<path id="Path_1311" class="st14" d="M318.8,882.9c39.6,0.1,78-13.5,108.8-38.5c-16-1.5-31.4-9.2-41-22.2
						c-8-10.7-12.1-24-20.6-34.4s-24.5-16.9-35.1-8.7c-15.9,12.2-4.1,42.9-20.5,54.5c-10.3,7.3-25.1,1.1-33.2-8.6
						s-12.1-22.1-19.6-32.3c-7.4-10.2-20.8-18.2-32.3-13.1c-13.2,5.8-17.8,26-32.1,27.5c-6.7,0.7-13-3.3-18.3-7.4
						c-2.9-2.3-5.7-4.7-8.5-7.2C196,846.3,253.1,882.9,318.8,882.9z"/>
					
						<linearGradient id="Path_1312_1_" gradientUnits="userSpaceOnUse" x1="691.3593" y1="714.2175" x2="692.1463" y2="714.9105" gradientTransform="matrix(51.4533 0 0 -58.7042 -35157.9219 42715.4453)">
						<stop  offset="0" style="stop-color:#008735"/>
						<stop  offset="1" style="stop-color:#00BA4A"/>
					</linearGradient>
					<path id="Path_1312" class="st15" d="M450.6,789.2c-8.8,8.8-24.6,9.1-33.7,0.6s-10.1-24.3-2-33.8c1.5-11.1,14.1-20.4,25-18.5
						s19.5,12.3,20.7,23.4S458.4,781.4,450.6,789.2z"/>
					
						<linearGradient id="Path_1313_1_" gradientUnits="userSpaceOnUse" x1="686.3781" y1="712.9024" x2="686.858" y2="713.1484" gradientTransform="matrix(37.455 0 0 -73.787 -25248.2578 53243.6445)">
						<stop  offset="0" style="stop-color:#008735"/>
						<stop  offset="1" style="stop-color:#00BA4A"/>
					</linearGradient>
					<path id="Path_1313" class="st16" d="M487.8,668.5c-6.4-27.2-19.2-52.6-37.5-73.8c1.5,11.8,4.8,23.2,9.8,34
						C467,643.4,476.7,656.7,487.8,668.5z"/>
					<path id="Path_1314" class="st1" d="M395.1,796.2c-109.5,0-200.9-77.3-223.3-180.6c-17.5,27.8-26.7,60-26.7,92.9
						c0,96.3,77.7,174.4,173.6,174.4c70.1,0,130.4-41.7,157.9-101.7C450.6,791.1,422.9,796.2,395.1,796.2z"/>
				</g>
			</g>
			<g>
				<defs>
					<path id="SVGID_11_" d="M699.4,755.6c-43.8-47.2-80.9-100.2-110.4-157.5c-12.3-24-23.5-52.2-13.5-77.2
						c14.7-37,63.8-43.7,93.5-70c41.2-36.4,36.1-106,3.9-150.6s-83.6-70.4-133-94.5C408.6,141.7,275.3,59,138.1,9.7
						C93.2-6.4,43.7-1.6,0,17.5v1135h703.7c-9.3-20.1-20-40.9-15.3-62.2c8.9-40,61.4-48.6,92-75.6c38.1-33.7,37.8-95.7,15.3-141.4
						S734,792.9,699.4,755.6z"/>
				</defs>
				<clipPath id="SVGID_12_">
					<use xlink:href="#SVGID_11_"  style="overflow:visible;"/>
				</clipPath>
				<g id="Group_1320" class="st17">
					<ellipse id="Ellipse_149" class="st18" cx="119.7" cy="994.1" rx="68.3" ry="68.6"/>
					<path id="Path_1316" class="st1" d="M145.2,1020.2c-37.8-0.1-68.4-30.8-68.3-68.6c0-3.9,0.3-7.8,1-11.6
						c-30,23-35.7,66.1-12.6,96.1c23,30,66.1,35.7,96.1,12.6c13.7-10.5,22.9-25.8,25.8-42.8C175.1,1015.1,160.4,1020.2,145.2,1020.2
						z"/>
					<ellipse id="Ellipse_150" class="st1" cx="108.2" cy="967.1" rx="11.5" ry="16.5"/>
					<ellipse id="Ellipse_151" class="st1" cx="142.2" cy="1002.9" rx="13" ry="8.8"/>
					<ellipse id="Ellipse_152" class="st1" cx="108" cy="1033" rx="11.2" ry="11.3"/>
					<ellipse id="Ellipse_153" class="st1" cx="74.1" cy="998.4" rx="4.2" ry="4.3"/>
					<ellipse id="Ellipse_154" class="st1" cx="150.1" cy="967.1" rx="5" ry="5"/>
				</g>
			</g>
			<g>
				<defs>
					<path id="SVGID_13_" d="M699.4,755.6c-43.8-47.2-80.9-100.2-110.4-157.5c-12.3-24-23.5-52.2-13.5-77.2
						c14.7-37,63.8-43.7,93.5-70c41.2-36.4,36.1-106,3.9-150.6s-83.6-70.4-133-94.5C408.6,141.7,275.3,59,138.1,9.7
						C93.2-6.4,43.7-1.6,0,17.5v1135h703.7c-9.3-20.1-20-40.9-15.3-62.2c8.9-40,61.4-48.6,92-75.6c38.1-33.7,37.8-95.7,15.3-141.4
						S734,792.9,699.4,755.6z"/>
				</defs>
				<clipPath id="SVGID_14_">
					<use xlink:href="#SVGID_13_"  style="overflow:visible;"/>
				</clipPath>
				<g id="Group_1321" class="st19">
					<ellipse id="Ellipse_155" class="st20" cx="60.6" cy="772.9" rx="9.2" ry="9.3"/>
					<ellipse id="Ellipse_156" class="st20" cx="102.5" cy="579.5" rx="5.7" ry="5.8"/>
					<ellipse id="Ellipse_157" class="st20" cx="271.1" cy="478.8" rx="7.2" ry="7.3"/>
					<ellipse id="Ellipse_158" class="st20" cx="553.2" cy="408.4" rx="8" ry="8"/>
					<ellipse id="Ellipse_159" class="st20" cx="558.4" cy="731.8" rx="5.2" ry="5.3"/>
					<ellipse id="Ellipse_160" class="st20" cx="290.1" cy="1056" rx="11.7" ry="11.8"/>
					<ellipse id="Ellipse_161" class="st20" cx="503.3" cy="280.1" rx="11" ry="11"/>
					<ellipse id="Ellipse_162" class="st20" cx="303.8" cy="157.9" rx="7" ry="7"/>
					<ellipse id="Ellipse_163" class="st20" cx="108" cy="123" rx="11.2" ry="11.3"/>
					<path id="Path_1318" class="st20" d="M617.4,322.7L617.4,322.7c1.7,7.8,7.8,13.9,15.6,15.7l0,0c-7.8,1.8-13.9,7.9-15.6,15.7
						l0,0c-1.7-7.8-7.8-13.9-15.6-15.7l0,0C609.6,336.6,615.7,330.5,617.4,322.7z"/>
					<path id="Path_1319" class="st20" d="M442.5,478.5L442.5,478.5c0.9,4,4,7,7.9,7.9l0,0c-4,0.9-7,4-7.9,7.9l0,0
						c-0.9-4-4-7-7.9-7.9l0,0C438.6,485.6,441.7,482.5,442.5,478.5z"/>
					<path id="Path_1320" class="st20" d="M59.4,1111.9L59.4,1111.9c0.9,4,4,7,7.9,7.9l0,0c-4,0.9-7,4-7.9,7.9l0,0
						c-0.9-4-4-7-7.9-7.9l0,0C55.5,1118.9,58.6,1115.8,59.4,1111.9z"/>
					<path id="Path_1321" class="st20" d="M194.1,188.4L194.1,188.4c0.9,4,4,7,7.9,7.9l0,0c-4,0.9-7,4-7.9,7.9l0,0
						c-0.9-4-4-7-7.9-7.9l0,0C190.2,195.5,193.2,192.4,194.1,188.4z"/>
					<path id="Path_1322" class="st20" d="M373.7,222.5L373.7,222.5c0.9,4,4,7,7.9,7.9l0,0c-4,0.9-7,4-7.9,7.9l0,0
						c-0.9-4-4-7-7.9-7.9l0,0C369.7,229.5,372.8,226.4,373.7,222.5z"/>
					<path id="Path_1323" class="st20" d="M51.5,660.4L51.5,660.4c0.9,4,4,7,7.9,7.9l0,0c-4,0.9-7,4-7.9,7.9l0,0c-0.9-4-4-7-7.9-7.9
						l0,0C47.5,667.5,50.6,664.4,51.5,660.4z"/>
					<path id="Path_1324" class="st20" d="M166.7,526.1L166.7,526.1c0.9,4,4,7,7.9,7.9l0,0c-4,0.9-7,4-7.9,7.9l0,0
						c-0.9-4-4-7-7.9-7.9l0,0C162.7,533.2,165.8,530.1,166.7,526.1z"/>
					<path id="Path_1325" class="st20" d="M96.8,866.9L96.8,866.9c0.9,4,4,7,7.9,7.9l0,0c-4,0.9-7,4-7.9,7.9l0,0c-0.9-4-4-7-7.9-7.9
						l0,0C92.9,873.9,96,870.8,96.8,866.9z"/>
					<path id="Path_1326" class="st20" d="M545.3,607.8L545.3,607.8c0.9,4,4,7,7.9,7.9l0,0c-4,0.9-7,4-7.9,7.9l0,0
						c-0.9-4-4-7-7.9-7.9l0,0C541.3,614.9,544.4,611.8,545.3,607.8z"/>
					<path id="Path_1327" class="st20" d="M264,964.1L264,964.1c0.9,4,4,7,7.9,7.9l0,0c-4,0.9-7,4-7.9,7.9l0,0c-0.9-4-4-7-7.9-7.9
						l0,0C260,971.1,263.1,968,264,964.1z"/>
				</g>
			</g>
		</g>
	</g>
	<g id="Group_1324" transform="translate(402.53 171.688)">
		<path id="Path_97" class="st21" d="M342.1,0c0,0-1.3,36.9-16.6,80.2l-63.3-63.6C305.4,1.3,342.1,0,342.1,0z"/>
		<path id="Path_98" class="st22" d="M262.3,16.6l63.3,63.6c-9.9,28.2-25.7,59.1-50.9,84.4c-23.2,23.1-50.4,41.7-80.3,54.9
			l-70.8-71.1c9.5-21.6,21.8-41.9,36.5-60.4c5.7-7.1,11.7-13.9,18.1-20.3C203.4,42.5,234.2,26.6,262.3,16.6z"/>
		<path id="Path_99" class="st23" d="M265,77.5c10.7,10.7,10.7,28,0,38.7c-10.6,10.6-27.8,10.7-38.4,0.1c0,0-0.1-0.1-0.1-0.1
			c-10.6-10.7-10.6-28,0-38.7l0,0c10.6-10.6,27.8-10.7,38.4-0.1C264.9,77.4,265,77.4,265,77.5z"/>
		<g id="Group_230" transform="translate(72.188 77.105)">
			<path id="Path_100" class="st24" d="M183.2,106.9c35.1,52.9-30.6,87.2-67.5,87.2c19.3-19.4,13.6-44.4,13.6-44.4l-7.2-7.2
				c21.6-9.6,41.8-21.9,60.1-36.7L183.2,106.9z"/>
			<path id="Path_101" class="st25" d="M43.5,121.5l-1.1-1.1c-3.3-3.2-4.8-8-3.7-12.5c3.3-12.5,7.5-24.7,12.7-36.5l70.8,71.1
				c-11.8,5.2-23.9,9.5-36.4,12.8c-4.5,1-9.3-0.4-12.5-3.7l-1.1-1.1L43.5,121.5z"/>
			<path id="Path_102" class="st24" d="M86.8,10.1l1.2,0.9c-14.7,18.5-27,38.8-36.5,60.4l-7.2-7.2c0,0-24.9-5.7-44.2,13.7
				C0,40.8,34.1-25.2,86.8,10.1z"/>
		</g>
		<path id="Path_103" class="st26" d="M115.7,198.6l28.8,28.9c-2.1,8.2-7,16.9-14.4,24.3c-16,16-57.8,19.4-57.8,19.4
			s3.3-42.1,19.3-58.1C98.9,205.6,107.5,200.7,115.7,198.6z"/>
		<path id="Path_104" class="st27" d="M183.2,169.5c2.7-2.7,2.7-7,0-9.7c-2.6-2.7-7-2.7-9.6,0c0,0,0,0,0,0c-2.7,2.7-2.7,7,0,9.7
			C176.2,172.1,180.5,172.2,183.2,169.5C183.2,169.5,183.2,169.5,183.2,169.5z"/>
		<path id="Path_105" class="st27" d="M270,121.1c13.3-13.4,13.3-35,0-48.4c-13.2-13.3-34.7-13.4-48.1-0.2c-0.1,0.1-0.1,0.1-0.2,0.2
			c-13.3,13.4-13.3,35,0,48.4C235.1,134.4,256.6,134.4,270,121.1C269.9,121.1,270,121.1,270,121.1z M231.4,82.3
			c7.9-8,20.8-8,28.8-0.1c0,0,0.1,0.1,0.1,0.1c8,8,8,21,0,29.1c-7.9,8-20.8,8-28.8,0.1c0,0-0.1-0.1-0.1-0.1
			C223.4,103.3,223.4,90.4,231.4,82.3L231.4,82.3z"/>
		
			<linearGradient id="Path_107_1_" gradientUnits="userSpaceOnUse" x1="280.8935" y1="548.8384" x2="281.8935" y2="548.8384" gradientTransform="matrix(32.7762 0 0 -32.9261 -9073.5293 18361.6699)">
			<stop  offset="0" style="stop-color:#FF7B4C"/>
			<stop  offset="1" style="stop-color:#FFC944"/>
		</linearGradient>
		<path id="Path_107" class="st28" d="M144.7,305.1l19.3-19.4c2.6-2.7,2.6-7-0.1-9.7c-2.6-2.6-6.9-2.6-9.5,0L135,295.4
			c-2.6,2.7-2.6,7,0.2,9.7C137.8,307.6,142,307.6,144.7,305.1L144.7,305.1z"/>
		
			<linearGradient id="Path_108_1_" gradientUnits="userSpaceOnUse" x1="280.9997" y1="548.7766" x2="281.9997" y2="548.7766" gradientTransform="matrix(32.9384 0 0 -33.0771 -9219.0615 18345.6543)">
			<stop  offset="0" style="stop-color:#FF7B4C"/>
			<stop  offset="1" style="stop-color:#FFC944"/>
		</linearGradient>
		<path id="Path_108" class="st29" d="M48.2,208.2l19.3-19.4c2.7-2.7,2.7-7,0-9.7c-2.6-2.7-6.9-2.7-9.6,0c0,0,0,0,0,0l0,0
			l-19.3,19.4c-2.7,2.7-2.7,7,0,9.7C41.2,210.9,45.5,210.9,48.2,208.2C48.2,208.3,48.2,208.2,48.2,208.2
			C48.2,208.2,48.2,208.2,48.2,208.2L48.2,208.2z"/>
		
			<linearGradient id="Path_109_1_" gradientUnits="userSpaceOnUse" x1="290.6455" y1="542.7165" x2="291.6455" y2="542.7165" gradientTransform="matrix(59.8214 0 0 -60.0797 -17328.793 32919.8906)">
			<stop  offset="0" style="stop-color:#FF7B4C"/>
			<stop  offset="1" style="stop-color:#FFC944"/>
		</linearGradient>
		<path id="Path_109" class="st30" d="M106.1,285.7l-46.2,46.4c-2.6,2.7-2.5,7.1,0.2,9.7c2.6,2.6,6.8,2.6,9.5,0l46.2-46.4
			c2.7-2.6,2.8-7,0.2-9.7c-2.6-2.7-6.9-2.8-9.6-0.2c0,0,0,0,0,0C106.2,285.6,106.2,285.6,106.1,285.7z"/>
		
			<linearGradient id="Path_110_1_" gradientUnits="userSpaceOnUse" x1="290.645" y1="542.7169" x2="291.645" y2="542.7169" gradientTransform="matrix(59.8187 0 0 -60.0765 -17382.5332 32918.1914)">
			<stop  offset="0" style="stop-color:#FF7B4C"/>
			<stop  offset="1" style="stop-color:#FFC944"/>
		</linearGradient>
		<path id="Path_110" class="st31" d="M51.6,285.7L5.4,332.1c-2.6,2.7-2.5,7.1,0.2,9.7c2.6,2.6,6.8,2.6,9.5,0l46.2-46.4
			c2.7-2.6,2.8-7,0.2-9.7c-2.6-2.7-6.9-2.8-9.6-0.2c0,0,0,0,0,0L51.6,285.7z"/>
		
			<linearGradient id="Path_111_1_" gradientUnits="userSpaceOnUse" x1="290.6749" y1="542.6964" x2="291.6749" y2="542.6964" gradientTransform="matrix(59.9707 0 0 -60.243 -17431.9785 32949.3008)">
			<stop  offset="0" style="stop-color:#FF7B4C"/>
			<stop  offset="1" style="stop-color:#FFC944"/>
		</linearGradient>
		<path id="Path_111" class="st32" d="M11.7,283.7l46.2-46.4c2.7-2.6,2.8-7,0.2-9.7c-2.6-2.7-6.9-2.8-9.6-0.2c0,0,0,0,0,0
			c-0.1,0.1-0.1,0.1-0.2,0.2L2.1,274c-2.7,2.6-2.8,7-0.2,9.7c2.6,2.7,6.9,2.8,9.6,0.2c0,0,0,0,0,0C11.6,283.8,11.7,283.7,11.7,283.7
			L11.7,283.7z"/>
		<path id="Path_112" class="st27" d="M202.5,150.1l9.6-9.7c2.6-2.7,2.6-7-0.1-9.7c-2.6-2.6-6.9-2.6-9.5,0l-9.6,9.7
			c-2.7,2.6-2.8,7-0.2,9.7c2.6,2.7,6.9,2.8,9.6,0.2c0,0,0,0,0,0C202.4,150.2,202.5,150.2,202.5,150.1L202.5,150.1z"/>
	</g>
	<g id="Group_1326" transform="translate(46.493 314.369)">
		<path id="Path_1335" class="st33" d="M37.9,37.6c20.7-20.8,54.3-20.9,75.1-0.2c0.1,0.1,0.2,0.2,0.2,0.2
			c20.8,20.9,20.8,54.7,0,75.7C92.6,134,59,134.2,38.2,113.5c-0.1-0.1-0.2-0.2-0.2-0.2C17.1,92.3,17.1,58.5,37.9,37.6z"/>
		<path id="Path_1331" class="st34" d="M99.9,27.8c18,23.5,13.5,57.1-10,75.1c-9.3,7.1-20.6,11-32.3,11c-8.4,0-16.8-2-24.3-5.9
			c18.1,23.3,51.6,27.5,74.9,9.4c23.3-18.1,27.5-51.6,9.4-74.9C112.9,36.3,106.8,31.3,99.9,27.8L99.9,27.8z"/>
		<path id="Path_1332" class="st35" d="M103,29.5c21.6,20.3,22.6,54.2,2.4,75.7c-10.1,10.7-24.1,16.8-38.7,16.9
			c-9.7,0-19.1-2.6-27.4-7.6c21.4,20.1,55.1,19.1,75.2-2.3c9.3-9.9,14.5-23.1,14.4-36.7C128.9,56.6,119.1,39.2,103,29.5z"/>
		<g id="Group_1325" transform="translate(31.312 33.018)">
			<path id="Path_1333" class="st36" d="M2.1,29.4c-0.2,0-0.4,0-0.6-0.1c-1.1-0.3-1.8-1.5-1.4-2.6c2.6-8.9,8.5-16.3,17.1-21.4
				C20.9,2.9,25,1.2,29.4,0c1.1-0.3,2.3,0.5,2.5,1.6c0.3,1.1-0.5,2.3-1.6,2.5c-3.9,1-7.6,2.6-11.1,4.8C11.6,13.6,6.5,20,4.1,27.9
				C3.9,28.8,3,29.4,2.1,29.4z"/>
		</g>
	</g>
</g>
</svg>
