<?xml version="1.0" encoding="utf-8"?>
<!-- Generator: Adobe Illustrator 22.0.1, SVG Export Plug-In . SVG Version: 6.00 Build 0)  -->
<svg version="1.1" id="background_home_Token_Creator"
	 xmlns="http://www.w3.org/2000/svg" xmlns:xlink="http://www.w3.org/1999/xlink" x="0px" y="0px" viewBox="0 0 1925 1403"
	 style="enable-background:new 0 0 1925 1403;" xml:space="preserve">
<style type="text/css">
	.st0{fill:#FF9407;}
	.st1{opacity:0.1;enable-background:new    ;}
	.st2{fill:#8F6848;}
	.st3{clip-path:url(#SVGID_2_);}
	.st4{fill:url(#Path_1299_1_);}
	.st5{clip-path:url(#SVGID_4_);}
	.st6{opacity:0.1;fill:#FFFFFF;enable-background:new    ;}
	.st7{clip-path:url(#SVGID_6_);}
	.st8{fill:url(#Ellipse_147_1_);}
	.st9{fill:#FF8861;}
	.st10{clip-path:url(#SVGID_8_);}
	.st11{clip-path:url(#SVGID_10_);}
	.st12{fill:url(#Ellipse_148_1_);}
	.st13{fill:url(#Path_1310_1_);}
	.st14{fill:url(#Path_1311_1_);}
	.st15{fill:url(#Path_1312_1_);}
	.st16{fill:url(#Path_1313_1_);}
	.st17{clip-path:url(#SVGID_12_);}
	.st18{fill:#AEAEAE;}
	.st19{clip-path:url(#SVGID_14_);}
	.st20{fill:#00677F;}
	.st21{fill:#FEB950;}
	.st22{fill:#F0F6F7;}
	.st23{fill:#69A4F9;}
	.st24{fill:#F6C358;}
	.st25{fill:#B2B2B2;}
	.st26{fill:#DC8744;}
	.st27{fill:#565656;}
	.st28{fill:url(#Path_107_1_);}
	.st29{fill:url(#Path_108_1_);}
	.st30{fill:url(#Path_109_1_);}
	.st31{fill:url(#Path_110_1_);}
	.st32{fill:url(#Path_111_1_);}
	.st33{fill:#FBE12A;}
	.st34{fill:#F9B52B;}
	.st35{fill:#E09D27;}
	.st36{fill:#FFEE99;}
</style>
<g id="OBJECTS" transform="translate(2.006 250.519)">
	<g id="Group_1323">
		<g id="Group_1313" transform="translate(650.161 542.422)">
			<path id="Path_1334" class="st0" d="M146,62.2c34.4-34.4,90.4-34.6,125-0.4c0.1,0.1,0.3,0.3,0.4,0.4c34.6,34.7,34.6,90.6,0,125.3
				c-34.4,34.4-90.4,34.6-125,0.4c-0.1-0.1-0.3-0.3-0.4-0.4C111.3,152.8,111.3,96.9,146,62.2z"/>
			<path id="Path_1296" class="st1" d="M202.1,189.6c-42.5-24.7-56.9-79.1-32.1-121.4c7.6-13,18.5-23.9,31.5-31.6
				c-49,3.9-85.6,46.6-81.7,95.3c3.9,48.7,46.9,85.1,95.8,81.2c13.4-1.1,26.3-5.1,37.9-11.9C235.7,202.7,217.7,198.6,202.1,189.6z"
				/>
			<path id="Path_1297" class="st2" d="M296,140.1c-0.4,2.4-0.9,4.8-1.6,7.2c54.2,36.2,88.5,66.4,83.4,75.3
				c-7.2,12.5-88.8-21.2-182.2-75.2S32.3,39.6,39.6,27.1c5.2-8.9,48.5,5.8,106.9,34.7c1.8-1.7,3.6-3.4,5.5-5
				C68.9,14.1,5.3-8.9-1.8,3.2C-10.8,18.7,76.1,85.8,192.3,153S409.9,262,419,246.5C426,234.3,374.4,190.7,296,140.1z"/>
			<path id="Path_1298" class="st1" d="M237.6,208.6c2.8-1,5.5-2.1,8.2-3.3c-20-10.2-41.5-21.8-63.7-34.7s-43-25.6-61.8-37.8
				c0.3,2.9,0.7,5.9,1.2,8.8c18,11.4,37.2,23,57.3,34.6S218.7,198.7,237.6,208.6z"/>
		</g>
		<g id="Group_1322">
			<g>
				<g>
					<defs>
						<path id="SVGID_1_" d="M697.3,755.6c-44-47.2-81.4-100.2-111-157.5c-12.4-24-23.6-52.2-13.6-77.2c14.8-37,64.2-43.7,94-70
							c41.4-36.4,36.3-106,3.9-150.6c-32.4-44.6-84.1-70.4-133.7-94.5C404.9,141.7,270.8,59,132.9,9.7C87.7-6.4,37.9-1.6-6,17.5
							v1135h707.7c-9.4-20.1-20.1-40.9-15.4-62.2c9-40,61.7-48.6,92.5-75.6c38.3-33.7,38-95.7,15.4-141.4
							C771.5,827.6,732.1,792.9,697.3,755.6z"/>
					</defs>
					<clipPath id="SVGID_2_">
						<use xlink:href="#SVGID_1_"  style="overflow:visible;"/>
					</clipPath>
					<g id="Group_1314" class="st3">
						
							<linearGradient id="Path_1299_1_" gradientUnits="userSpaceOnUse" x1="1408.689" y1="-9.419078e-02" x2="1409.6947" y2="-9.419078e-02" gradientTransform="matrix(1094.4849 0 0 1501.0768 -1542079.875 891.9425)">
							<stop  offset="0" style="stop-color:#003846"/>
							<stop  offset="1" style="stop-color:#005F74"/>
						</linearGradient>
						<path id="Path_1299" class="st4" d="M536.8,205.7c49.7,24.1,101.4,49.9,133.7,94.5s37.5,114.2-3.9,150.6
							c-29.9,26.3-79.2,33-94,70c-10.1,25.1,1.2,53.3,13.6,77.2c29.7,57.3,67,110.2,111,157.5c34.8,37.3,74.3,71.9,96.9,117.7
							c22.6,45.8,22.9,107.7-15.4,141.4c-30.8,27.1-83.6,35.7-92.5,75.6c-5.2,23.3,8.1,46.1,17.9,67.9
							c36.5,81.1,23.7,182.2-31.9,251.7c-55.5,69.5-151.3,104.4-238.6,86.8c-61.5-12.4-116-47.9-176.4-65.2
							c-83.9-24.1-173.2-11.6-260.4-12.8s-182.8-20.9-236.3-89.7c-37.5-48.1-47.5-111.9-50.5-172.8c-7.6-158,23.1-315.6,89.7-459.3
							c31.5-67.7,71.2-133.5,81.9-207.3c17.3-120-44.3-247.6,0.2-360.4C-81.2,36,36.5-24.6,132.9,9.7
							C270.8,59,404.9,141.7,536.8,205.7z"/>
					</g>
				</g>
			</g>
			<g>
				<g>
					<defs>
						<path id="SVGID_3_" d="M697.3,755.6c-44-47.2-81.4-100.2-111-157.5c-12.4-24-23.6-52.2-13.6-77.2c14.8-37,64.2-43.7,94-70
							c41.4-36.4,36.3-106,3.9-150.6c-32.4-44.6-84.1-70.4-133.7-94.5C404.9,141.7,270.8,59,132.9,9.7C87.7-6.4,37.9-1.6-6,17.5
							v1135h707.7c-9.4-20.1-20.1-40.9-15.4-62.2c9-40,61.7-48.6,92.5-75.6c38.3-33.7,38-95.7,15.4-141.4
							C771.5,827.6,732.1,792.9,697.3,755.6z"/>
					</defs>
					<clipPath id="SVGID_4_">
						<use xlink:href="#SVGID_3_"  style="overflow:visible;"/>
					</clipPath>
					<g id="Group_1315" class="st5">
						<path id="Path_1301" class="st6" d="M314.7,994.1c10-8.4,17.5-21.8,23-34c9.2-20.2,22.8-43.8,45.1-43.7
							c27.6,0.1,46.8,38.2,73.7,32c30.6-7,26.3-60.3,55.7-71.3c18.1,2.4,29.5,19.9,40.7,34.2c11.3,14.3,30.1,28,46.4,19.7
							c22.2-11.3,11.8-45.9,22.5-68.4c6.6-14,22.5-22.6,38-21.8c15.5,0.8,29.9,10.5,37.6,24c6.5,11.4,8.3,24.8,13.5,36.9
							s15.4,23.8,28.5,23.7c15.7-0.1,26.1-16.5,30.3-31.7c7.1-26,5.1-54,13.7-79.5c8.5-25.5,34.6-49.2,60.2-41
							c13.6,4.4,23.1,16.4,31.2,28.3c39.1,57.6,64,123.7,72.4,192.7L314.7,994.1L314.7,994.1z"/>
					</g>
				</g>
			</g>
			<g>
				<g>
					<defs>
						<path id="SVGID_5_" d="M697.3,755.6c-44-47.2-81.4-100.2-111-157.5c-12.4-24-23.6-52.2-13.6-77.2c14.8-37,64.2-43.7,94-70
							c41.4-36.4,36.3-106,3.9-150.6c-32.4-44.6-84.1-70.4-133.7-94.5C404.9,141.7,270.8,59,132.9,9.7C87.7-6.4,37.9-1.6-6,17.5
							v1135h707.7c-9.4-20.1-20.1-40.9-15.4-62.2c9-40,61.7-48.6,92.5-75.6c38.3-33.7,38-95.7,15.4-141.4
							C771.5,827.6,732.1,792.9,697.3,755.6z"/>
					</defs>
					<clipPath id="SVGID_6_">
						<use xlink:href="#SVGID_5_"  style="overflow:visible;"/>
					</clipPath>
					<g id="Group_1317" class="st7">
						
							<linearGradient id="Ellipse_147_1_" gradientUnits="userSpaceOnUse" x1="1406.1733" y1="-1.6282" x2="1406.8832" y2="-2.3382" gradientTransform="matrix(357.664 0 0 359.268 -502433.5 1832.0237)">
							<stop  offset="0" style="stop-color:#FF7B4C"/>
							<stop  offset="1" style="stop-color:#FFC944"/>
						</linearGradient>
						<ellipse id="Ellipse_147" class="st8" cx="630.8" cy="1119.7" rx="179.8" ry="179.6"/>
						<g id="Group_1316" transform="translate(454.452 940.027)">
							<path id="Path_1303" class="st9" d="M292.3,220.5c-46.6-2.4-89.7,31.8-136.2,27.4c-26.3-2.5-49.7-17.1-71.7-31.7
								s-44.7-29.9-70.9-34.1c-5.6-0.9-11.4-1.1-17-0.7c0.2,24.5,5.4,48.7,15.5,71.1c11-0.2,21,1.1,27,3
								c28.6,9.3,51.5,30.1,76.8,46.3c25.2,16.2,57,28,84.9,17c22.1-8.8,36.9-30.1,57.7-41.7c21.7-12,48.1-12.2,72.2-5.2
								c6.1-10.3,11.3-21.1,15.3-32.4C329.8,228.9,311.5,221.5,292.3,220.5z"/>
							<path id="Path_1304" class="st9" d="M345.5,124.8c-45.3-14.4-94.6,18.2-140.9,7.5c-29.7-6.9-52.3-30.1-78.7-45
								C98.1,71.7,65.4,66.1,33.9,70c-21.2,27.5-34,60.4-36.7,95c10.1-5.6,20.8-9.9,32.1-12.8c34.3-8.6,70.7-3.7,101.4,13.8
								c21.5,12.4,40.6,31,65.2,34.9c44.2,7,80-36.2,123.6-47c11.5-2.8,23.3-3.2,34.9-1.3c-1.4-9.1-3.5-18.1-6.2-27
								C347.1,125.3,346.3,125,345.5,124.8z"/>
							<path id="Path_1305" class="st9" d="M88.1,23.1c24.2-5.2,49.6-4.9,72.8,3.5c27.3,9.8,49.6,29.7,74.5,44.3
								c24.9,14.6,56.7,23.9,82.6,10.8c2.3-1.2,4.4-2.5,6.5-3.9C272,1.2,169.2-22.5,88.1,23.1L88.1,23.1z"/>
						</g>
						<path id="Path_1306" class="st1" d="M669,1224.1c-99.4,0-179.8-80.4-179.8-179.6c0-13.9,1.6-27.8,4.7-41.3
							c-27.8,32.5-42.9,73.8-42.9,116.4c0,99.2,80.5,179.6,179.8,179.6c85.1,0,156.4-59,175.1-138.4
							C771.8,1201,721.8,1224.2,669,1224.1z"/>
					</g>
				</g>
			</g>
			<g>
				<g>
					<defs>
						<path id="SVGID_7_" d="M697.3,755.6c-44-47.2-81.4-100.2-111-157.5c-12.4-24-23.6-52.2-13.6-77.2c14.8-37,64.2-43.7,94-70
							c41.4-36.4,36.3-106,3.9-150.6c-32.4-44.6-84.1-70.4-133.7-94.5C404.9,141.7,270.8,59,132.9,9.7C87.7-6.4,37.9-1.6-6,17.5
							v1135h707.7c-9.4-20.1-20.1-40.9-15.4-62.2c9-40,61.7-48.6,92.5-75.6c38.3-33.7,38-95.7,15.4-141.4
							C771.5,827.6,732.1,792.9,697.3,755.6z"/>
					</defs>
					<clipPath id="SVGID_8_">
						<use xlink:href="#SVGID_7_"  style="overflow:visible;"/>
					</clipPath>
					<g id="Group_1318" class="st10">
						<path id="Path_1308" class="st6" d="M466.4,380.3c-10-8.4-17.5-21.8-23-34c-9.2-20.2-22.8-43.8-45.1-43.7
							c-27.6,0.1-46.8,38.2-73.7,32c-30.6-7-26.3-60.3-55.7-71.3c-18.1,2.4-29.5,19.9-40.7,34.2c-11.3,14.3-30.1,28-46.4,19.7
							c-22.2-11.3-11.8-45.9-22.5-68.4c-6.6-14-22.5-22.6-38-21.8s-29.8,10.6-37.4,24c-6.5,11.4-8.3,24.8-13.5,36.9
							S55,311.7,42,311.6c-15.7-0.1-26.1-16.5-30.3-31.7c-7.1-26-5.1-54-13.7-79.5s-34.6-49.2-60.2-41
							c-13.6,4.4-23.1,16.4-31.2,28.3c-39.1,57.6-64,123.7-72.4,192.7L466.4,380.3z"/>
					</g>
				</g>
			</g>
			<g>
				<g>
					<defs>
						<path id="SVGID_9_" d="M697.3,755.6c-44-47.2-81.4-100.2-111-157.5c-12.4-24-23.6-52.2-13.6-77.2c14.8-37,64.2-43.7,94-70
							c41.4-36.4,36.3-106,3.9-150.6c-32.4-44.6-84.1-70.4-133.7-94.5C404.9,141.7,270.8,59,132.9,9.7C87.7-6.4,37.9-1.6-6,17.5
							v1135h707.7c-9.4-20.1-20.1-40.9-15.4-62.2c9-40,61.7-48.6,92.5-75.6c38.3-33.7,38-95.7,15.4-141.4
							C771.5,827.6,732.1,792.9,697.3,755.6z"/>
					</defs>
					<clipPath id="SVGID_10_">
						<use xlink:href="#SVGID_9_"  style="overflow:visible;"/>
					</clipPath>
					<g id="Group_1319" class="st11">
						
							<linearGradient id="Ellipse_148_1_" gradientUnits="userSpaceOnUse" x1="1406.0487" y1="-1.7032" x2="1406.7587" y2="-2.4132" gradientTransform="matrix(347.188 0 0 348.746 -487971.7188 1426.1567)">
							<stop  offset="0" style="stop-color:#47B4F4"/>
							<stop  offset="1" style="stop-color:#7EC5F3"/>
						</linearGradient>
						<ellipse id="Ellipse_148" class="st12" cx="314.6" cy="708.5" rx="174.6" ry="174.4"/>
						
							<linearGradient id="Path_1310_1_" gradientUnits="userSpaceOnUse" x1="1405.6324" y1="-2.9255" x2="1406.2089" y2="-3.7062" gradientTransform="matrix(309.1721 0 0 229.3173 -434367.5313 1426.1276)">
							<stop  offset="0" style="stop-color:#008735"/>
							<stop  offset="1" style="stop-color:#00BA4A"/>
						</linearGradient>
						<path id="Path_1310" class="st13" d="M451.6,705.7c4.8-16.3-3.5-33.2-11.6-48.2c-20.4-37.9-41.3-76.5-72.2-106.6
							c-4.3-4.2-8.8-8.3-13.6-12.1c-13.1-3-26.4-4.6-39.8-4.6c-86.9,0-159,63.4-172.4,146.4c11.2,17.6,32.3,30.2,52.2,24.6
							c10.7-3,19.8-10.7,30.8-12.4c19.6-3,36.4,14,46.2,31.3c6.2,11,11.4,23,20.9,31.4c9.6,8.4,25.2,11.5,34.4,2.9
							c8.5-8,7.7-21.7,4.5-33c-3.2-11.3-8.1-22.8-5.5-34.2c3.2-14.5,17.7-23.7,32.3-20.5c5.1,1.1,9.8,3.7,13.5,7.4
							c9.5,9.5,10.7,24.4,18.1,35.5c7.2,10.9,20.8,17.4,33.8,15.9S448,718.2,451.6,705.7z"/>
						
							<linearGradient id="Path_1311_1_" gradientUnits="userSpaceOnUse" x1="1404.8365" y1="-7.3684" x2="1405.2557" y2="-8.3929" gradientTransform="matrix(261.068 0 0 107.4352 -366522.25 1667.4547)">
							<stop  offset="0" style="stop-color:#008735"/>
							<stop  offset="1" style="stop-color:#00BA4A"/>
						</linearGradient>
						<path id="Path_1311" class="st14" d="M314.6,882.9c39.8,0.1,78.4-13.5,109.4-38.5c-16.1-1.5-31.6-9.2-41.2-22.2
							c-8-10.7-12.2-24-20.7-34.4c-8.5-10.4-24.6-16.9-35.3-8.7c-16,12.2-4.1,42.9-20.6,54.5c-10.4,7.3-25.2,1.1-33.4-8.6
							s-12.2-22.1-19.7-32.3c-7.4-10.2-20.9-18.2-32.5-13.1c-13.3,5.8-17.9,26-32.3,27.5c-6.7,0.7-13.1-3.3-18.4-7.4
							c-2.9-2.3-5.7-4.7-8.5-7.2C191.1,846.3,248.5,882.9,314.6,882.9z"/>
						
							<linearGradient id="Path_1312_1_" gradientUnits="userSpaceOnUse" x1="1382.5422" y1="-14.3328" x2="1383.3317" y2="-15.028" gradientTransform="matrix(51.4533 0 0 58.7042 -70725.1875 1629.3385)">
							<stop  offset="0" style="stop-color:#008735"/>
							<stop  offset="1" style="stop-color:#00BA4A"/>
						</linearGradient>
						<path id="Path_1312" class="st15" d="M447.1,789.2c-8.8,8.8-24.7,9.1-33.9,0.6s-10.2-24.3-2-33.8
							c1.5-11.1,14.2-20.4,25.1-18.5s19.6,12.3,20.8,23.4C458.4,772,455,781.4,447.1,789.2z"/>
						
							<linearGradient id="Path_1313_1_" gradientUnits="userSpaceOnUse" x1="1372.4038" y1="-11.4648" x2="1372.8884" y2="-11.7132" gradientTransform="matrix(37.455 0 0 73.787 -50946.8086 1486.7419)">
							<stop  offset="0" style="stop-color:#008735"/>
							<stop  offset="1" style="stop-color:#00BA4A"/>
						</linearGradient>
						<path id="Path_1313" class="st16" d="M484.5,668.5c-6.4-27.2-19.3-52.6-37.7-73.8c1.5,11.8,4.8,23.2,9.9,34
							C463.6,643.4,473.4,656.7,484.5,668.5z"/>
						<path id="Path_1314" class="st1" d="M391.3,796.2c-110.1,0-202-77.3-224.6-180.6c-17.6,27.8-26.8,60-26.8,92.9
							c0,96.3,78.1,174.4,174.6,174.4c70.5,0,131.1-41.7,158.8-101.7C447.1,791.1,419.3,796.2,391.3,796.2z"/>
					</g>
				</g>
			</g>
			<g>
				<g>
					<defs>
						<path id="SVGID_11_" d="M697.3,755.6c-44-47.2-81.4-100.2-111-157.5c-12.4-24-23.6-52.2-13.6-77.2c14.8-37,64.2-43.7,94-70
							c41.4-36.4,36.3-106,3.9-150.6c-32.4-44.6-84.1-70.4-133.7-94.5C404.9,141.7,270.8,59,132.9,9.7C87.7-6.4,37.9-1.6-6,17.5
							v1135h707.7c-9.4-20.1-20.1-40.9-15.4-62.2c9-40,61.7-48.6,92.5-75.6c38.3-33.7,38-95.7,15.4-141.4
							C771.5,827.6,732.1,792.9,697.3,755.6z"/>
					</defs>
					<clipPath id="SVGID_12_">
						<use xlink:href="#SVGID_11_"  style="overflow:visible;"/>
					</clipPath>
					<g id="Group_1320" class="st17">
						<ellipse id="Ellipse_149" class="st18" cx="114.4" cy="994.1" rx="68.7" ry="68.6"/>
						<path id="Path_1316" class="st1" d="M140,1020.2c-38-0.1-68.8-30.8-68.7-68.6c0-3.9,0.3-7.8,1-11.6
							c-30.2,23-35.9,66.1-12.7,96.1c23.1,30,66.5,35.7,96.6,12.6c13.8-10.5,23-25.8,25.9-42.8
							C170.1,1015.1,155.3,1020.2,140,1020.2z"/>
						<ellipse id="Ellipse_150" class="st1" cx="102.8" cy="967.1" rx="11.6" ry="16.5"/>
						<ellipse id="Ellipse_151" class="st1" cx="137" cy="1002.9" rx="13.1" ry="8.8"/>
						<ellipse id="Ellipse_152" class="st1" cx="102.6" cy="1033" rx="11.3" ry="11.3"/>
						<ellipse id="Ellipse_153" class="st1" cx="68.5" cy="998.4" rx="4.2" ry="4.3"/>
						<ellipse id="Ellipse_154" class="st1" cx="144.9" cy="967.1" rx="5" ry="5"/>
					</g>
				</g>
			</g>
			<g>
				<g>
					<defs>
						<path id="SVGID_13_" d="M697.3,755.6c-44-47.2-81.4-100.2-111-157.5c-12.4-24-23.6-52.2-13.6-77.2c14.8-37,64.2-43.7,94-70
							c41.4-36.4,36.3-106,3.9-150.6c-32.4-44.6-84.1-70.4-133.7-94.5C404.9,141.7,270.8,59,132.9,9.7C87.7-6.4,37.9-1.6-6,17.5
							v1135h707.7c-9.4-20.1-20.1-40.9-15.4-62.2c9-40,61.7-48.6,92.5-75.6c38.3-33.7,38-95.7,15.4-141.4
							C771.5,827.6,732.1,792.9,697.3,755.6z"/>
					</defs>
					<clipPath id="SVGID_14_">
						<use xlink:href="#SVGID_13_"  style="overflow:visible;"/>
					</clipPath>
					<g id="Group_1321" class="st19">
						<ellipse id="Ellipse_155" class="st20" cx="54.9" cy="772.9" rx="9.3" ry="9.3"/>
						<ellipse id="Ellipse_156" class="st20" cx="97.1" cy="579.5" rx="5.7" ry="5.8"/>
						<ellipse id="Ellipse_157" class="st20" cx="266.6" cy="478.8" rx="7.2" ry="7.3"/>
						<ellipse id="Ellipse_158" class="st20" cx="550.3" cy="408.4" rx="8" ry="8"/>
						<ellipse id="Ellipse_159" class="st20" cx="555.5" cy="731.8" rx="5.2" ry="5.3"/>
						<ellipse id="Ellipse_160" class="st20" cx="285.7" cy="1056" rx="11.8" ry="11.8"/>
						<ellipse id="Ellipse_161" class="st20" cx="500.1" cy="280.1" rx="11.1" ry="11"/>
						<ellipse id="Ellipse_162" class="st20" cx="299.5" cy="157.9" rx="7" ry="7"/>
						<ellipse id="Ellipse_163" class="st20" cx="102.6" cy="123" rx="11.3" ry="11.3"/>
						<path id="Path_1318" class="st20" d="M614.9,322.7L614.9,322.7c1.7,7.8,7.8,13.9,15.7,15.7l0,0c-7.8,1.8-14,7.9-15.7,15.7l0,0
							c-1.7-7.8-7.8-13.9-15.7-15.7l0,0C607,336.6,613.2,330.5,614.9,322.7z"/>
						<path id="Path_1319" class="st20" d="M439,478.5L439,478.5c0.9,4,4,7,7.9,7.9l0,0c-4,0.9-7,4-7.9,7.9l0,0c-0.9-4-4-7-7.9-7.9
							l0,0C435.1,485.6,438.2,482.5,439,478.5z"/>
						<path id="Path_1320" class="st20" d="M53.7,1111.9L53.7,1111.9c0.9,4,4,7,7.9,7.9l0,0c-4,0.9-7,4-7.9,7.9l0,0
							c-0.9-4-4-7-7.9-7.9l0,0C49.8,1118.9,52.9,1115.8,53.7,1111.9z"/>
						<path id="Path_1321" class="st20" d="M189.2,188.4L189.2,188.4c0.9,4,4,7,7.9,7.9l0,0c-4,0.9-7,4-7.9,7.9l0,0
							c-0.9-4-4-7-7.9-7.9l0,0C185.3,195.5,188.3,192.4,189.2,188.4z"/>
						<path id="Path_1322" class="st20" d="M369.8,222.5L369.8,222.5c0.9,4,4,7,7.9,7.9l0,0c-4,0.9-7,4-7.9,7.9l0,0
							c-0.9-4-4-7-7.9-7.9l0,0C365.8,229.5,368.9,226.4,369.8,222.5z"/>
						<path id="Path_1323" class="st20" d="M45.8,660.4L45.8,660.4c0.9,4,4,7,7.9,7.9l0,0c-4,0.9-7,4-7.9,7.9l0,0
							c-0.9-4-4-7-7.9-7.9l0,0C41.8,667.5,44.9,664.4,45.8,660.4z"/>
						<path id="Path_1324" class="st20" d="M161.6,526.1L161.6,526.1c0.9,4,4,7,7.9,7.9l0,0c-4,0.9-7,4-7.9,7.9l0,0
							c-0.9-4-4-7-7.9-7.9l0,0C157.6,533.2,160.7,530.1,161.6,526.1z"/>
						<path id="Path_1325" class="st20" d="M91.3,866.9L91.3,866.9c0.9,4,4,7,7.9,7.9l0,0c-4,0.9-7,4-7.9,7.9l0,0
							c-0.9-4-4-7-7.9-7.9l0,0C87.4,873.9,90.5,870.8,91.3,866.9z"/>
						<path id="Path_1326" class="st20" d="M542.4,607.8L542.4,607.8c0.9,4,4,7,7.9,7.9l0,0c-4,0.9-7,4-7.9,7.9l0,0
							c-0.9-4-4-7-7.9-7.9l0,0C538.3,614.9,541.5,611.8,542.4,607.8z"/>
						<path id="Path_1327" class="st20" d="M259.5,964.1L259.5,964.1c0.9,4,4,7,7.9,7.9l0,0c-4,0.9-7,4-7.9,7.9l0,0
							c-0.9-4-4-7-7.9-7.9l0,0C255.5,971.1,258.6,968,259.5,964.1z"/>
					</g>
				</g>
			</g>
		</g>
	</g>
	<g id="Group_1324" transform="translate(402.53 171.688)">
		<path id="Path_97" class="st21" d="M340.3,0c0,0-1.3,36.9-16.7,80.2l-63.7-63.6C303.4,1.3,340.3,0,340.3,0z"/>
		<path id="Path_98" class="st22" d="M260,16.6l63.7,63.6c-10,28.2-25.8,59.1-51.2,84.4c-23.3,23.1-50.7,41.7-80.8,54.9l-71.2-71.1
			c9.6-21.6,21.9-41.9,36.7-60.4c5.7-7.1,11.8-13.9,18.2-20.3C200.8,42.5,231.8,26.6,260,16.6z"/>
		<path id="Path_99" class="st23" d="M262.7,77.5c10.8,10.7,10.8,28,0,38.7c-10.7,10.6-28,10.7-38.6,0.1l-0.1-0.1
			c-10.7-10.7-10.7-28,0-38.7l0,0c10.7-10.6,28-10.7,38.6-0.1C262.6,77.4,262.7,77.4,262.7,77.5z"/>
		<g id="Group_230" transform="translate(72.188 77.105)">
			<path id="Path_100" class="st24" d="M180.9,106.9c35.3,52.9-30.8,87.2-67.9,87.2c19.4-19.4,13.7-44.4,13.7-44.4l-7.2-7.2
				c21.7-9.6,42-21.9,60.4-36.7L180.9,106.9z"/>
			<path id="Path_101" class="st25" d="M40.4,121.5l-1.1-1.1c-3.3-3.2-4.8-8-3.7-12.5c3.3-12.5,7.5-24.7,12.8-36.5l71.2,71.1
				c-11.9,5.2-24,9.5-36.6,12.8c-4.5,1-9.4-0.4-12.6-3.7l-1.1-1.1L40.4,121.5z"/>
			<path id="Path_102" class="st24" d="M83.9,10.1l1.2,0.9C70.4,29.5,58,49.8,48.4,71.4l-7.2-7.2c0,0-25-5.7-44.4,13.7
				C-3.3,40.8,31-25.2,83.9,10.1z"/>
		</g>
		<path id="Path_103" class="st26" d="M112.6,198.6l29,28.9c-2.1,8.2-7,16.9-14.5,24.3C111,267.8,69,271.2,69,271.2
			s3.3-42.1,19.4-58.1C95.7,205.6,104.4,200.7,112.6,198.6z"/>
		<path id="Path_104" class="st27" d="M180.5,169.5c2.7-2.7,2.7-7,0-9.7c-2.6-2.7-7-2.7-9.7,0l0,0c-2.7,2.7-2.7,7,0,9.7
			C173.4,172.1,177.8,172.2,180.5,169.5L180.5,169.5z"/>
		<path id="Path_105" class="st27" d="M267.8,121.1c13.4-13.4,13.4-35,0-48.4c-13.3-13.3-34.9-13.4-48.4-0.2
			c-0.1,0.1-0.1,0.1-0.2,0.2c-13.4,13.4-13.4,35,0,48.4C232.7,134.4,254.3,134.4,267.8,121.1C267.7,121.1,267.8,121.1,267.8,121.1z
			 M229,82.3c7.9-8,20.9-8,29-0.1l0.1,0.1c8,8,8,21,0,29.1c-7.9,8-20.9,8-29,0.1l-0.1-0.1C220.9,103.3,220.9,90.4,229,82.3L229,82.3
			z"/>
		
			<linearGradient id="Path_107_1_" gradientUnits="userSpaceOnUse" x1="561.6949" y1="-26.5924" x2="562.7006" y2="-26.5924" gradientTransform="matrix(32.7762 0 0 32.9261 -18280.1504 1166.0952)">
			<stop  offset="0" style="stop-color:#FF7B4C"/>
			<stop  offset="1" style="stop-color:#FFC944"/>
		</linearGradient>
		<path id="Path_107" class="st28" d="M141.8,305.1l19.4-19.4c2.6-2.7,2.6-7-0.1-9.7c-2.6-2.6-6.9-2.6-9.6,0L132,295.4
			c-2.6,2.7-2.6,7,0.2,9.7C134.8,307.6,139.1,307.6,141.8,305.1L141.8,305.1z"/>
		
			<linearGradient id="Path_108_1_" gradientUnits="userSpaceOnUse" x1="561.8919" y1="-26.4693" x2="562.8979" y2="-26.4693" gradientTransform="matrix(32.9384 0 0 33.0771 -18474.7422 1069.1763)">
			<stop  offset="0" style="stop-color:#FF7B4C"/>
			<stop  offset="1" style="stop-color:#FFC944"/>
		</linearGradient>
		<path id="Path_108" class="st29" d="M44.7,208.2l19.4-19.4c2.7-2.7,2.7-7,0-9.7c-2.6-2.7-6.9-2.7-9.7,0l0,0l0,0l-19.4,19.4
			c-2.7,2.7-2.7,7,0,9.7C37.7,210.9,42,210.9,44.7,208.2C44.7,208.3,44.7,208.2,44.7,208.2L44.7,208.2L44.7,208.2z"/>
		
			<linearGradient id="Path_109_1_" gradientUnits="userSpaceOnUse" x1="581.2335" y1="-14.3464" x2="582.2401" y2="-14.3464" gradientTransform="matrix(59.8214 0 0 60.0797 -34715.6133 1175.6078)">
			<stop  offset="0" style="stop-color:#FF7B4C"/>
			<stop  offset="1" style="stop-color:#FFC944"/>
		</linearGradient>
		<path id="Path_109" class="st30" d="M102.9,285.7l-46.5,46.4c-2.6,2.7-2.5,7.1,0.2,9.7c2.6,2.6,6.8,2.6,9.6,0l46.5-46.4
			c2.7-2.6,2.8-7,0.2-9.7c-2.6-2.7-6.9-2.8-9.7-0.2l0,0C103.1,285.6,103.1,285.6,102.9,285.7z"/>
		
			<linearGradient id="Path_110_1_" gradientUnits="userSpaceOnUse" x1="581.2283" y1="-14.3474" x2="582.2349" y2="-14.3474" gradientTransform="matrix(59.8187 0 0 60.0765 -34768.5352 1175.6233)">
			<stop  offset="0" style="stop-color:#FF7B4C"/>
			<stop  offset="1" style="stop-color:#FFC944"/>
		</linearGradient>
		<path id="Path_110" class="st31" d="M48.1,285.7L1.7,332.1c-2.6,2.7-2.5,7.1,0.2,9.7c2.6,2.6,6.8,2.6,9.6,0l46.5-46.4
			c2.7-2.6,2.8-7,0.2-9.7c-2.6-2.7-6.9-2.8-9.7-0.2l0,0L48.1,285.7z"/>
		
			<linearGradient id="Path_111_1_" gradientUnits="userSpaceOnUse" x1="581.2875" y1="-14.3066" x2="582.2933" y2="-14.3066" gradientTransform="matrix(59.9707 0 0 60.243 -34863.957 1117.5231)">
			<stop  offset="0" style="stop-color:#FF7B4C"/>
			<stop  offset="1" style="stop-color:#FFC944"/>
		</linearGradient>
		<path id="Path_111" class="st32" d="M8,283.7l46.5-46.4c2.7-2.6,2.8-7,0.2-9.7c-2.6-2.7-6.9-2.8-9.7-0.2l0,0
			c-0.1,0.1-0.1,0.1-0.2,0.2L-1.6,274c-2.7,2.6-2.8,7-0.2,9.7s6.9,2.8,9.7,0.2l0,0C7.9,283.8,8,283.7,8,283.7L8,283.7z"/>
		<path id="Path_112" class="st27" d="M199.9,150.1l9.7-9.7c2.6-2.7,2.6-7-0.1-9.7c-2.6-2.6-6.9-2.6-9.6,0l-9.7,9.7
			c-2.7,2.6-2.8,7-0.2,9.7c2.6,2.7,6.9,2.8,9.7,0.2l0,0C199.8,150.2,199.9,150.2,199.9,150.1L199.9,150.1z"/>
	</g>
	<g id="Group_1326" transform="translate(46.493 314.369)">
		<path id="Path_1335" class="st33" d="M32.4,37.6c20.8-20.8,54.6-20.9,75.5-0.2c0.1,0.1,0.2,0.2,0.2,0.2
			c20.9,20.9,20.9,54.7,0,75.7c-20.7,20.7-54.5,20.9-75.4,0.2c-0.1-0.1-0.2-0.2-0.2-0.2C11.5,92.3,11.5,58.5,32.4,37.6z"/>
		<path id="Path_1331" class="st34" d="M94.7,27.8c18.1,23.5,13.6,57.1-10.1,75.1c-9.4,7.1-20.7,11-32.5,11c-8.4,0-16.9-2-24.4-5.9
			c18.2,23.3,51.9,27.5,75.3,9.4s27.7-51.6,9.5-74.9C107.8,36.3,101.7,31.3,94.7,27.8L94.7,27.8z"/>
		<path id="Path_1332" class="st35" d="M97.8,29.5c21.7,20.3,22.7,54.2,2.4,75.7C90.1,115.9,76,122,61.3,122.1
			c-9.8,0-19.2-2.6-27.6-7.6c21.5,20.1,55.4,19.1,75.6-2.3c9.4-9.9,14.6-23.1,14.5-36.7C123.9,56.6,114,39.2,97.8,29.5z"/>
		<g id="Group_1325" transform="translate(31.312 33.018)">
			<path id="Path_1333" class="st36" d="M-3.5,29.4c-0.2,0-0.4,0-0.6-0.1c-1.1-0.3-1.8-1.5-1.4-2.6c2.6-8.9,8.5-16.3,17.2-21.4
				C15.4,2.9,19.6,1.2,24,0c1.1-0.3,2.3,0.5,2.5,1.6c0.3,1.1-0.5,2.3-1.6,2.5c-3.9,1-7.6,2.6-11.2,4.8C6.1,13.6,1,20-1.4,27.9
				C-1.6,28.8-2.6,29.4-3.5,29.4z"/>
		</g>
	</g>
</g>
</svg>
