<?xml version="1.0" encoding="iso-8859-1"?>
<!-- Generator: Adobe Illustrator 22.0.1, SVG Export Plug-In . SVG Version: 6.00 Build 0)  -->
<svg version="1.1" id="Livello_1" xmlns="http://www.w3.org/2000/svg" xmlns:xlink="http://www.w3.org/1999/xlink" x="0px" y="0px"
	 viewBox="0 0 512 512" style="enable-background:new 0 0 512 512;" xml:space="preserve">
<g>
	<g>
		
			<ellipse transform="matrix(0.7071 -0.7071 0.7071 0.7071 -103.9444 258.4463)" style="fill:#EF7C0F;" cx="260" cy="254.695" rx="166" ry="166"/>
		<path style="fill:#F28A14;" d="M340.665,383.806h-18.092c-10.187,0-18.444-8.258-18.444-18.444
			c0-10.186,8.258-18.444,18.444-18.444h18.092c10.186,0,18.444-8.258,18.444-18.444v0c0-10.186-8.258-18.444-18.444-18.444h-18.092
			c-10.187,0-18.444-8.258-18.444-18.444c0-10.186,8.258-18.444,18.444-18.444h18.092c10.186,0,18.444-8.258,18.444-18.444v0
			c0-10.186-8.258-18.444-18.444-18.444h-18.092c-10.187,0-18.444-8.258-18.444-18.444c0-10.187,8.258-18.444,18.444-18.444h18.092
			c10.186,0,18.444-8.258,18.444-18.444v0c0-10.186-8.258-18.444-18.444-18.444h-18.092c-10.187,0-18.444-8.258-18.444-18.444
			c0-10.187,8.258-18.444,18.444-18.444h18.092c5.83,0,11.02-2.712,14.4-6.936C328.133,99.793,295.372,88.695,260,88.695
			c-91.679,0-166,74.321-166,166c0,91.679,74.321,166,166,166c35.372,0,68.133-11.098,95.066-29.953
			C351.686,386.518,346.496,383.806,340.665,383.806z"/>
		<path style="fill:#F7A52C;" d="M260,402.25c0-10.186-8.258-18.444-18.445-18.444h-18.092c-10.186,0-18.444-8.258-18.444-18.444
			c0-10.186,8.258-18.444,18.444-18.444h18.092c10.187,0,18.445-8.258,18.445-18.444v0c0-10.186-8.258-18.444-18.445-18.444h-18.092
			c-10.186,0-18.444-8.258-18.444-18.444c0-10.186,8.258-18.444,18.444-18.444h18.092c10.187,0,18.445-8.258,18.445-18.444v0
			c0-10.186-8.258-18.444-18.445-18.444h-18.092c-10.186,0-18.444-8.258-18.444-18.444c0-10.187,8.258-18.444,18.444-18.444h18.092
			c10.187,0,18.445-8.258,18.445-18.444v0c0-10.186-8.258-18.444-18.445-18.444h-18.092c-10.186,0-18.444-8.258-18.444-18.444
			c0-10.187,8.258-18.444,18.444-18.444h18.092c10.187,0,18.445-8.258,18.445-18.444v0c0-8.576-5.862-15.764-13.792-17.829
			C160.988,96.327,94,167.665,94,254.695c0,87.03,66.988,158.368,152.208,165.385C254.138,418.015,260,410.827,260,402.25
			L260,402.25z"/>
	</g>
</g>
</svg>
