<?xml version="1.0" encoding="iso-8859-1"?>
<!-- Generator: Adobe Illustrator 22.0.1, SVG Export Plug-In . SVG Version: 6.00 Build 0)  -->
<svg version="1.1" id="Livello_1" xmlns="http://www.w3.org/2000/svg" xmlns:xlink="http://www.w3.org/1999/xlink" x="0px" y="0px"
	 viewBox="0 0 512 512" style="enable-background:new 0 0 512 512;" xml:space="preserve">
<g>
	<g>
		
			<ellipse transform="matrix(0.7071 -0.7071 0.7071 0.7071 -102.2056 247.3709)" style="fill:#EF7C0F;" cx="247.5" cy="247.059" rx="154.82" ry="154.82"/>
		<path style="fill:#F28A14;" d="M322.732,367.474h-16.873c-9.5,0-17.202-7.702-17.202-17.202s7.702-17.202,17.202-17.202h16.873
			c9.5,0,17.202-7.702,17.202-17.202v0c0-9.5-7.702-17.202-17.202-17.202h-16.873c-9.5,0-17.202-7.702-17.202-17.202
			s7.702-17.202,17.202-17.202h16.873c9.5,0,17.202-7.702,17.202-17.202v0c0-9.5-7.702-17.202-17.202-17.202h-16.873
			c-9.5,0-17.202-7.702-17.202-17.202s7.702-17.202,17.202-17.202h16.873c9.5,0,17.202-7.702,17.202-17.202l0,0
			c0-9.5-7.702-17.202-17.202-17.202h-16.873c-9.5,0-17.202-7.702-17.202-17.202c0-9.501,7.702-17.202,17.202-17.202h16.873
			c5.438,0,10.279-2.53,13.431-6.469c-25.118-17.585-55.673-27.935-88.663-27.935c-85.505,0-154.82,69.315-154.82,154.82
			c0,85.504,69.315,154.819,154.82,154.819c32.989,0,63.544-10.35,88.663-27.935C333.011,370.003,328.17,367.474,322.732,367.474z"
			/>
		<path style="fill:#F7A52C;" d="M247.5,384.676c0-9.5-7.702-17.202-17.202-17.202h-16.874c-9.5,0-17.202-7.702-17.202-17.202
			s7.702-17.202,17.202-17.202h16.874c9.5,0,17.202-7.702,17.202-17.202v0c0-9.5-7.702-17.202-17.202-17.202h-16.874
			c-9.5,0-17.202-7.702-17.202-17.202s7.702-17.202,17.202-17.202h16.874c9.5,0,17.202-7.702,17.202-17.202v0
			c0-9.5-7.702-17.202-17.202-17.202h-16.874c-9.5,0-17.202-7.702-17.202-17.202s7.702-17.202,17.202-17.202h16.874
			c9.5,0,17.202-7.702,17.202-17.202l0,0c0-9.5-7.702-17.202-17.202-17.202h-16.874c-9.5,0-17.202-7.702-17.202-17.202
			c0-9.501,7.702-17.202,17.202-17.202h16.874c9.5,0,17.202-7.702,17.202-17.202v0c0-7.999-5.468-14.703-12.864-16.628
			C155.156,99.356,92.68,165.89,92.68,247.059s62.476,147.702,141.956,154.246C242.033,399.379,247.5,392.675,247.5,384.676
			L247.5,384.676z"/>
	</g>
	<path style="fill:#FFF3E0;" d="M371.467,154.308c0.98,1.313,1.949,2.637,2.891,3.987c23.534-5.717,38.559-6.648,40.77-1.551
		c5.418,12.49-68.114,56.42-164.24,98.123C154.762,296.568,72.444,320.25,67.026,307.76c-2.211-5.096,8.733-15.431,28.987-28.711
		c-0.342-1.61-0.647-3.222-0.936-4.834c-52.984,31.859-84.204,59.556-78.383,72.975c9.81,22.613,121.098-3.886,248.569-59.186
		c127.471-55.301,222.853-118.463,213.043-141.076C472.485,133.509,430.93,137.384,371.467,154.308z"/>
	<path style="fill:#FCCC81;" d="M372.284,155.434c0.695,0.95,1.398,1.892,2.074,2.86c23.534-5.717,38.559-6.648,40.77-1.551
		c5.418,12.49-68.114,56.42-164.24,98.123C154.762,296.568,72.444,320.25,67.026,307.76c-2.211-5.096,8.733-15.431,28.987-28.711
		c-0.245-1.155-0.454-2.312-0.672-3.468c-41.822,25.302-66.102,46.371-61.809,56.265c7.873,18.148,108.739-8.13,225.289-58.692
		c116.55-50.563,204.651-106.265,196.777-124.413C451.306,138.846,419.333,142.181,372.284,155.434z"/>
</g>
</svg>
