<?xml version="1.0" encoding="iso-8859-1"?>
<!-- Generator: Adobe Illustrator 22.0.1, SVG Export Plug-In . SVG Version: 6.00 Build 0)  -->
<svg version="1.1" id="Livello_1" xmlns="http://www.w3.org/2000/svg" xmlns:xlink="http://www.w3.org/1999/xlink" x="0px" y="0px"
	 viewBox="0 0 536.333 379" style="enable-background:new 0 0 536.333 379;" xml:space="preserve">
<g>
	<path style="fill:#878888;" d="M105.514,115.403v90.783h16.546v21h-16.546v35.215H80.484v-35.215H16v-18.238
		c2.831-6.223,6.612-13.361,11.35-21.423s10.004-16.339,15.804-24.823c5.792-8.484,11.946-16.822,18.454-25.031
		c6.499-8.2,13.007-15.622,19.515-22.269H105.514z M80.484,147.011c-3.392,4.1-6.896,8.484-10.496,13.145
		c-3.608,4.669-7.112,9.546-10.504,14.639c-3.392,5.092-6.646,10.288-9.753,15.588c-3.116,5.308-5.947,10.573-8.484,15.804h39.237
		V147.011z"/>
</g>
<g>
	<path style="fill:#878888;" d="M501.847,115.403v90.783h16.546v21h-16.546v35.215h-25.031v-35.215h-64.484v-18.238
		c2.831-6.223,6.612-13.361,11.35-21.423c4.739-8.062,10.004-16.339,15.804-24.823c5.792-8.484,11.946-16.822,18.454-25.031
		c6.499-8.2,13.007-15.622,19.515-22.269H501.847z M476.817,147.011c-3.392,4.1-6.896,8.484-10.496,13.145
		c-3.608,4.669-7.112,9.546-10.504,14.639c-3.392,5.092-6.646,10.288-9.753,15.588c-3.116,5.308-5.947,10.573-8.484,15.804h39.238
		V147.011z"/>
</g>
<g id="startup" transform="translate(0 0)">
	<path id="Path_97" style="fill:#FAB952;" d="M439.225,27.696c-1.773,26.194-7.131,52.021-15.925,76.758l-60.833-60.831
		C387.204,34.828,413.031,29.469,439.225,27.696z"/>
	<path id="Path_98" style="fill:#FFFFFF;" d="M362.467,43.622l60.833,60.835c-9.528,26.989-24.74,56.599-48.95,80.809
		c-22.3,22.099-48.471,39.911-77.211,52.549l-68.028-68.028c9.143-20.708,20.95-40.134,35.121-57.786
		c5.457-6.783,11.275-13.269,17.427-19.429C305.868,68.364,335.477,53.153,362.467,43.622z"/>
	<path id="Path_99" style="fill:#7483BF;" d="M365.074,101.849c10.238,10.238,10.238,26.837,0,37.076
		c-10.238,10.238-26.837,10.238-37.076,0c-10.238-10.238-10.238-26.837,0-37.076c0,0,0,0,0,0
		C338.237,91.612,354.836,91.612,365.074,101.849z"/>
	<g id="Group_230" transform="translate(42.457 49.211)">
		<path id="Path_100" style="fill:#F6C359;" d="M313.35,154.587c33.779,50.668-29.452,83.418-64.877,83.418
			c18.534-18.534,13.12-42.488,13.12-42.488l-6.914-6.914c20.708-9.144,40.133-20.951,57.785-35.123L313.35,154.587z"/>
		<path id="Path_101" style="fill:#B3B2B2;" d="M179.035,168.573l-1.061-1.061c-3.212-3.092-4.567-7.642-3.572-11.987
			c3.129-11.963,7.224-23.652,12.245-34.951l68.028,68.028c-11.3,5.021-22.989,9.116-34.951,12.245
			c-4.346,0.995-8.895-0.361-11.987-3.572l-1.061-1.061L179.035,168.573z"/>
		<path id="Path_102" style="fill:#F6C359;" d="M220.666,61.903l1.107,0.885c-14.172,17.651-25.979,37.077-35.123,57.785
			l-6.906-6.915c0,0-23.955-5.414-42.488,13.12C137.248,91.356,169.998,28.121,220.666,61.903z"/>
	</g>
	<path id="Path_103" style="fill:#DC8844;" d="M221.493,217.784l27.648,27.645c-2.46,8.841-7.231,16.868-13.823,23.253
		c-15.356,15.356-55.61,18.534-55.61,18.534s3.179-40.254,18.534-55.61C204.627,225.016,212.652,220.244,221.493,217.784z"/>
	<path id="Path_104" style="fill:#020203;" d="M286.461,189.899c2.559-2.561,2.558-6.711-0.003-9.271
		c-2.561-2.559-6.711-2.558-9.271,0.003c-2.558,2.56-2.558,6.708,0,9.267C279.749,192.459,283.9,192.459,286.461,189.899z"/>
	<path id="Path_105" style="fill:#020203;" d="M369.875,143.556c12.798-12.797,12.798-33.546,0.001-46.344
		c-12.797-12.798-33.546-12.798-46.344-0.001c-12.798,12.797-12.798,33.546-0.001,46.344c0,0,0.001,0.001,0.001,0.001
		c12.785,12.797,33.524,12.807,46.321,0.022C369.86,143.571,369.867,143.564,369.875,143.556z M332.799,106.481
		c7.679-7.679,20.128-7.679,27.807-0.001s7.679,20.128,0.001,27.807c-7.679,7.679-20.128,7.679-27.807,0.001c0,0,0,0-0.001-0.001
		c-7.602-7.662-7.541-20.082,0-27.805L332.799,106.481z"/>
	<path id="Path_106" style="fill:#020203;" d="M177.365,182.046c2.449,1.015,5.269,0.455,7.143-1.42
		c9.156-9.017,21.958-13.312,34.7-11.641l2.296,2.296c-4.379,10.335-7.996,20.976-10.825,31.838
		c-0.938,3.784-0.661,7.768,0.794,11.385c-6.585,3.09-12.576,7.314-17.699,12.479c-16.876,16.863-20.301,57.977-20.438,59.72
		c-0.285,3.608,2.409,6.764,6.017,7.049c0.171,0.013,0.342,0.02,0.513,0.02c0.172,0,0.344-0.007,0.516-0.02
		c1.742-0.137,42.859-3.563,59.729-20.433c5.163-5.122,9.386-11.112,12.476-17.695c3.619,1.457,7.606,1.733,11.391,0.789
		c10.858-2.828,21.495-6.446,31.826-10.823l2.296,2.296c1.671,12.742-2.624,25.543-11.641,34.7c-2.559,2.56-2.559,6.709,0.001,9.268
		c1.229,1.228,2.895,1.919,4.633,1.919c25.94,0,62.206-15.449,75.563-40.406c5.801-10.838,9.751-27.985-2.844-49.381
		c5.339-4.513,10.482-9.231,15.333-14.084c21.642-21.642,38.63-49.654,50.496-83.26c9.045-25.356,14.529-51.845,16.296-78.708
		c0.133-3.616-2.69-6.656-6.307-6.789c-0.16-0.006-0.319-0.006-0.479,0c-26.863,1.767-53.35,7.251-78.706,16.296
		c-33.608,11.867-61.622,28.856-83.268,50.496c-4.849,4.849-9.568,9.992-14.084,15.333c-21.397-12.595-38.543-8.653-49.383-2.846
		c-24.949,13.362-40.398,49.629-40.398,75.57C173.316,178.643,174.915,181.032,177.365,182.046z M230.85,264.048
		c-9.011,9.011-30.151,13.764-43.512,15.705c1.941-13.362,6.694-34.501,15.705-43.512c4.736-4.835,10.456-8.596,16.773-11.027
		l22.056,22.058c-2.431,6.318-6.192,12.039-11.027,16.776H230.85z M260.728,243.713c-2.103,0.422-4.273-0.282-5.728-1.858
		l-29.763-29.763c-1.577-1.454-2.283-3.624-1.863-5.728c2.208-8.505,4.941-16.864,8.183-25.031l54.198,54.198
		c-8.167,3.242-16.527,5.974-25.033,8.182L260.728,243.713z M355.099,247.179c-8.586,16.043-30.205,27.869-49.909,31.939
		c6.281-11.821,7.674-26.869,5.372-35.995c-0.333-1.272-1.025-2.422-1.994-3.311c15.838-7.666,30.874-16.89,44.885-27.536
		c6.823,12.464,7.385,24.182,1.649,34.902H355.099z M420.583,92.309L374.778,46.5c18.732-5.803,37.997-9.722,57.507-11.698
		c-1.977,19.511-5.896,38.775-11.7,57.507L420.583,92.309z M286.453,97.207c19.416-19.416,44.473-34.87,74.499-45.992l54.916,54.916
		c-11.12,30.024-26.577,55.083-45.99,74.499c-5.994,5.984-12.304,11.644-18.902,16.956c-16.027,12.889-33.574,23.766-52.247,32.388
		l-61.62-61.618c8.621-18.673,19.497-36.219,32.386-52.247c5.313-6.598,10.974-12.908,16.961-18.902L286.453,97.207z
		 M219.904,111.983c10.722-5.737,22.44-5.176,34.901,1.646c-10.646,14.01-19.87,29.046-27.536,44.885
		c-0.929-1.008-2.136-1.718-3.469-2.038c-12.216-2.215-24.821-0.31-35.836,5.417c4.074-19.702,15.899-41.319,31.944-49.909
		L219.904,111.983z"/>
	<path id="Path_107" style="fill:#020203;" d="M249.387,319.658l18.534-18.541c2.559-2.56,2.558-6.71-0.002-9.269
		s-6.71-2.558-9.269,0.002l0,0l-18.528,18.541c-2.559,2.56-2.558,6.71,0.002,9.269c2.56,2.559,6.71,2.558,9.269-0.002l0,0H249.387z"
		/>
	<path id="Path_108" style="fill:#020203;" d="M156.695,226.968l18.541-18.535c2.56-2.559,2.561-6.709,0.002-9.269
		c-2.559-2.56-6.709-2.561-9.269-0.002l0,0l-18.541,18.536c-2.56,2.559-2.561,6.709-0.002,9.269c2.559,2.56,6.709,2.561,9.269,0.002
		V226.968z"/>
	<path id="Path_109" style="fill:#020203;" d="M212.31,301.124l-44.397,44.388c-2.541,2.578-2.511,6.727,0.067,9.268
		c2.551,2.515,6.649,2.515,9.2,0.001l44.405-44.388c2.541-2.578,2.511-6.727-0.067-9.268c-2.551-2.515-6.649-2.515-9.2-0.001H212.31
		z"/>
	<path id="Path_110" style="fill:#020203;" d="M159.879,301.124l-44.397,44.388c-2.541,2.578-2.511,6.727,0.067,9.268
		c2.551,2.514,6.649,2.515,9.2,0.001l44.405-44.388c2.578-2.54,2.609-6.69,0.069-9.268c-2.54-2.578-6.69-2.609-9.268-0.069
		c-0.023,0.023-0.046,0.045-0.068,0.068H159.879z"/>
	<path id="Path_111" style="fill:#020203;" d="M121.574,299.171l44.39-44.397c2.56-2.56,2.56-6.709,0-9.269
		c-2.56-2.56-6.709-2.56-9.269,0l0,0l-44.39,44.397c-2.56,2.56-2.56,6.709,0,9.269C114.865,301.731,119.015,301.731,121.574,299.171
		z"/>
	<path id="Path_112" style="fill:#020203;" d="M304.996,171.358l9.267-9.267c2.56-2.56,2.56-6.709,0-9.269
		c-2.56-2.56-6.709-2.56-9.269,0l-9.267,9.267c-2.56,2.56-2.56,6.709,0,9.269C298.286,173.918,302.436,173.918,304.996,171.358z"/>
</g>
</svg>
