<svg xmlns="http://www.w3.org/2000/svg" viewBox="0 0 32.509 38.12">
  <defs>
    <style>
      .cls-1 {
        fill: #fa8100;
      }
    </style>
  </defs>
  <g id="secure-shield" transform="translate(-37.681 0)">
    <g id="Group_953" data-name="Group 953" transform="translate(37.681 0)">
      <g id="Group_952" data-name="Group 952" transform="translate(0 0)">
        <path id="Path_919" data-name="Path 919" class="cls-1" d="M69.6,6.582A63.41,63.41,0,0,1,54.343.111a.8.8,0,0,0-.815,0A61.674,61.674,0,0,1,38.271,6.582a.8.8,0,0,0-.59.773v8.193A23.571,23.571,0,0,0,44.839,32.77c3.515,3.445,7.61,5.349,9.1,5.349s5.582-1.9,9.1-5.349A23.571,23.571,0,0,0,70.19,15.549V7.356A.8.8,0,0,0,69.6,6.582Zm-1.014,8.967A22,22,0,0,1,61.91,31.625c-3.457,3.387-7.153,4.891-7.974,4.891s-4.518-1.5-7.975-4.891a22,22,0,0,1-6.676-16.076V7.964A63.152,63.152,0,0,0,53.936,1.731a65.15,65.15,0,0,0,14.65,6.233Z" transform="translate(-37.681 0)"/>
        <path id="Path_920" data-name="Path 920" class="cls-1" d="M86.3,99.451A.8.8,0,0,0,85.259,99c-1.432.564-2.9,1.084-4.37,1.544a.8.8,0,0,0-.562.765v3.1a.8.8,0,1,0,1.6,0v-2.511c1.316-.426,2.631-.9,3.916-1.4A.8.8,0,0,0,86.3,99.451Z" transform="translate(-77.152 -91.577)"/>
        <path id="Path_921" data-name="Path 921" class="cls-1" d="M171.006,87.814a.8.8,0,0,0,.322-.067l.015-.006a.8.8,0,1,0-.648-1.467l-.013.006a.8.8,0,0,0,.324,1.535Z" transform="translate(-160.336 -79.787)"/>
        <path id="Path_922" data-name="Path 922" class="cls-1" d="M309.361,345.659a.8.8,0,0,0-1.11.233,19.516,19.516,0,0,1-2.3,2.878,20.484,20.484,0,0,1-2.3,2.046.8.8,0,1,0,.972,1.275,22.1,22.1,0,0,0,2.481-2.207,21.1,21.1,0,0,0,2.494-3.116A.8.8,0,0,0,309.361,345.659Z" transform="translate(-283.552 -319.802)"/>
        <path id="Path_923" data-name="Path 923" class="cls-1" d="M277.01,432.076l-.046.027a.8.8,0,1,0,.8,1.388l.053-.031a.8.8,0,1,0-.81-1.384Z" transform="translate(-258.778 -399.805)"/>
        <path id="Path_924" data-name="Path 924" class="cls-1" d="M127.271,160.512a2.608,2.608,0,1,0-3.688,3.688l4.735,4.735a2.608,2.608,0,0,0,3.688,0l9.884-9.885a2.608,2.608,0,0,0-3.688-3.687l-8.041,8.041Zm12.066-4.016a1,1,0,1,1,1.42,1.42l-9.884,9.884a1,1,0,0,1-1.42,0l-4.735-4.735a1,1,0,0,1,1.42-1.42L129.6,165.1a.8.8,0,0,0,1.134,0Z" transform="translate(-116.482 -143.089)"/>
      </g>
    </g>
  </g>
</svg>
