<svg id="Razzo_Tokedo" xmlns="http://www.w3.org/2000/svg" xmlns:xlink="http://www.w3.org/1999/xlink" viewBox="0 0 1532.781 1549">
  <defs>
    <style>
      .cls-1 {
        fill: url(#linear-gradient);
      }

      .cls-2 {
        fill: url(#linear-gradient-3);
      }
    </style>
    <linearGradient id="linear-gradient" x1="0.5" x2="0.5" y2="1" gradientUnits="objectBoundingBox">
      <stop offset="0.204" stop-color="#75b72b"/>
      <stop offset="0.306" stop-color="#70b644"/>
      <stop offset="0.523" stop-color="#63b47b"/>
      <stop offset="0.836" stop-color="#44b1c4"/>
      <stop offset="1" stop-color="#2caee5"/>
    </linearGradient>
    <linearGradient id="linear-gradient-3" x1="0.5" y1="0" x2="0.5" y2="1" xlink:href="#linear-gradient"/>
  </defs>
  <g id="Group_908" data-name="Group 908" transform="translate(0 0)">
    <path id="Path_889" data-name="Path 889" class="cls-1" d="M451.955,104.2A120.816,120.816,0,1,0,537.4,310.49h0A120.845,120.845,0,0,0,451.955,104.2Zm45.3,166.14a64.062,64.062,0,1,1,0-90.6A64.142,64.142,0,0,1,497.254,270.335Z" transform="translate(674.359 189.974)"/>
    <g id="Group_907" data-name="Group 907">
      <path id="Path_890" data-name="Path 890" class="cls-1" d="M73.127,818.947c-19.968,0-35.974-5.9-47.641-17.567-79.53-79.53,156.905-377.518,176.5-397.112a156.031,156.031,0,0,1,220.614,0c60.776,60.808,60.776,159.806,0,220.614C382.412,665.1,170.1,818.947,73.127,818.947ZM70.1,756.391a25.725,25.725,0,0,0,3.026.156c65.083,0,258.8-129.26,305.353-175.781a93.756,93.756,0,0,0,0-132.38c-35.349-35.349-97.031-35.349-132.38,0C185.539,509.007,61.05,711.745,70.1,756.391Z" transform="translate(-9.193 730.053)"/>
      <ellipse id="Ellipse_88" data-name="Ellipse 88" class="cls-2" cx="28.391" cy="28.391" rx="28.391" ry="28.391" transform="translate(811.573 661.098)"/>
      <path id="Path_891" data-name="Path 891" class="cls-2" d="M1464.635,28.913a65.74,65.74,0,0,0-50.318-18.775l-26.436,1.686C1150.846,26.958,929.018,141.371,779.271,325.73l-62.222,76.607L554.21,397.556c-.278-.009-.556-.012-.831-.012-129.145,0-250.56,50.293-341.883,141.609L44.71,705.938a28.39,28.39,0,0,0,18.619,48.428L416.376,772.5l-14.394,17.723a28.389,28.389,0,0,0-2.9,31.467q8.3,15.253,17.376,30.025l-83.724,99.392a28.4,28.4,0,0,0-3.951,30.437,369.669,369.669,0,0,0,177.489,177.492,28.387,28.387,0,0,0,30.031-3.613c18.038-14.634,38.831-31.986,58.943-48.768,14.335-11.961,29-24.2,42.707-35.48q12.273,7.383,24.872,14.269a28.394,28.394,0,0,0,30.974-2.511l19.35-15.015,18.219,354.537a28.385,28.385,0,0,0,48.425,18.616l166.786-166.786c91.319-91.319,141.608-212.734,141.608-341.882V776.883l65.8-51.058a853.219,853.219,0,0,0,329.487-633.06l.674-13.819A65.769,65.769,0,0,0,1464.635,28.913ZM130.011,700.941,251.645,579.307c80.5-80.5,187.5-124.872,301.321-124.982L671.98,457.82,460.707,717.933Zm428.858,362.119c-14.822,12.364-30.015,25.043-44.115,36.642a311.907,311.907,0,0,1-126.49-126.371l61.3-72.769A658.336,658.336,0,0,0,510.3,971.048c.016.016.034.031.05.047s.013.016.016.019a.165.165,0,0,0,.025.022,658.149,658.149,0,0,0,78.168,67.194C578.769,1046.456,568.738,1054.825,558.869,1063.061ZM1031.414,932.4c0,113.98-44.384,221.135-124.982,301.73L784.8,1355.768l-16.973-330.277,263.586-204.543V932.4ZM1426.765,89.992a796.482,796.482,0,0,1-307.583,590.975L673.9,1026.506a601.194,601.194,0,0,1-102.846-75.92L721.174,800.464a28.393,28.393,0,0,0-40.155-40.152L531.037,910.29a601.356,601.356,0,0,1-72.79-99.27l365.1-449.491c139.791-172.1,346.873-278.914,568.149-293.039L1417.93,66.8a8.947,8.947,0,0,1,9.51,9.366Z" transform="translate(48.555 -10)"/>
    </g>
  </g>
  <g id="Group_910" data-name="Group 910" transform="translate(0 0)">
    <path id="Path_892" data-name="Path 892" class="cls-1" d="M451.955,104.2A120.816,120.816,0,1,0,537.4,310.49h0A120.845,120.845,0,0,0,451.955,104.2Zm45.3,166.14a64.062,64.062,0,1,1,0-90.6A64.142,64.142,0,0,1,497.254,270.335Z" transform="translate(674.359 189.974)"/>
    <g id="Group_909" data-name="Group 909">
      <path id="Path_893" data-name="Path 893" class="cls-1" d="M73.127,818.947c-19.968,0-35.974-5.9-47.641-17.567-79.53-79.53,156.905-377.518,176.5-397.112a156.031,156.031,0,0,1,220.614,0c60.776,60.808,60.776,159.806,0,220.614C382.412,665.1,170.1,818.947,73.127,818.947ZM70.1,756.391a25.725,25.725,0,0,0,3.026.156c65.083,0,258.8-129.26,305.353-175.781a93.756,93.756,0,0,0,0-132.38c-35.349-35.349-97.031-35.349-132.38,0C185.539,509.007,61.05,711.745,70.1,756.391Z" transform="translate(-9.193 730.053)"/>
      <ellipse id="Ellipse_89" data-name="Ellipse 89" class="cls-2" cx="28.391" cy="28.391" rx="28.391" ry="28.391" transform="translate(811.573 661.098)"/>
      <path id="Path_894" data-name="Path 894" class="cls-2" d="M1464.635,28.913a65.74,65.74,0,0,0-50.318-18.775l-26.436,1.686C1150.846,26.958,929.018,141.371,779.271,325.73l-62.222,76.607L554.21,397.556c-.278-.009-.556-.012-.831-.012-129.145,0-250.56,50.293-341.883,141.609L44.71,705.938a28.39,28.39,0,0,0,18.619,48.428L416.376,772.5l-14.394,17.723a28.389,28.389,0,0,0-2.9,31.467q8.3,15.253,17.376,30.025l-83.724,99.392a28.4,28.4,0,0,0-3.951,30.437,369.669,369.669,0,0,0,177.489,177.492,28.387,28.387,0,0,0,30.031-3.613c18.038-14.634,38.831-31.986,58.943-48.768,14.335-11.961,29-24.2,42.707-35.48q12.273,7.383,24.872,14.269a28.394,28.394,0,0,0,30.974-2.511l19.35-15.015,18.219,354.537a28.385,28.385,0,0,0,48.425,18.616l166.786-166.786c91.319-91.319,141.608-212.734,141.608-341.882V776.883l65.8-51.058a853.219,853.219,0,0,0,329.487-633.06l.674-13.819A65.769,65.769,0,0,0,1464.635,28.913ZM130.011,700.941,251.645,579.307c80.5-80.5,187.5-124.872,301.321-124.982L671.98,457.82,460.707,717.933Zm428.858,362.119c-14.822,12.364-30.015,25.043-44.115,36.642a311.907,311.907,0,0,1-126.49-126.371l61.3-72.769A658.336,658.336,0,0,0,510.3,971.048c.016.016.034.031.05.047s.013.016.016.019a.165.165,0,0,0,.025.022,658.149,658.149,0,0,0,78.168,67.194C578.769,1046.456,568.738,1054.825,558.869,1063.061ZM1031.414,932.4c0,113.98-44.384,221.135-124.982,301.73L784.8,1355.768l-16.973-330.277,263.586-204.543V932.4ZM1426.765,89.992a796.482,796.482,0,0,1-307.583,590.975L673.9,1026.506a601.194,601.194,0,0,1-102.846-75.92L721.174,800.464a28.393,28.393,0,0,0-40.155-40.152L531.037,910.29a601.356,601.356,0,0,1-72.79-99.27l365.1-449.491c139.791-172.1,346.873-278.914,568.149-293.039L1417.93,66.8a8.947,8.947,0,0,1,9.51,9.366Z" transform="translate(48.555 -10)"/>
    </g>
  </g>
</svg>
