<?xml version="1.0" encoding="utf-8"?>
<!-- Generator: Adobe Illustrator 22.0.1, SVG Export Plug-In . SVG Version: 6.00 Build 0)  -->
<svg version="1.1" id="Livello_1" xmlns="http://www.w3.org/2000/svg" xmlns:xlink="http://www.w3.org/1999/xlink" x="0px" y="0px"
	 viewBox="0 0 719 512" style="enable-background:new 0 0 719 512;" xml:space="preserve">
<style type="text/css">
	.st0{fill:#C8C8C8;}
</style>
<g>
	<path class="st0" d="M477.6,70.1h5c0.6,0,1.1-0.5,1.1-1.1v-4.9c0-1.2,0.9-2.3,2.1-2.3c1.3-0.1,2.3,0.9,2.3,2.2v5
		c0,0.6,0.5,1.1,1.1,1.1h4.9c1.2,0,2.3,0.9,2.3,2.1c0.1,1.3-0.9,2.3-2.2,2.3h-5c-0.6,0-1.1,0.5-1.1,1.1v4.9c0,1.2-0.9,2.3-2.1,2.3
		c-1.3,0.1-2.3-0.9-2.3-2.2v-5c0-0.6-0.5-1.1-1.1-1.1h-4.9c-1.2,0-2.3-0.9-2.3-2.1C475.3,71.1,476.3,70.1,477.6,70.1z"/>
	<path class="st0" d="M279.8,464.2h5c0.6,0,1.1-0.5,1.1-1.1v-4.9c0-1.2,0.9-2.3,2.1-2.3c1.3-0.1,2.3,0.9,2.3,2.2v5
		c0,0.6,0.5,1.1,1.1,1.1h4.9c1.2,0,2.3,0.9,2.3,2.1c0.1,1.3-0.9,2.3-2.2,2.3h-5c-0.6,0-1.1,0.5-1.1,1.1v4.9c0,1.2-0.9,2.3-2.1,2.3
		c-1.3,0.1-2.3-0.9-2.3-2.2v-5c0-0.6-0.5-1.1-1.1-1.1h-4.9c-1.2,0-2.3-0.9-2.3-2.1C277.5,465.3,278.5,464.2,279.8,464.2z"/>
	<path class="st0" d="M685.5,347.6h5c0.6,0,1.1-0.5,1.1-1.1v-4.9c0-1.2,0.9-2.3,2.1-2.3c1.3-0.1,2.3,0.9,2.3,2.2v5
		c0,0.6,0.5,1.1,1.1,1.1h4.9c1.2,0,2.3,0.9,2.3,2.1c0.1,1.3-0.9,2.3-2.2,2.3h-5c-0.6,0-1.1,0.5-1.1,1.1v4.9c0,1.2-0.9,2.3-2.1,2.3
		c-1.3,0.1-2.3-0.9-2.3-2.2v-5c0-0.6-0.5-1.1-1.1-1.1h-4.9c-1.2,0-2.3-0.9-2.3-2.1C683.3,348.6,684.3,347.6,685.5,347.6z"/>
	<path class="st0" d="M14.4,120.8h5c0.6,0,1.1-0.5,1.1-1.1v-4.9c0-1.2,0.9-2.3,2.1-2.3c1.3-0.1,2.3,0.9,2.3,2.2v5
		c0,0.6,0.5,1.1,1.1,1.1h4.9c1.2,0,2.3,0.9,2.3,2.1c0.1,1.3-0.9,2.3-2.2,2.3h-5c-0.6,0-1.1,0.5-1.1,1.1v4.9c0,1.2-0.9,2.3-2.1,2.3
		c-1.3,0.1-2.3-0.9-2.3-2.2v-5c0-0.6-0.5-1.1-1.1-1.1h-4.9c-1.2,0-2.3-0.9-2.3-2.1C12.1,121.8,13.1,120.8,14.4,120.8z"/>
	<path class="st0" d="M691,42.8h1.1c0.8,0,1.4-0.6,1.4-1.4v-1.1c0-0.5,0.4-0.9,0.9-0.9c0.5,0,0.9,0.4,0.9,0.9v1.1
		c0,0.8,0.6,1.4,1.4,1.4h1.1c0.5,0,0.9,0.4,0.9,0.9s-0.4,0.9-0.9,0.9h-1.1c-0.8,0-1.4,0.6-1.4,1.4V47c0,0.5-0.4,0.9-0.9,0.9
		c-0.5,0-0.9-0.4-0.9-0.9V46c0-0.8-0.6-1.4-1.4-1.4H691c-0.5,0-0.9-0.4-0.9-0.9S690.5,42.8,691,42.8z"/>
	<path class="st0" d="M516.3,421.5h1.1c0.8,0,1.4-0.6,1.4-1.4V419c0-0.5,0.4-0.9,0.9-0.9s0.9,0.4,0.9,0.9v1.1c0,0.8,0.6,1.4,1.4,1.4
		h1.1c0.5,0,0.9,0.4,0.9,0.9c0,0.5-0.4,0.9-0.9,0.9h-1.1c-0.8,0-1.4,0.6-1.4,1.4v1.1c0,0.5-0.4,0.9-0.9,0.9s-0.9-0.4-0.9-0.9v-1.1
		c0-0.8-0.6-1.4-1.4-1.4h-1.1c-0.5,0-0.9-0.4-0.9-0.9C515.4,421.9,515.8,421.5,516.3,421.5z"/>
	<path class="st0" d="M584.5,183.4h1.1c0.8,0,1.4-0.6,1.4-1.4v-1.1c0-0.5,0.4-0.9,0.9-0.9c0.5,0,0.9,0.4,0.9,0.9v1.1
		c0,0.8,0.6,1.4,1.4,1.4h1.1c0.5,0,0.9,0.4,0.9,0.9c0,0.5-0.4,0.9-0.9,0.9h-1.1c-0.8,0-1.4,0.6-1.4,1.4v1.1c0,0.5-0.4,0.9-0.9,0.9
		c-0.5,0-0.9-0.4-0.9-0.9v-1.1c0-0.8-0.6-1.4-1.4-1.4h-1.1c-0.5,0-0.9-0.4-0.9-0.9C583.6,183.8,584,183.4,584.5,183.4z"/>
	<path class="st0" d="M158.8,92.5h1.1c0.8,0,1.4-0.6,1.4-1.4V90c0-0.5,0.4-0.9,0.9-0.9c0.5,0,0.9,0.4,0.9,0.9v1.1
		c0,0.8,0.6,1.4,1.4,1.4h1.1c0.5,0,0.9,0.4,0.9,0.9c0,0.5-0.4,0.9-0.9,0.9h-1.1c-0.8,0-1.4,0.6-1.4,1.4v1.1c0,0.5-0.4,0.9-0.9,0.9
		c-0.5,0-0.9-0.4-0.9-0.9v-1.1c0-0.8-0.6-1.4-1.4-1.4h-1.1c-0.5,0-0.9-0.4-0.9-0.9C157.9,92.9,158.3,92.5,158.8,92.5z"/>
	<circle class="st0" cx="118.1" cy="200.9" r="1.6"/>
	<circle class="st0" cx="379.3" cy="455.9" r="1.6"/>
	<circle class="st0" cx="54.8" cy="488.1" r="1.6"/>
	<circle class="st0" cx="570.5" cy="89.1" r="1.6"/>
	<path class="st0" d="M41,357.6c1.7,0,3,1.4,3,3s-1.4,3-3,3s-3-1.4-3-3C38,359,39.3,357.6,41,357.6z"/>
	<path class="st0" d="M696.9,241.2c1.7,0,3,1.4,3,3s-1.4,3-3,3s-3-1.4-3-3C693.8,242.5,695.2,241.2,696.9,241.2z"/>
	<path class="st0" d="M378.5,21.8c1.7,0,3,1.4,3,3s-1.4,3-3,3s-3-1.4-3-3S376.8,21.8,378.5,21.8z"/>
	<circle class="st0" cx="613.5" cy="308.7" r="1.6"/>
	<circle class="st0" cx="592.1" cy="485" r="1.6"/>
	<circle class="st0" cx="235.9" cy="27.8" r="1.6"/>
	<circle class="st0" cx="36.4" cy="27.8" r="1.6"/>
</g>
</svg>
