<svg id="Group_1148" data-name="Group 1148" xmlns="http://www.w3.org/2000/svg" viewBox="0 0 1525.525 1525.52">
  <defs>
    <style>
      .cls-1 {
        fill: #f6c358;
      }

      .cls-2 {
        fill: #fcd462;
      }

      .cls-3 {
        fill: #FA8100;
      }

      .cls-4 {
        fill: #dc8744;
      }

      .cls-5 {
        fill: #b5794a;
      }
    </style>
  </defs>
  <g id="Group_891" data-name="Group 891" transform="translate(0 0)">
    <ellipse id="Ellipse_68" data-name="Ellipse 68" class="cls-1" cx="762.763" cy="762.76" rx="762.763" ry="762.76"/>
    <ellipse id="Ellipse_69" data-name="Ellipse 69" class="cls-2" cx="650.879" cy="650.876" rx="650.879" ry="650.876" transform="translate(111.884 111.89)"/>
    <path id="Path_811" data-name="Path 811" class="cls-1" d="M803.681,1366.818a573.219,573.219,0,0,1-110.787-10.709l8.449-42.975a530.21,530.21,0,0,0,102,9.887l.524,39.593-.012,4.2Zm111.277-10.92-8.555-42.974a524.1,524.1,0,0,0,98.531-29.936l16.811,40.452A567.591,567.591,0,0,1,914.958,1355.9Zm-328.926-32a568.324,568.324,0,0,1-98.453-52.559l24.322-36.428a525.988,525.988,0,0,0,90.863,48.5Zm534.064-53.212-24.384-36.39a529.1,529.1,0,0,0,79.569-65.449l31,30.954A571.988,571.988,0,0,1,1120.1,1270.682ZM401.25,1200.649a574.347,574.347,0,0,1-70.965-86.08l36.366-24.454a530.257,530.257,0,0,0,65.537,79.513Zm875.81-87.085-36.408-24.368a525.669,525.669,0,0,0,48.592-90.818l40.476,16.772A570.757,570.757,0,0,1,1277.06,1113.564Zm-999.635-97.3A566.029,566.029,0,0,1,244.866,909.5l42.957-8.578a522.914,522.914,0,0,0,30.03,98.488ZM1362.046,908.329l-42.975-8.495a530.335,530.335,0,0,0,9.989-102.543v-2.3h43.809v2.3A573.891,573.891,0,0,1,1362.046,908.329ZM233.8,798.45V797.3a573.849,573.849,0,0,1,10.589-109.856l43,8.408A530.231,530.231,0,0,0,277.612,797.3ZM1318.645,692.583a522.955,522.955,0,0,0-30.258-98.413l40.4-16.941a565.521,565.521,0,0,1,32.782,106.69ZM317.019,597.233,276.5,580.546a568.77,568.77,0,0,1,52.44-98.52l36.474,24.28A524.5,524.5,0,0,0,317.019,597.233Zm922.4-93.687a530.427,530.427,0,0,0-65.7-79.363l30.869-31.082a573.751,573.751,0,0,1,71.135,85.932Zm-808.8-77.022-31.059-30.889a573.643,573.643,0,0,1,86.029-71.063l24.47,36.344A529.425,529.425,0,0,0,430.617,426.523Zm663.242-67.454a524.862,524.862,0,0,0-90.975-48.3l16.642-40.536a570.073,570.073,0,0,1,98.571,52.342Zm-493.146-47.03-16.9-40.429a567.036,567.036,0,0,1,106.711-32.663l8.642,42.956A521.667,521.667,0,0,0,600.713,312.039Zm303.529-30.794a529.948,529.948,0,0,0-100.908-9.67l-1.21-30.55.8-13.259A594.117,594.117,0,0,1,912.6,238.249Z" transform="translate(-40.579 -34.477)"/>
  </g>
  <g id="Group_892" data-name="Group 892" transform="translate(549.01 344.619)">
    <path id="Path_815" data-name="Path 815" class="cls-3" d="M465.566,482.314,238.345,370.124V123.586Z" transform="translate(-11.128 -123.586)"/>
    <path id="Path_816" data-name="Path 816" class="cls-4" d="M394.946,123.586V370.124L167.724,482.314Z" transform="translate(-167.724 -123.586)"/>
    <path id="Path_817" data-name="Path 817" class="cls-3" d="M465.566,276.921,238.345,635.648V389.111Z" transform="translate(-11.128 216.44)"/>
    <path id="Path_818" data-name="Path 818" class="cls-4" d="M394.946,389.111V635.648L167.724,276.921Z" transform="translate(-167.724 216.44)"/>
    <path id="Path_819" data-name="Path 819" class="cls-5" d="M622.17,312.379,394.946,424.485,167.724,312.379,394.946,200.245Z" transform="translate(-167.724 46.405)"/>
  </g>
</svg>
