<svg id="Group_1152" data-name="Group 1152" xmlns="http://www.w3.org/2000/svg" viewBox="0 0 1502.853 1524.817">
  <defs>
    <style>
      .cls-1 {
        fill: #fcd462;
      }

      .cls-2 {
        fill: #f6c358;
      }

      .cls-3 {
        fill: #dc8744;
      }
    </style>
  </defs>
  <g id="bitcoin_1_" data-name="bitcoin (1)" transform="translate(0)">
    <ellipse id="Ellipse_60" data-name="Ellipse 60" class="cls-1" cx="655.06" cy="140.922" rx="655.06" ry="140.922" transform="translate(0 1078.561)"/>
    <path id="Path_736" data-name="Path 736" class="cls-2" d="M655.073,398.768c-361.783,0-655.06-63.1-655.06-140.932V422.253c0,77.834,293.282,140.926,655.06,140.926s655.06-63.1,655.06-140.926V257.837C1310.134,335.672,1016.852,398.768,655.073,398.768Z" transform="translate(0.05 961.631)"/>
    <g id="Group_871" data-name="Group 871" transform="translate(76.57 1286.338)">
      <path id="Path_737" data-name="Path 737" class="cls-3" d="M54.178,285.122V449.286C40.35,445.14,27.564,440.3,15.81,435.809V271.644C27.564,276.139,40.35,280.975,54.178,285.122Z" transform="translate(-15.81 -271.644)"/>
      <path id="Path_738" data-name="Path 738" class="cls-3" d="M86.865,286.573V451.087c-13.13-2.074-25.577-4.146-38.014-6.569V280.35C61.288,282.428,73.735,284.5,86.865,286.573Z" transform="translate(111.172 -238.186)"/>
      <path id="Path_739" data-name="Path 739" class="cls-3" d="M120.186,287.813V452.327q-19.709-1.557-38.367-3.11V284.7Q100.482,286.26,120.186,287.813Z" transform="translate(237.873 -221.452)"/>
      <path id="Path_740" data-name="Path 740" class="cls-3" d="M152.873,287.739V452.252c-12.781,0-25.577-.344-38.014-1.037V286.7C127.3,287.4,140.092,287.739,152.873,287.739Z" transform="translate(364.85 -213.773)"/>
      <path id="Path_741" data-name="Path 741" class="cls-3" d="M186.195,286.7V451.215q-19.186,1.033-38.368,1.037V287.739Q167.02,287.739,186.195,286.7Z" transform="translate(491.551 -213.773)"/>
      <path id="Path_742" data-name="Path 742" class="cls-3" d="M218.881,284.7V449.216c-12.436,1.034-24.884,2.073-38.013,3.11V287.813C194,286.78,206.445,285.744,218.881,284.7Z" transform="translate(618.532 -221.456)"/>
      <path id="Path_743" data-name="Path 743" class="cls-3" d="M252.2,280.35V444.514c-12.1,2.422-24.884,4.494-38.367,6.568V286.569Q234.068,283.468,252.2,280.35Z" transform="translate(745.233 -238.186)"/>
      <path id="Path_744" data-name="Path 744" class="cls-3" d="M284.891,271.645V435.81a372.055,372.055,0,0,1-38.014,13.477V285.123A373.02,373.02,0,0,0,284.891,271.645Z" transform="translate(872.216 -271.641)"/>
    </g>
    <ellipse id="Ellipse_61" data-name="Ellipse 61" class="cls-1" cx="655.06" cy="140.922" rx="655.06" ry="140.922" transform="translate(192.602 808.878)"/>
    <path id="Path_745" data-name="Path 745" class="cls-2" d="M1350,202.132V366.645c0,23.848-27.645,46.315-76.73,66.013a371.758,371.758,0,0,1-38.014,13.478c-34.217,11.062-75.345,20.739-121.655,28.686-12.1,2.422-24.884,4.495-38.368,6.568-37.67,5.874-78.454,10.713-121.655,14.858-12.437,1.037-24.884,2.073-38.014,3.11-39.06,3.109-79.49,5.182-121.655,6.567q-19.186,1.033-38.367,1.037c-20.046.344-40.436.693-60.83.693s-40.779-.344-60.83-.693c-12.781,0-25.577-.343-38.014-1.037-41.82-1.384-82.6-3.458-121.655-6.567q-19.709-1.556-38.368-3.11c-43.2-4.145-83.98-8.984-121.655-14.858-13.13-2.074-25.577-4.146-38.014-6.568-46.315-7.947-87.443-17.624-121.655-28.686-13.827-4.146-26.613-8.984-38.367-13.478-48.727-19.7-76.377-42.165-76.377-66.013V202.132c0,23.848,27.649,46.659,76.377,66.361,11.754,4.494,24.54,9.328,38.367,13.479,34.217,10.713,75.34,20.39,121.655,28.686,12.437,2.072,24.884,4.146,38.014,6.219,37.675,5.874,78.454,10.714,121.655,14.859q18.67,1.555,38.368,3.109c39.05,3.11,79.834,5.188,121.655,6.568,12.437.692,25.228,1.036,38.014,1.036,20.046.344,40.44.693,60.83.693s40.784-.344,60.83-.693q19.186,0,38.367-1.036c42.165-1.38,82.6-3.458,121.655-6.568,13.13-1.036,25.577-2.072,38.014-3.109,43.2-4.146,83.985-8.985,121.655-14.859q20.226-3.109,38.368-6.219c46.31-8.3,87.443-17.972,121.655-28.686a370.752,370.752,0,0,0,38.014-13.479C1322.351,248.791,1350,226.328,1350,202.132Z" transform="translate(152.857 747.547)"/>
    <g id="Group_872" data-name="Group 872" transform="translate(269.018 1016.04)">
      <path id="Path_746" data-name="Path 746" class="cls-3" d="M93.913,229.312V393.477C80.086,389.331,67.3,384.493,55.546,380V215.834C67.3,220.327,80.086,225.161,93.913,229.312Z" transform="translate(-55.546 -215.834)"/>
      <path id="Path_747" data-name="Path 747" class="cls-3" d="M126.6,230.759V395.272c-13.13-2.073-25.577-4.146-38.014-6.568V224.54C101.029,226.613,113.475,228.686,126.6,230.759Z" transform="translate(71.432 -182.375)"/>
      <path id="Path_748" data-name="Path 748" class="cls-3" d="M159.921,232V396.515q-19.709-1.555-38.367-3.109V228.893Q140.224,230.447,159.921,232Z" transform="translate(198.133 -165.646)"/>
      <path id="Path_749" data-name="Path 749" class="cls-3" d="M192.609,231.927V396.44c-12.782,0-25.577-.343-38.014-1.037V230.891C167.036,231.583,179.827,231.927,192.609,231.927Z" transform="translate(325.114 -157.968)"/>
      <path id="Path_750" data-name="Path 750" class="cls-3" d="M225.93,230.891V395.4q-19.186,1.032-38.367,1.037V231.927Q206.756,231.927,225.93,230.891Z" transform="translate(451.815 -157.968)"/>
      <path id="Path_751" data-name="Path 751" class="cls-3" d="M258.619,228.893V393.406c-12.438,1.036-24.885,2.073-38.015,3.109V232C233.734,230.966,246.181,229.929,258.619,228.893Z" transform="translate(578.797 -165.646)"/>
      <path id="Path_752" data-name="Path 752" class="cls-3" d="M291.94,224.54V388.7c-12.1,2.422-24.885,4.5-38.368,6.568V230.759Q273.8,227.65,291.94,224.54Z" transform="translate(705.498 -182.375)"/>
      <path id="Path_753" data-name="Path 753" class="cls-3" d="M324.626,215.834V380a371.79,371.79,0,0,1-38.013,13.48V229.312A371.8,371.8,0,0,0,324.626,215.834Z" transform="translate(832.48 -215.834)"/>
    </g>
    <ellipse id="Ellipse_62" data-name="Ellipse 62" class="cls-1" cx="655.06" cy="140.922" rx="655.06" ry="140.922" transform="translate(0 539.254)"/>
    <path id="Path_754" data-name="Path 754" class="cls-2" d="M655.073,287.419c-361.783,0-655.06-63.1-655.06-140.932V310.9c0,77.834,293.282,140.927,655.06,140.927s655.06-63.1,655.06-140.927V146.487C1310.134,224.322,1016.852,287.419,655.073,287.419Z" transform="translate(0.05 533.693)"/>
    <g id="Group_873" data-name="Group 873" transform="translate(76.57 747.05)">
      <path id="Path_755" data-name="Path 755" class="cls-3" d="M54.178,173.772V337.937c-13.827-4.145-26.613-8.985-38.368-13.478V160.294C27.564,164.788,40.35,169.626,54.178,173.772Z" transform="translate(-15.81 -160.294)"/>
      <path id="Path_756" data-name="Path 756" class="cls-3" d="M86.865,175.22V339.732c-13.13-2.072-25.577-4.145-38.014-6.567V169C61.288,171.074,73.735,173.147,86.865,175.22Z" transform="translate(111.172 -126.831)"/>
      <path id="Path_757" data-name="Path 757" class="cls-3" d="M120.186,176.463V340.976q-19.709-1.556-38.367-3.11V173.354Q100.482,174.909,120.186,176.463Z" transform="translate(237.873 -110.102)"/>
      <path id="Path_758" data-name="Path 758" class="cls-3" d="M152.873,176.389V340.9c-12.781,0-25.577-.343-38.014-1.036V175.352C127.3,176.045,140.092,176.389,152.873,176.389Z" transform="translate(364.85 -102.424)"/>
      <path id="Path_759" data-name="Path 759" class="cls-3" d="M186.195,175.352V339.865q-19.186,1.032-38.368,1.037V176.388Q167.02,176.388,186.195,175.352Z" transform="translate(491.551 -102.423)"/>
      <path id="Path_760" data-name="Path 760" class="cls-3" d="M218.881,173.353V337.865c-12.436,1.036-24.884,2.073-38.013,3.109V176.462C194,175.43,206.445,174.394,218.881,173.353Z" transform="translate(618.532 -110.106)"/>
      <path id="Path_761" data-name="Path 761" class="cls-3" d="M252.2,169V333.165c-12.1,2.422-24.884,4.495-38.367,6.567V175.22Q234.068,172.11,252.2,169Z" transform="translate(745.233 -126.831)"/>
      <path id="Path_762" data-name="Path 762" class="cls-3" d="M284.891,160.295V324.46a371.7,371.7,0,0,1-38.014,13.478V173.774A372.7,372.7,0,0,0,284.891,160.295Z" transform="translate(872.216 -160.29)"/>
    </g>
    <ellipse id="Ellipse_65" data-name="Ellipse 65" class="cls-1" cx="655.06" cy="140.922" rx="655.06" ry="140.922" transform="translate(192.602 269.542)"/>
    <path id="Path_765" data-name="Path 765" class="cls-2" d="M1350,90.782V255.3c0,23.848-27.645,46.315-76.73,66.012a371.8,371.8,0,0,1-38.014,13.479c-34.217,11.062-75.345,20.738-121.655,28.686-12.1,2.422-24.884,4.495-38.368,6.567-37.67,5.875-78.454,10.713-121.655,14.859-12.437,1.036-24.884,2.073-38.014,3.109-39.06,3.109-79.49,5.182-121.655,6.567q-19.186,1.031-38.367,1.036c-20.046.344-40.436.692-60.83.692s-40.779-.343-60.83-.692c-12.781,0-25.577-.344-38.014-1.036-41.82-1.386-82.6-3.458-121.655-6.567q-19.709-1.555-38.368-3.109c-43.2-4.146-83.98-8.984-121.655-14.859-13.13-2.073-25.577-4.146-38.014-6.567-46.315-7.948-87.443-17.624-121.655-28.686-13.827-4.146-26.613-8.984-38.367-13.479-48.727-19.7-76.377-42.165-76.377-66.012V90.782c0,23.848,27.649,46.66,76.377,66.361,11.754,4.494,24.54,9.328,38.367,13.479,34.217,10.713,75.34,20.39,121.655,28.686,12.437,2.073,24.884,4.146,38.014,6.218,37.675,5.875,78.454,10.713,121.655,14.859q18.67,1.555,38.368,3.109c39.05,3.11,79.834,5.187,121.655,6.567,12.437.693,25.228,1.037,38.014,1.037,20.046.344,40.44.693,60.83.693s40.784-.344,60.83-.693q19.186,0,38.367-1.037c42.165-1.38,82.6-3.458,121.655-6.567,13.13-1.036,25.577-2.072,38.014-3.109,43.2-4.146,83.985-8.984,121.655-14.859q20.226-3.109,38.368-6.218c46.31-8.3,87.443-17.973,121.655-28.686a370.59,370.59,0,0,0,38.014-13.479C1322.351,137.442,1350,114.978,1350,90.782Z" transform="translate(152.857 319.609)"/>
    <g id="Group_874" data-name="Group 874" transform="translate(269.018 476.752)">
      <path id="Path_766" data-name="Path 766" class="cls-3" d="M93.913,117.963V282.127c-13.827-4.146-26.613-8.985-38.367-13.479V104.484C67.3,108.979,80.086,113.812,93.913,117.963Z" transform="translate(-55.546 -104.484)"/>
      <path id="Path_767" data-name="Path 767" class="cls-3" d="M126.6,119.408V283.921c-13.13-2.073-25.577-4.146-38.014-6.567V113.19C101.029,115.263,113.475,117.336,126.6,119.408Z" transform="translate(71.432 -71.025)"/>
      <path id="Path_768" data-name="Path 768" class="cls-3" d="M159.921,120.652V285.165q-19.709-1.554-38.367-3.109V117.543Q140.224,119.1,159.921,120.652Z" transform="translate(198.133 -54.296)"/>
      <path id="Path_769" data-name="Path 769" class="cls-3" d="M192.609,120.577V285.09c-12.782,0-25.577-.344-38.014-1.037V119.541C167.036,120.233,179.827,120.577,192.609,120.577Z" transform="translate(325.114 -46.617)"/>
      <path id="Path_770" data-name="Path 770" class="cls-3" d="M225.93,119.541V284.054q-19.186,1.031-38.367,1.037V120.577Q206.756,120.577,225.93,119.541Z" transform="translate(451.815 -46.617)"/>
      <path id="Path_771" data-name="Path 771" class="cls-3" d="M258.619,117.543V282.056c-12.438,1.036-24.885,2.073-38.015,3.109V120.652C233.734,119.616,246.181,118.579,258.619,117.543Z" transform="translate(578.797 -54.296)"/>
      <path id="Path_772" data-name="Path 772" class="cls-3" d="M291.94,113.19V277.354c-12.1,2.422-24.885,4.494-38.368,6.567V119.408Q273.8,116.3,291.94,113.19Z" transform="translate(705.498 -71.025)"/>
      <path id="Path_773" data-name="Path 773" class="cls-3" d="M324.626,104.484V268.648a371.707,371.707,0,0,1-38.013,13.479V117.963A371.755,371.755,0,0,0,324.626,104.484Z" transform="translate(832.48 -104.484)"/>
    </g>
    <path id="Path_774" data-name="Path 774" class="cls-2" d="M1310.245,35.165V199.329c0,24.192-27.65,46.659-76.73,66.356a370.625,370.625,0,0,1-38.019,13.478,27.359,27.359,0,0,1-4.838,1.729c-12.093,3.453-25.577,7.26-39.748,10.713-23.5,5.875-49.075,11.406-77.069,16.244q-18.663,3.109-38.363,6.219c-5.531.688-11.057,1.729-16.588,2.422-12.786,2.073-25.921,3.8-39.748,5.531-21.082,2.422-42.857,4.838-65.319,6.567-12.442,1.38-25.228,2.422-38.019,3.453q-14.515,1.039-29.035,2.073c-13.13,1.036-26.264,1.729-39.743,2.421-17.28.693-34.909,1.729-52.877,2.073-12.786.344-25.577.693-38.363.693-13.479.692-26.952.692-40.784.692-6.563.344-13.13.344-20.046.344-6.567,0-13.135,0-19.7-.344-13.827,0-27.65,0-41.128-.692-12.786,0-25.577-.344-38.019-.693-17.973-.344-35.946-1.38-53.226-2.073-13.474-.688-26.957-1.38-39.743-2.421-9.677-.688-19.358-1.38-28.691-2.073-13.135-1.036-25.92-2.073-38.362-3.453-22.467-1.729-44.237-4.146-64.976-6.567-13.822-1.729-26.957-3.453-39.743-5.531-5.88-.692-11.406-1.729-16.937-2.422-13.135-2.073-25.921-4.146-38.019-6.219-28-5.187-53.919-10.369-77.418-16.244-14.171-3.453-27.306-7.26-39.748-11.062-1.38-.344-3.109-1.036-4.494-1.38q-20.733-6.742-38.363-13.478C27.677,245.988.027,223.525.027,199.329V35.165c0,25.921,32.488,50.112,88.823,70.851,7.948,2.766,16.588,5.875,25.921,8.64,1.385.344,3.114,1.036,4.494,1.38,12.442,3.8,25.577,7.6,39.748,11.062,23.5,5.875,49.42,11.406,77.418,16.244,12.093,2.073,24.884,4.146,38.019,6.219,5.531.693,11.057,1.729,16.937,2.422,12.781,2.073,25.921,3.8,39.743,5.531,20.738,2.422,42.508,4.838,64.976,6.567,12.442,1.385,25.228,2.422,38.363,3.458,9.333.688,19.009,1.38,28.691,2.073,12.781,1.036,26.269,1.729,39.743,2.417,17.281.693,35.253,1.729,53.226,2.078,12.442.344,25.228.688,38.019.688,13.478.692,27.306.692,41.128.692,6.562.344,13.13.344,19.7.344,6.916,0,13.479,0,20.046-.344,13.827,0,27.306,0,40.784-.692,12.786,0,25.577-.344,38.363-.688,17.973-.344,35.6-1.385,52.877-2.078,13.479-.688,26.613-1.38,39.743-2.417q14.515-1.039,29.035-2.073c12.786-1.036,25.577-2.073,38.019-3.458,22.467-1.729,44.237-4.146,65.319-6.567,13.827-1.729,26.957-3.453,39.748-5.531,5.531-.693,11.057-1.729,16.588-2.422q19.7-3.109,38.363-6.219c28-4.838,53.57-10.369,77.069-16.244,14.171-3.453,27.649-7.255,39.748-10.713a26.971,26.971,0,0,0,4.838-1.729c8.984-2.765,17.624-5.531,25.577-8.64C1277.757,85.277,1310.245,61.086,1310.245,35.165Z" transform="translate(0.104 105.863)"/>
    <g id="Group_875" data-name="Group 875" transform="translate(76.512 181.464)">
      <path id="Path_775" data-name="Path 775" class="cls-3" d="M54.161,49.794V222.947Q33.427,216.205,15.8,209.469V49.794Z" transform="translate(-15.798 -19.379)"/>
      <path id="Path_776" data-name="Path 776" class="cls-3" d="M86.857,45.869V272.936c-13.135-2.073-25.92-4.146-38.019-6.219V45.869Z" transform="translate(111.18 -34.463)"/>
      <path id="Path_777" data-name="Path 777" class="cls-3" d="M120.17,43.942V298.315c-13.134-1.037-25.921-2.073-38.363-3.453V43.942Z" transform="translate(237.885 -41.869)"/>
      <path id="Path_778" data-name="Path 778" class="cls-3" d="M152.865,43.514v263.7c-12.786,0-25.576-.344-38.018-.693V43.514Z" transform="translate(364.862 -43.514)"/>
      <path id="Path_779" data-name="Path 779" class="cls-3" d="M186.178,43.942V304.883c-12.785.344-25.576.692-38.362.692V43.947h38.362Z" transform="translate(491.567 -41.869)"/>
      <path id="Path_780" data-name="Path 780" class="cls-3" d="M218.875,45.869V287.452c-12.442,1.38-25.228,2.421-38.019,3.453V45.869Z" transform="translate(618.544 -34.463)"/>
      <path id="Path_781" data-name="Path 781" class="cls-3" d="M252.187,49.794V251.633q-18.662,3.109-38.362,6.218V49.794Z" transform="translate(745.25 -19.379)"/>
      <path id="Path_782" data-name="Path 782" class="cls-3" d="M284.883,49.794V209.469a370.751,370.751,0,0,1-38.019,13.478V49.794Z" transform="translate(872.223 -19.379)"/>
    </g>
    <path id="Path_783" data-name="Path 783" class="cls-1" d="M655.073,6.046C293.295,6.046.013,69.143.013,146.978S293.295,287.9,655.073,287.9s655.07-63.1,655.07-140.927S1016.852,6.046,655.073,6.046Z" transform="translate(0.05 -6.046)"/>
    <path id="Path_784" data-name="Path 784" class="cls-2" d="M601.492,13.736c-324.486,0-587.537,46.422-587.537,103.683S277.006,221.1,601.492,221.1s587.542-46.422,587.542-103.683S925.983,13.736,601.492,13.736Z" transform="translate(53.631 23.508)"/>
  </g>
</svg>
