<svg id="Group_1149" data-name="Group 1149" xmlns="http://www.w3.org/2000/svg" viewBox="0 0 1565.948 1525.52">
  <defs>
    <style>
      .cls-1 {
        fill: #fcd462;
      }

      .cls-2 {
        fill: #f6c358;
      }

      .cls-3 {
        fill: #dc8744;
      }

      .cls-4 {
        fill: #FA8100;
      }

      .cls-5 {
        fill: #b5794a;
      }
    </style>
  </defs>
  <g id="bitcoin_1_" data-name="bitcoin (1)" transform="translate(0)">
    <ellipse id="Ellipse_60" data-name="Ellipse 60" class="cls-1" cx="452.274" cy="97.297" rx="452.274" ry="97.297" transform="translate(0 744.671)"/>
    <path id="Path_736" data-name="Path 736" class="cls-2" d="M452.287,355.14C202.5,355.14.013,311.576.013,257.837V371.355c0,53.739,202.491,97.3,452.274,97.3s452.274-43.564,452.274-97.3V257.837C904.562,311.576,702.071,355.14,452.287,355.14Z" transform="translate(0.03 584.121)"/>
    <g id="Group_871" data-name="Group 871" transform="translate(52.867 888.127)">
      <path id="Path_737" data-name="Path 737" class="cls-3" d="M42.3,280.949V394.293c-9.547-2.863-18.375-6.2-26.49-9.3V271.644C23.926,274.747,32.753,278.087,42.3,280.949Z" transform="translate(-15.81 -271.644)"/>
      <path id="Path_738" data-name="Path 738" class="cls-3" d="M75.1,284.647V398.232c-9.065-1.432-17.659-2.862-26.246-4.535V280.35C57.438,281.785,66.032,283.216,75.1,284.647Z" transform="translate(61.634 -251.239)"/>
      <path id="Path_739" data-name="Path 739" class="cls-3" d="M108.309,286.851V400.436q-13.608-1.075-26.49-2.148V284.7Q94.7,285.778,108.309,286.851Z" transform="translate(138.906 -241.033)"/>
      <path id="Path_740" data-name="Path 740" class="cls-3" d="M141.1,287.418V401c-8.824,0-17.659-.238-26.246-.716V286.7C123.449,287.182,132.281,287.418,141.1,287.418Z" transform="translate(216.347 -236.349)"/>
      <path id="Path_741" data-name="Path 741" class="cls-3" d="M174.317,286.7V400.287q-13.246.713-26.49.716V287.418Q161.079,287.418,174.317,286.7Z" transform="translate(293.62 -236.349)"/>
      <path id="Path_742" data-name="Path 742" class="cls-3" d="M207.114,284.7V398.288c-8.586.714-17.181,1.431-26.246,2.147V286.85C189.933,286.137,198.527,285.422,207.114,284.7Z" transform="translate(371.063 -241.036)"/>
      <path id="Path_743" data-name="Path 743" class="cls-3" d="M240.326,280.35V393.694c-8.353,1.672-17.181,3.1-26.49,4.535V284.644Q227.8,282.5,240.326,280.35Z" transform="translate(448.336 -251.239)"/>
      <path id="Path_744" data-name="Path 744" class="cls-3" d="M273.123,271.645V384.989a256.884,256.884,0,0,1-26.246,9.3V280.95A257.55,257.55,0,0,0,273.123,271.645Z" transform="translate(525.78 -271.642)"/>
    </g>
    <ellipse id="Ellipse_61" data-name="Ellipse 61" class="cls-1" cx="452.274" cy="97.297" rx="452.274" ry="97.297" transform="translate(132.979 558.474)"/>
    <path id="Path_745" data-name="Path 745" class="cls-2" d="M944.393,202.132V315.716c0,16.465-19.087,31.978-52.977,45.578A256.676,256.676,0,0,1,865.17,370.6c-23.624,7.638-52.021,14.319-83.994,19.806-8.353,1.672-17.181,3.1-26.49,4.535-26.008,4.056-54.167,7.4-83.994,10.259-8.587.716-17.181,1.431-26.246,2.147-26.968,2.146-54.883,3.578-83.995,4.534q-13.247.713-26.49.716c-13.84.237-27.918.479-42,.479s-28.155-.237-42-.479c-8.824,0-17.659-.237-26.246-.716-28.874-.956-57.033-2.387-83.994-4.534q-13.608-1.074-26.49-2.147c-29.827-2.862-57.982-6.2-83.994-10.259-9.065-1.432-17.659-2.863-26.246-4.535C171.014,384.918,142.618,378.237,119,370.6c-9.547-2.862-18.375-6.2-26.49-9.306-33.643-13.6-52.733-29.112-52.733-45.578V202.132c0,16.465,19.09,32.215,52.733,45.818,8.115,3.1,16.943,6.44,26.49,9.306,23.624,7.4,52.017,14.078,83.994,19.805,8.587,1.431,17.181,2.863,26.246,4.294,26.012,4.056,54.167,7.4,83.994,10.259q12.891,1.074,26.49,2.146c26.961,2.147,55.12,3.582,83.994,4.535,8.587.478,17.418.715,26.246.715,13.84.238,27.921.478,42,.478s28.159-.237,42-.478q13.247,0,26.49-.715c29.112-.953,57.026-2.388,83.995-4.535,9.065-.716,17.659-1.431,26.246-2.146,29.827-2.862,57.986-6.2,83.994-10.259q13.964-2.146,26.49-4.294c31.974-5.727,60.373-12.409,83.994-19.805a255.99,255.99,0,0,0,26.246-9.306C925.306,234.347,944.393,218.838,944.393,202.132Z" transform="translate(93.225 453.555)"/>
    <g id="Group_872" data-name="Group 872" transform="translate(185.738 701.505)">
      <path id="Path_746" data-name="Path 746" class="cls-3" d="M82.036,225.14V338.484c-9.547-2.863-18.375-6.2-26.49-9.307V215.834C63.662,218.936,72.489,222.274,82.036,225.14Z" transform="translate(-55.546 -215.834)"/>
      <path id="Path_747" data-name="Path 747" class="cls-3" d="M114.832,228.834V342.418c-9.065-1.431-17.659-2.862-26.246-4.535V224.54C97.177,225.972,105.77,227.4,114.832,228.834Z" transform="translate(21.895 -195.428)"/>
      <path id="Path_748" data-name="Path 748" class="cls-3" d="M148.044,231.04V344.624q-13.608-1.074-26.49-2.146V228.893Q134.445,229.966,148.044,231.04Z" transform="translate(99.168 -185.225)"/>
      <path id="Path_749" data-name="Path 749" class="cls-3" d="M180.841,231.606V345.191c-8.825,0-17.659-.237-26.246-.716V230.891C163.185,231.369,172.016,231.606,180.841,231.606Z" transform="translate(176.611 -180.543)"/>
      <path id="Path_750" data-name="Path 750" class="cls-3" d="M214.053,230.891V344.475q-13.247.712-26.49.716V231.606Q200.814,231.606,214.053,230.891Z" transform="translate(253.884 -180.543)"/>
      <path id="Path_751" data-name="Path 751" class="cls-3" d="M246.851,228.893V342.477c-8.588.716-17.181,1.431-26.247,2.147V231.04C229.669,230.324,238.263,229.608,246.851,228.893Z" transform="translate(331.327 -185.225)"/>
      <path id="Path_752" data-name="Path 752" class="cls-3" d="M280.062,224.54V337.884c-8.353,1.672-17.182,3.1-26.49,4.535V228.834Q267.535,226.687,280.062,224.54Z" transform="translate(408.6 -195.428)"/>
      <path id="Path_753" data-name="Path 753" class="cls-3" d="M312.859,215.834V329.178a256.7,256.7,0,0,1-26.246,9.307V225.14A256.706,256.706,0,0,0,312.859,215.834Z" transform="translate(486.044 -215.834)"/>
    </g>
    <ellipse id="Ellipse_62" data-name="Ellipse 62" class="cls-1" cx="452.274" cy="97.297" rx="452.274" ry="97.297" transform="translate(0 372.317)"/>
    <path id="Path_754" data-name="Path 754" class="cls-2" d="M452.287,243.791C202.5,243.791.013,200.226.013,146.487V260c0,53.739,202.491,97.3,452.274,97.3S904.562,313.741,904.562,260V146.487C904.562,200.226,702.071,243.791,452.287,243.791Z" transform="translate(0.03 323.13)"/>
    <g id="Group_873" data-name="Group 873" transform="translate(52.867 515.786)">
      <path id="Path_755" data-name="Path 755" class="cls-3" d="M42.3,169.6V282.944c-9.547-2.862-18.375-6.2-26.49-9.306V160.294C23.926,163.4,32.753,166.737,42.3,169.6Z" transform="translate(-15.81 -160.294)"/>
      <path id="Path_756" data-name="Path 756" class="cls-3" d="M75.1,173.295V286.879c-9.065-1.431-17.659-2.862-26.246-4.534V169C57.438,170.432,66.032,171.863,75.1,173.295Z" transform="translate(61.634 -139.885)"/>
      <path id="Path_757" data-name="Path 757" class="cls-3" d="M108.309,175.5V289.086q-13.608-1.074-26.49-2.147V173.354Q94.7,174.428,108.309,175.5Z" transform="translate(138.906 -129.683)"/>
      <path id="Path_758" data-name="Path 758" class="cls-3" d="M141.1,176.068V289.652c-8.824,0-17.659-.237-26.246-.716V175.352C123.449,175.83,132.281,176.068,141.1,176.068Z" transform="translate(216.347 -125)"/>
      <path id="Path_759" data-name="Path 759" class="cls-3" d="M174.317,175.352V288.937q-13.246.712-26.49.716V176.067Q161.079,176.067,174.317,175.352Z" transform="translate(293.62 -125)"/>
      <path id="Path_760" data-name="Path 760" class="cls-3" d="M207.114,173.353V286.937c-8.586.715-17.181,1.431-26.246,2.147V175.5C189.933,174.787,198.527,174.072,207.114,173.353Z" transform="translate(371.063 -129.685)"/>
      <path id="Path_761" data-name="Path 761" class="cls-3" d="M240.326,169V282.345c-8.353,1.672-17.181,3.1-26.49,4.534V173.295Q227.8,171.148,240.326,169Z" transform="translate(448.336 -139.885)"/>
      <path id="Path_762" data-name="Path 762" class="cls-3" d="M273.123,160.295V273.639a256.644,256.644,0,0,1-26.246,9.306V169.6A257.325,257.325,0,0,0,273.123,160.295Z" transform="translate(525.78 -160.292)"/>
    </g>
    <ellipse id="Ellipse_63" data-name="Ellipse 63" class="cls-2" cx="448.934" cy="448.935" rx="448.934" ry="448.935" transform="translate(668.081 627.649)"/>
    <ellipse id="Ellipse_64" data-name="Ellipse 64" class="cls-1" cx="383.083" cy="383.085" rx="383.083" ry="383.085" transform="translate(733.931 693.5)"/>
    <path id="Path_763" data-name="Path 763" class="cls-2" d="M569.212,898.174a337.384,337.384,0,0,1-65.2-6.3l4.972-25.292a312.073,312.073,0,0,0,60.032,5.817l.308,23.3-.006,2.474Zm65.494-6.427-5.037-25.293a308.413,308.413,0,0,0,57.994-17.619l9.894,23.809A334.146,334.146,0,0,1,634.706,891.747ZM441.113,872.911a334.463,334.463,0,0,1-57.946-30.935l14.315-21.441A309.446,309.446,0,0,0,450.96,849.08Zm314.33-31.32-14.352-21.417a311.373,311.373,0,0,0,46.831-38.521l18.244,18.218A336.543,336.543,0,0,1,755.443,841.592ZM332.356,800.373a337.966,337.966,0,0,1-41.768-50.664l21.4-14.392a312.17,312.17,0,0,0,38.572,46.8Zm515.468-51.256L826.4,734.776A309.457,309.457,0,0,0,855,681.324l23.822,9.871A335.711,335.711,0,0,1,847.824,749.117ZM259.478,691.85a333.183,333.183,0,0,1-19.164-62.838l25.283-5.049a307.778,307.778,0,0,0,17.675,57.966Zm638.367-63.527-25.292-5a312.182,312.182,0,0,0,5.879-60.354v-1.354h25.784v1.354A337.662,337.662,0,0,1,897.844,628.324ZM233.8,563.653v-.679a337.754,337.754,0,0,1,6.233-64.657l25.307,4.949a312.1,312.1,0,0,0-5.755,59.711Zm638.5-62.31a307.749,307.749,0,0,0-17.809-57.922l23.781-9.971a332.814,332.814,0,0,1,19.294,62.794Zm-589.52-56.12L258.935,435.4A334.887,334.887,0,0,1,289.8,377.415l21.468,14.292A308.723,308.723,0,0,0,282.78,445.222Zm542.89-55.14A312.2,312.2,0,0,0,787,343.372l18.168-18.295a337.685,337.685,0,0,1,41.867,50.577ZM349.641,344.749l-18.28-18.181a337.65,337.65,0,0,1,50.633-41.825l14.4,21.391A311.637,311.637,0,0,0,349.641,344.749ZM740,305.047a308.88,308.88,0,0,0-53.544-28.43l9.794-23.858a335.449,335.449,0,0,1,58.016,30.808ZM449.753,277.367l-9.947-23.795a333.827,333.827,0,0,1,62.808-19.224l5.086,25.283A306.961,306.961,0,0,0,449.753,277.367ZM628.4,259.243a311.95,311.95,0,0,0-59.39-5.691l-.712-17.98.471-7.8a349.723,349.723,0,0,1,64.55,6.169Z" transform="translate(548.003 513.64)"/>
    <ellipse id="Ellipse_65" data-name="Ellipse 65" class="cls-1" cx="452.274" cy="97.297" rx="452.274" ry="97.297" transform="translate(132.979 186.1)"/>
    <path id="Path_765" data-name="Path 765" class="cls-2" d="M944.393,90.782V204.367c0,16.465-19.087,31.977-52.977,45.577a256.71,256.71,0,0,1-26.246,9.306c-23.624,7.637-52.021,14.318-83.994,19.806-8.353,1.672-17.181,3.1-26.49,4.534-26.008,4.056-54.167,7.4-83.994,10.259-8.587.715-17.181,1.431-26.246,2.147-26.968,2.147-54.883,3.578-83.995,4.534q-13.247.712-26.49.715c-13.84.238-27.918.478-42,.478s-28.155-.237-42-.478c-8.824,0-17.659-.237-26.246-.715-28.874-.957-57.033-2.388-83.994-4.534q-13.608-1.073-26.49-2.147c-29.827-2.863-57.982-6.2-83.994-10.259-9.065-1.431-17.659-2.862-26.246-4.534-31.977-5.487-60.373-12.168-83.994-19.806-9.547-2.862-18.375-6.2-26.49-9.306-33.643-13.6-52.733-29.112-52.733-45.577V90.782c0,16.465,19.09,32.215,52.733,45.818,8.115,3.1,16.943,6.44,26.49,9.306,23.624,7.4,52.017,14.078,83.994,19.806,8.587,1.431,17.181,2.862,26.246,4.293,26.012,4.056,54.167,7.4,83.994,10.259q12.891,1.073,26.49,2.146c26.961,2.147,55.12,3.581,83.994,4.534,8.587.479,17.418.716,26.246.716,13.84.238,27.921.478,42,.478s28.159-.237,42-.478q13.247,0,26.49-.716c29.112-.953,57.026-2.387,83.995-4.534,9.065-.715,17.659-1.431,26.246-2.146,29.827-2.863,57.986-6.2,83.994-10.259q13.964-2.146,26.49-4.293c31.974-5.728,60.373-12.409,83.994-19.806a255.874,255.874,0,0,0,26.246-9.306C925.306,123,944.393,107.488,944.393,90.782Z" transform="translate(93.225 192.565)"/>
    <g id="Group_874" data-name="Group 874" transform="translate(185.738 329.164)">
      <path id="Path_766" data-name="Path 766" class="cls-3" d="M82.036,113.79V227.134c-9.547-2.862-18.375-6.2-26.49-9.306V104.484C63.662,107.587,72.489,110.924,82.036,113.79Z" transform="translate(-55.546 -104.484)"/>
      <path id="Path_767" data-name="Path 767" class="cls-3" d="M114.832,117.483V231.068c-9.065-1.431-17.659-2.862-26.246-4.534V113.19C97.177,114.621,105.77,116.052,114.832,117.483Z" transform="translate(21.895 -84.078)"/>
      <path id="Path_768" data-name="Path 768" class="cls-3" d="M148.044,119.69V233.274q-13.608-1.073-26.49-2.146V117.543Q134.445,118.616,148.044,119.69Z" transform="translate(99.168 -73.875)"/>
      <path id="Path_769" data-name="Path 769" class="cls-3" d="M180.841,120.256V233.841c-8.825,0-17.659-.238-26.246-.716V119.541C163.185,120.019,172.016,120.256,180.841,120.256Z" transform="translate(176.611 -69.192)"/>
      <path id="Path_770" data-name="Path 770" class="cls-3" d="M214.053,119.541V233.126q-13.247.712-26.49.716V120.256Q200.814,120.256,214.053,119.541Z" transform="translate(253.884 -69.192)"/>
      <path id="Path_771" data-name="Path 771" class="cls-3" d="M246.851,117.543V231.128c-8.588.715-17.181,1.431-26.247,2.146V119.69C229.669,118.974,238.263,118.258,246.851,117.543Z" transform="translate(331.327 -73.875)"/>
      <path id="Path_772" data-name="Path 772" class="cls-3" d="M280.062,113.19V226.534c-8.353,1.672-17.182,3.1-26.49,4.534V117.483Q267.535,115.337,280.062,113.19Z" transform="translate(408.6 -84.078)"/>
      <path id="Path_773" data-name="Path 773" class="cls-3" d="M312.859,104.484V217.828a256.635,256.635,0,0,1-26.246,9.306V113.79A256.674,256.674,0,0,0,312.859,104.484Z" transform="translate(486.044 -104.484)"/>
    </g>
    <path id="Path_774" data-name="Path 774" class="cls-2" d="M904.643,35.165V148.509c0,16.7-19.09,32.215-52.977,45.814a255.9,255.9,0,0,1-26.249,9.306,18.889,18.889,0,0,1-3.34,1.194c-8.35,2.384-17.659,5.012-27.443,7.4-16.224,4.056-33.883,7.875-53.211,11.215q-12.886,2.147-26.487,4.293c-3.819.475-7.634,1.194-11.453,1.672-8.828,1.431-17.9,2.625-27.443,3.819-14.556,1.672-29.59,3.341-45.1,4.534-8.59.953-17.418,1.672-26.249,2.384q-10.021.717-20.046,1.431c-9.065.715-18.134,1.194-27.44,1.672-11.931.478-24.1,1.194-36.508,1.431-8.828.237-17.659.478-26.487.478-9.306.478-18.609.478-28.159.478-4.531.237-9.065.237-13.84.237-4.534,0-9.069,0-13.6-.237-9.547,0-19.09,0-28.4-.478-8.828,0-17.659-.237-26.249-.478-12.409-.237-24.818-.953-36.749-1.431-9.3-.475-18.612-.953-27.44-1.672-6.681-.475-13.365-.953-19.809-1.431-9.069-.715-17.9-1.431-26.487-2.384-15.512-1.194-30.543-2.862-44.861-4.534-9.543-1.194-18.612-2.384-27.44-3.819-4.059-.478-7.875-1.194-11.694-1.672-9.069-1.431-17.9-2.862-26.249-4.293-19.331-3.581-37.227-7.159-53.452-11.215-9.784-2.384-18.853-5.013-27.443-7.637-.953-.237-2.147-.716-3.1-.953q-14.315-4.655-26.487-9.306C19.117,180.724.027,165.215.027,148.509V35.165c0,17.9,22.431,34.6,61.326,48.918,5.487,1.909,11.453,4.056,17.9,5.965.956.237,2.15.716,3.1.953,8.59,2.625,17.659,5.25,27.443,7.638,16.224,4.056,34.121,7.875,53.452,11.215,8.35,1.431,17.181,2.862,26.249,4.294,3.819.478,7.634,1.194,11.694,1.672,8.824,1.431,17.9,2.625,27.44,3.819,14.318,1.672,29.349,3.34,44.861,4.534,8.59.956,17.418,1.672,26.487,2.388,6.444.475,13.125.953,19.809,1.431,8.824.715,18.137,1.194,27.44,1.669,11.931.478,24.34,1.194,36.749,1.434,8.59.238,17.418.475,26.249.475,9.306.478,18.853.478,28.4.478,4.531.237,9.065.237,13.6.237,4.775,0,9.306,0,13.84-.237,9.547,0,18.853,0,28.159-.478,8.828,0,17.659-.237,26.487-.475,12.409-.237,24.577-.956,36.508-1.434,9.306-.475,18.375-.953,27.44-1.669q10.021-.717,20.047-1.431c8.828-.716,17.659-1.431,26.249-2.388,15.512-1.194,30.543-2.862,45.1-4.534,9.547-1.194,18.612-2.384,27.443-3.819,3.819-.478,7.634-1.194,11.453-1.672q13.6-2.147,26.487-4.294c19.331-3.341,36.987-7.159,53.211-11.215,9.784-2.384,19.09-5.009,27.443-7.4a18.624,18.624,0,0,0,3.34-1.194c6.2-1.909,12.168-3.819,17.659-5.965C882.212,69.764,904.643,53.061,904.643,35.165Z" transform="translate(0.063 62.205)"/>
    <g id="Group_875" data-name="Group 875" transform="translate(52.826 125.288)">
      <path id="Path_775" data-name="Path 775" class="cls-3" d="M42.285,49.794v119.55Q27.97,164.689,15.8,160.038V49.794Z" transform="translate(-15.798 -28.794)"/>
      <path id="Path_776" data-name="Path 776" class="cls-3" d="M75.087,45.869V202.643c-9.069-1.431-17.9-2.862-26.249-4.293V45.869Z" transform="translate(61.643 -37.994)"/>
      <path id="Path_777" data-name="Path 777" class="cls-3" d="M108.294,43.942V219.569c-9.068-.716-17.9-1.431-26.487-2.384V43.942Z" transform="translate(138.918 -42.511)"/>
      <path id="Path_778" data-name="Path 778" class="cls-3" d="M141.1,43.514V225.581c-8.828,0-17.659-.237-26.249-.478V43.514Z" transform="translate(216.359 -43.514)"/>
      <path id="Path_779" data-name="Path 779" class="cls-3" d="M174.3,43.942V224.1c-8.827.237-17.659.478-26.486.478V43.945H174.3Z" transform="translate(293.634 -42.511)"/>
      <path id="Path_780" data-name="Path 780" class="cls-3" d="M207.105,45.869v166.8c-8.591.953-17.418,1.672-26.25,2.384V45.869Z" transform="translate(371.075 -37.994)"/>
      <path id="Path_781" data-name="Path 781" class="cls-3" d="M240.312,49.794V189.15q-12.885,2.147-26.487,4.293V49.794Z" transform="translate(448.35 -28.794)"/>
      <path id="Path_782" data-name="Path 782" class="cls-3" d="M273.113,49.794V160.038a255.98,255.98,0,0,1-26.249,9.306V49.794Z" transform="translate(525.789 -28.794)"/>
    </g>
    <path id="Path_783" data-name="Path 783" class="cls-1" d="M452.287,6.046C202.5,6.046.013,49.61.013,103.349s202.491,97.3,452.274,97.3,452.281-43.564,452.281-97.3S702.071,6.046,452.287,6.046Z" transform="translate(0.03 -6.046)"/>
    <path id="Path_784" data-name="Path 784" class="cls-2" d="M419.609,13.736c-224.035,0-405.654,32.051-405.654,71.586s181.619,71.586,405.654,71.586,405.657-32.051,405.657-71.586S643.648,13.736,419.609,13.736Z" transform="translate(32.709 11.978)"/>
  </g>
  <g id="Group_876" data-name="Group 876" transform="translate(982.867 812.981)">
    <path id="Path_786" data-name="Path 786" class="cls-4" d="M377.635,343.493l-139.29-68.775V123.586Z" transform="translate(-99.054 -123.586)"/>
    <path id="Path_787" data-name="Path 787" class="cls-3" d="M307.015,123.586V274.718L167.724,343.493Z" transform="translate(-167.724 -123.586)"/>
    <path id="Path_788" data-name="Path 788" class="cls-4" d="M377.635,276.921,238.345,496.828V345.7Z" transform="translate(-99.054 25.515)"/>
    <path id="Path_789" data-name="Path 789" class="cls-3" d="M307.015,345.7V496.828L167.724,276.921Z" transform="translate(-167.724 25.515)"/>
    <path id="Path_790" data-name="Path 790" class="cls-5" d="M446.306,268.985,307.015,337.708,167.724,268.985l139.291-68.74Z" transform="translate(-167.724 -49.044)"/>
  </g>
</svg>
