<svg xmlns="http://www.w3.org/2000/svg" viewBox="0 0 2518.368 2433">
  <defs>
    <style>
      .cls-1 {
        fill: #ecf0f1;
      }

      .cls-2 {
        fill: #b1d1ff;
      }

      .cls-3 {
        fill: #26b999;
      }

      .cls-4 {
        fill: #fff;
      }
    </style>
  </defs>
  <g id="KYC_-_Yes" data-name="KYC - Yes" transform="translate(0 -1)">
    <g id="Group_1306" data-name="Group 1306" transform="translate(0 1)">
      <path id="Path_1290" data-name="Path 1290" class="cls-1" d="M401.108,1441.1,63.6,1625.2C43.8,1636,26,1649.271,9.437,1663.741c196.774,165.914,450.788,266.008,728.321,266.008,275.484,0,527.876-98.6,724.1-262.252-18.1-15.281-37.733-29.025-59.5-39.867l-361.407-180.682a137.822,137.822,0,0,1-76.191-123.272v-141.8a545.824,545.824,0,0,0,34.19-43.965c49.258-69.575,86.521-146.108,112.345-226.4,46.355-14.3,80.5-57.111,80.5-107.991V652.167c0-33.294-14.812-63.045-37.818-83.875v-218.8S1198.919,9,737.8,9,321.629,349.493,321.629,349.493v218.8c-23.049,20.83-37.818,50.581-37.818,83.875V803.526c0,39.867,20.958,74.954,52.331,95.229,37.818,164.633,136.846,283.125,136.846,283.125v138.3A137.965,137.965,0,0,1,401.108,1441.1Z" transform="translate(393.372 332.513)"/>
      <g id="Group_1305" data-name="Group 1305">
        <path id="Path_1291" data-name="Path 1291" class="cls-2" d="M1150.466,1.169C525.868-9.5,10.84,488.153.169,1112.794c-6.061,354.108,151.785,672.4,403.11,884.119,16.433-14.342,34.062-27.489,53.654-38.16l337.5-184.1a137.874,137.874,0,0,0,71.838-121.01v-138.3s-99.07-118.491-136.846-283.125C698.1,1211.95,677.1,1176.906,677.1,1137V985.638c0-33.294,14.811-63.045,37.818-83.875v-218.8S669.97,342.472,1131.088,342.472s416.172,340.492,416.172,340.492v218.8c23.049,20.83,37.818,50.581,37.818,83.875V1137c0,50.88-34.147,93.692-80.5,107.991-25.824,80.289-63.087,156.822-112.345,226.4a545.849,545.849,0,0,1-34.19,43.965v141.8a137.774,137.774,0,0,0,76.192,123.272L1795.639,1961.1c21.683,10.842,41.276,24.543,59.331,39.782,243.727-203.262,401.189-507.174,407.037-849.417C2272.763,526.868,1775.108,11.84,1150.466,1.169Z" transform="translate(0 -1)"/>
      </g>
    </g>
    <g id="Group_1307" data-name="Group 1307" transform="translate(1493.947 1409.578)">
      <circle id="Ellipse_144" data-name="Ellipse 144" class="cls-3" cx="512.211" cy="512.211" r="512.211"/>
      <path id="Path_1292" data-name="Path 1292" class="cls-4" d="M577.6,47.664a42.626,42.626,0,0,0-59.416,10.671L279.326,401.517,110.766,263.134a42.673,42.673,0,1,0-54.124,65.99L260.929,496.831a42.8,42.8,0,0,0,27.062,9.689,45.362,45.362,0,0,0,5.848-.384,42.905,42.905,0,0,0,29.2-17.885l265.24-381.128A42.767,42.767,0,0,0,577.6,47.664Z" transform="translate(215.086 216.082)"/>
    </g>
  </g>
</svg>
