<svg id="bitcoin_4_" data-name="bitcoin (4)" xmlns="http://www.w3.org/2000/svg" viewBox="0 0 2695.069 1186.407">
  <defs>
    <style>
      .cls-1 {
        fill: #b1d1ff;
      }

      .cls-2 {
        fill: #ebf0f3;
      }

      .cls-3 {
        fill: #f6c358;
      }

      .cls-4 {
        fill: #fcd462;
      }

      .cls-5 {
        fill: #c9dfff;
      }
    </style>
  </defs>
  <path id="Path_999" data-name="Path 999" class="cls-1" d="M861.932,231.821s-176.923-29.678-326.382-75.346c0,0,66.425,94.752,155.681,126.254,0,0-292.68-11.884-408.927-83.6,0,0,137,122.657,224.183,154.167,0,0-211.729-12.749-323.821-81.953,0,0,124.546,146.375,228.333,150.679,0,0-263.364-16.3-357.034-89.032,0,0,124.546,127.987,323.821,139.722,0,0-278.155,22.457-377.786-36.873,0,0,211.729,162.709,494.033,72.446C494.038,508.277,816.265,242.967,861.932,231.821Z" transform="translate(0.001 -10.273)"/>
  <path id="Path_1000" data-name="Path 1000" class="cls-2" d="M64.444,661.733,715.948,191.4l665.534-47.175,419.2,107.137,428.541,283.058,159.4,127.314L2157.8,840.6l-855.556,343.723-590.759-52.256L425.794,934.34Z" transform="translate(306.442 -68.527)"/>
  <ellipse id="Ellipse_110" data-name="Ellipse 110" class="cls-3" cx="526.831" cy="526.831" rx="526.831" ry="526.831" transform="translate(1006.126 68.888)"/>
  <ellipse id="Ellipse_111" data-name="Ellipse 111" class="cls-4" cx="449.535" cy="449.535" rx="449.535" ry="449.535" transform="translate(1083.422 146.184)"/>
  <path id="Path_1001" data-name="Path 1001" class="cls-3" d="M591.609,952.94a396.3,396.3,0,0,1-76.52-7.4l5.836-29.684a366.1,366.1,0,0,0,70.441,6.825l.364,27.349-.006,2.9A.794.794,0,0,1,591.609,952.94Zm76.859-7.54-5.911-29.683a361.847,361.847,0,0,0,68.054-20.678l11.614,27.941A392.422,392.422,0,0,1,668.468,945.4ZM441.286,923.3a392.743,392.743,0,0,1-68-36.3l16.8-25.162a363.245,363.245,0,0,0,62.754,33.495Zm368.861-36.752L793.3,861.41a365.715,365.715,0,0,0,54.955-45.2l21.408,21.381A394.993,394.993,0,0,1,810.147,886.544ZM313.668,838.172a396.925,396.925,0,0,1-49.017-59.448l25.114-16.886a366.209,366.209,0,0,0,45.263,54.914Zm604.888-60.146L893.412,761.2a362.925,362.925,0,0,0,33.557-62.725l27.953,11.584A393.448,393.448,0,0,1,918.556,778.026Zm-690.409-67.2a390.961,390.961,0,0,1-22.486-73.738l29.668-5.924a361.115,361.115,0,0,0,20.742,68.02Zm749.1-74.545-29.684-5.865a366.114,366.114,0,0,0,6.9-70.822V558h30.259v1.588A396.059,396.059,0,0,1,977.251,636.279ZM198.019,560.392v-.8a396.056,396.056,0,0,1,7.314-75.875l29.7,5.807a366.4,366.4,0,0,0-6.749,70.068Zm749.26-73.118a361.024,361.024,0,0,0-20.9-67.967l27.907-11.7a390.4,390.4,0,0,1,22.639,73.688Zm-691.785-65.86-27.981-11.522A392.653,392.653,0,0,1,263.73,341.85l25.191,16.77A361.892,361.892,0,0,0,255.494,421.413Zm637.065-64.7A366.082,366.082,0,0,0,847.18,301.9L868.5,280.431a395.955,395.955,0,0,1,49.131,59.346ZM333.954,303.515,312.5,282.179A396.235,396.235,0,0,1,371.914,233.1l16.9,25.1A365,365,0,0,0,333.954,303.515Zm458.069-46.587a362.31,362.31,0,0,0-62.833-33.364l11.493-28a393.477,393.477,0,0,1,68.082,36.153ZM451.432,224.444l-11.671-27.923a391.948,391.948,0,0,1,73.7-22.559l5.967,29.669A360.115,360.115,0,0,0,451.432,224.444Zm209.635-21.27a366.313,366.313,0,0,0-69.688-6.676l-.835-21.1.553-9.161a410.177,410.177,0,0,1,75.749,7.239Z" transform="translate(941.6 36.156)"/>
  <path id="Path_1003" data-name="Path 1003" class="cls-5" d="M1226.533,131.071c-641.806,0-1162.089,593.2-1162.089,593.2H2388.621S1868.333,131.071,1226.533,131.071Z" transform="translate(306.442 -131.071)"/>
  <path id="Path_1004" data-name="Path 1004" class="cls-1" d="M1226.533,827.35c-641.806,0-1162.089-593.2-1162.089-593.2H2388.621S1868.333,827.35,1226.533,827.35Z" transform="translate(306.442 359.058)"/>
</svg>
