<svg xmlns="http://www.w3.org/2000/svg" viewBox="0 0 2518.376 2433">
  <defs>
    <style>
      .cls-1 {
        fill: #ecf0f1;
      }

      .cls-2 {
        fill: #b1d1ff;
      }

      .cls-3 {
        fill: #ed7161;
      }

      .cls-4 {
        fill: #fff;
      }
    </style>
  </defs>
  <g id="KYC_-_No" data-name="KYC - No" transform="translate(0 -1)">
    <g id="Group_1309" data-name="Group 1309" transform="translate(0 1)">
      <path id="Path_1293" data-name="Path 1293" class="cls-1" d="M401.109,1441.1,63.6,1625.2C43.8,1636,26,1649.272,9.437,1663.742c196.775,165.914,450.79,266.008,728.323,266.008,275.485,0,527.878-98.6,724.1-262.252-18.1-15.281-37.733-29.025-59.5-39.867l-361.409-180.682a137.822,137.822,0,0,1-76.192-123.272v-141.8a545.8,545.8,0,0,0,34.19-43.965c49.258-69.575,86.521-146.108,112.345-226.4,46.355-14.3,80.5-57.112,80.5-107.991V652.167c0-33.294-14.812-63.045-37.818-83.875v-218.8S1198.923,9,737.8,9,321.63,349.493,321.63,349.493v218.8c-23.05,20.83-37.818,50.581-37.818,83.875V803.526c0,39.867,20.958,74.954,52.331,95.229,37.818,164.633,136.846,283.125,136.846,283.125v138.3A137.965,137.965,0,0,1,401.109,1441.1Z" transform="translate(393.373 332.513)"/>
      <g id="Group_1308" data-name="Group 1308">
        <path id="Path_1294" data-name="Path 1294" class="cls-2" d="M1150.47,1.169C525.869-9.5,10.84,488.153.169,1112.795c-6.061,354.151,151.786,672.448,403.111,884.119,16.434-14.342,34.062-27.489,53.654-38.16l337.505-184.1a137.874,137.874,0,0,0,71.838-121.01v-138.3s-99.07-118.492-136.846-283.125C698.1,1211.95,677.1,1176.906,677.1,1137V985.638c0-33.294,14.811-63.045,37.818-83.875v-218.8s-44.947-340.492,416.173-340.492,416.173,340.492,416.173,340.492v218.8c23.05,20.83,37.818,50.581,37.818,83.875V1137c0,50.88-34.147,93.692-80.5,107.991-25.824,80.289-63.088,156.822-112.345,226.4a545.834,545.834,0,0,1-34.19,43.965v141.8a137.775,137.775,0,0,0,76.192,123.272L1795.644,1961.1c21.684,10.842,41.276,24.543,59.331,39.782,243.728-203.263,401.19-507.174,407.038-849.417C2272.77,526.868,1775.113,11.84,1150.47,1.169Z" transform="translate(0 -1)"/>
      </g>
    </g>
    <g id="Group_1310" data-name="Group 1310" transform="translate(1493.951 1409.578)">
      <ellipse id="Ellipse_145" data-name="Ellipse 145" class="cls-3" cx="512.213" cy="512.211" rx="512.213" ry="512.211"/>
      <path id="Path_1295" data-name="Path 1295" class="cls-4" d="M325.918,264.561,476.85,113.63a42.678,42.678,0,0,0-60.356-60.356L265.562,204.206,114.63,53.274A42.678,42.678,0,0,0,54.274,113.63L205.206,264.561,54.274,415.493a42.678,42.678,0,1,0,60.356,60.355L265.562,324.917,416.494,475.849a42.678,42.678,0,0,0,60.356-60.355Z" transform="translate(246.65 247.65)"/>
    </g>
  </g>
</svg>
