<svg xmlns="http://www.w3.org/2000/svg" viewBox="0 0 1796.026 1828.294">
  <defs>
    <style>
      .cls-1 {
        fill: #fec9a3;
      }

      .cls-2 {
        fill: #a8aff1;
      }

      .cls-3 {
        fill: #868ed8;
      }

      .cls-4 {
        fill: #fdb62f;
      }

      .cls-5 {
        fill: #c9dfff;
      }

      .cls-6 {
        fill: #f6c358;
      }

      .cls-7 {
        fill: #fcd462;
      }

      .cls-8 {
        fill: #ffb950;
      }

      .cls-9 {
        fill: #dc8744;
      }

      .cls-10 {
        fill: #b5794a;
      }
    </style>
  </defs>
  <g id="Group_1197" data-name="Group 1197" transform="translate(-3392 1858.333)">
    <g id="bitcoin_3_" data-name="bitcoin (3)" transform="translate(3392 -1857.041)">
      <path id="Path_989" data-name="Path 989" class="cls-1" d="M1648.956,399.363a93.085,93.085,0,0,0-123.369-34.372l-440.06,187.717a62.4,62.4,0,0,1-24.308,4.954H516.493a61.932,61.932,0,1,1,0-123.864H764.222c102.614,0,185.8-83.184,185.8-185.8H434.866a281.252,281.252,0,0,0-219.55,105.5L52,557.662,327.6,960.221,1081.13,787a447.906,447.906,0,0,0,104.727-38.275L1617.68,526.7A93.114,93.114,0,0,0,1648.956,399.363Z" transform="translate(133.796 711.95)"/>
      <path id="Path_990" data-name="Path 990" class="cls-2" d="M4,396.9V954.29h402.56l92.9-92.9L127.866,304Z" transform="translate(-4.001 872.712)"/>
      <path id="Path_1120" data-name="Path 1120" class="cls-3" d="M61.932,0A61.932,61.932,0,1,1,0,61.932,61.932,61.932,0,0,1,61.932,0Z" transform="translate(216.763 1610.239)"/>
      <g id="Group_1014" data-name="Group 1014" transform="translate(154.831)">
        <path id="Path_991" data-name="Path 991" class="cls-4" d="M84,309.661A154.833,154.833,0,0,1,238.832,154.831,154.833,154.833,0,0,1,84,0" transform="translate(70.83)"/>
        <path id="Path_992" data-name="Path 992" class="cls-4" d="M198.832,0A154.833,154.833,0,0,1,44,154.831,154.833,154.833,0,0,1,198.832,309.661" transform="translate(-44.001)"/>
      </g>
      <g id="Group_1015" data-name="Group 1015" transform="translate(185.797)">
        <path id="Path_994" data-name="Path 994" class="cls-5" d="M364,0h61.933V247.729H364Z" transform="translate(843.678)"/>
        <path id="Path_995" data-name="Path 995" class="cls-5" d="M396,56h61.932V334.7H396Z" transform="translate(935.543 160.763)"/>
        <path id="Path_996" data-name="Path 996" class="cls-5" d="M396,24h61.932V85.932H396Z" transform="translate(935.543 68.898)"/>
        <path id="Path_997" data-name="Path 997" class="cls-5" d="M84,152h61.932V399.729H84Z" transform="translate(39.864 436.356)"/>
        <path id="Path_998" data-name="Path 998" class="cls-5" d="M52,104h61.932V382.7H52Z" transform="translate(-52.001 298.56)"/>
      </g>
    </g>
    <g id="Group_1018" data-name="Group 1018" transform="translate(3930.682 -1858.333)">
      <g id="Group_1016" data-name="Group 1016" transform="translate(0 0)">
        <ellipse id="Ellipse_68" data-name="Ellipse 68" class="cls-6" cx="357.724" cy="357.723" rx="357.724" ry="357.723"/>
        <ellipse id="Ellipse_69" data-name="Ellipse 69" class="cls-7" cx="305.252" cy="305.251" rx="305.252" ry="305.251" transform="translate(52.472 52.475)"/>
        <path id="Path_811" data-name="Path 811" class="cls-6" d="M501.067,761.964a268.871,268.871,0,0,1-51.958-5.021l3.962-20.155a248.72,248.72,0,0,0,47.836,4.635l.246,18.569-.005,1.972Zm52.186-5.121-4.012-20.153a245.833,245.833,0,0,0,46.209-14.041l7.884,18.972A266.082,266.082,0,0,1,553.254,756.843ZM398.993,741.834a266.553,266.553,0,0,1-46.173-24.649L364.227,700.1a246.7,246.7,0,0,0,42.613,22.744Zm250.468-24.957-11.437-17.065a248.2,248.2,0,0,0,37.317-30.695l14.536,14.518A268.219,268.219,0,0,1,649.462,716.877ZM312.333,684.034a269.377,269.377,0,0,1-33.281-40.37L296.106,632.2a248.7,248.7,0,0,0,30.737,37.291Zm410.74-40.842L706,631.765a246.6,246.6,0,0,0,22.79-42.593l18.983,7.865A267.655,267.655,0,0,1,723.073,643.192ZM254.261,597.56a265.421,265.421,0,0,1-15.269-50.071l20.146-4.023a245.114,245.114,0,0,0,14.084,46.189Zm508.671-50.619-20.156-3.985a248.669,248.669,0,0,0,4.685-48.091v-1.079h20.546v1.079A269.132,269.132,0,0,1,762.931,546.941ZM233.8,495.409v-.541a269.214,269.214,0,0,1,4.966-51.521l20.166,3.944a248.653,248.653,0,0,0-4.585,47.579Zm508.773-49.65a245.236,245.236,0,0,0-14.189-46.154l18.948-7.946A265.239,265.239,0,0,1,762.71,441.7ZM272.831,401.041l-19-7.826a266.684,266.684,0,0,1,24.594-46.2L295.529,358.4A245.909,245.909,0,0,0,272.831,401.041ZM705.42,357.1a248.974,248.974,0,0,0-30.814-37.221l14.477-14.577a269.213,269.213,0,0,1,33.361,40.3ZM326.106,320.981,311.539,306.5a269,269,0,0,1,40.346-33.328l11.477,17.045A248.3,248.3,0,0,0,326.106,320.981Zm311.05-31.635a246.159,246.159,0,0,0-42.666-22.653l7.8-19.011a267.275,267.275,0,0,1,46.227,24.548ZM405.878,267.289l-7.927-18.96A265.993,265.993,0,0,1,448,233.01l4.054,20.146A244.663,244.663,0,0,0,405.878,267.289Zm142.35-14.442a248.611,248.611,0,0,0-47.324-4.534l-.568-14.328.376-6.219a278.683,278.683,0,0,1,51.436,4.916Z" transform="translate(-143.184 -137.118)"/>
      </g>
      <g id="Group_1017" data-name="Group 1017" transform="translate(257.478 161.621)">
        <path id="Path_815" data-name="Path 815" class="cls-8" d="M344.907,291.825,238.345,239.209V123.586Z" transform="translate(-131.784 -123.586)"/>
        <path id="Path_816" data-name="Path 816" class="cls-9" d="M274.288,123.586V239.209L167.724,291.825Z" transform="translate(-167.724 -123.586)"/>
        <path id="Path_817" data-name="Path 817" class="cls-8" d="M344.907,276.921,238.345,445.158V329.537Z" transform="translate(-131.784 -45.542)"/>
        <path id="Path_818" data-name="Path 818" class="cls-9" d="M274.288,329.537V445.158L167.724,276.921Z" transform="translate(-167.724 -45.542)"/>
        <path id="Path_819" data-name="Path 819" class="cls-10" d="M380.852,252.834,274.288,305.41,167.724,252.834l106.564-52.589Z" transform="translate(-167.724 -84.57)"/>
      </g>
    </g>
  </g>
</svg>
