<svg xmlns="http://www.w3.org/2000/svg" viewBox="0 0 1499.651 1525.52">
  <defs>
    <style>
      .cls-1 {
        fill: #fcd462;
      }

      .cls-2 {
        fill: #dc8744;
      }

      .cls-3 {
        fill: #FA8100;
      }

      .cls-4 {
        fill: #fff;
      }
    </style>
  </defs>
  <g id="price-tag" transform="translate(-0.501)">
    <path id="Path_864" data-name="Path 864" class="cls-1" d="M768.93,5,19.641,760.462a65.4,65.4,0,0,0,0,92.461l529.175,529.17a65.4,65.4,0,0,0,92.462,0l729.587-749.308V5ZM1112.3,366.985A103.424,103.424,0,1,1,1215.727,263.56,103.429,103.429,0,0,1,1112.3,366.985Z" transform="translate(0 124.286)"/>
    <path id="Path_865" data-name="Path 865" class="cls-2" d="M242.35,7C128.117,7,35.5,99.616,35.5,213.848S128.117,420.7,242.35,420.7,449.2,328.08,449.2,213.848,356.583,7,242.35,7Zm0,310.273A103.424,103.424,0,1,1,345.775,213.848,103.429,103.429,0,0,1,242.35,317.273Z" transform="translate(869.951 173.999)"/>
    <path id="Path_866" data-name="Path 866" class="cls-3" d="M68.363,413.7a25.856,25.856,0,0,1-18.28-44.136L412.07,7.582a25.852,25.852,0,0,1,36.561,36.56L86.643,406.127A25.786,25.786,0,0,1,68.363,413.7Z" transform="translate(1043.939 0)"/>
    <path id="Path_867" data-name="Path 867" class="cls-4" d="M207.649,591.2A192.313,192.313,0,0,1,71.438,534.754c-75.112-75.112-75.112-197.359,0-272.471A25.852,25.852,0,1,1,108,298.844c-54.945,54.97-54.945,144.38,0,199.35a140.738,140.738,0,0,0,111.492,40.8c20.84-1.732,39.793-11.92,53.341-28.623a84.384,84.384,0,0,0,18.073-63.27L256.62,172.9A136.312,136.312,0,0,1,285.838,70.612c22.521-27.744,54.195-44.653,89.2-47.549A192.549,192.549,0,0,1,527.387,78.809c75.112,75.112,75.112,197.359,0,272.471a25.852,25.852,0,0,1-36.561-36.561c54.945-54.97,54.945-144.38,0-199.35a140.512,140.512,0,0,0-111.492-40.8c-20.84,1.732-39.793,11.92-53.341,28.623a84.354,84.354,0,0,0-18.074,63.27l34.285,274.2a136.359,136.359,0,0,1-29.217,102.261c-22.521,27.769-54.195,44.679-89.2,47.575C218.4,590.991,213.027,591.2,207.649,591.2Z" transform="translate(362.964 556.791)"/>
    <path id="Path_868" data-name="Path 868" class="cls-4" d="M41.4,561.427a25.856,25.856,0,0,1-18.28-44.136L509.679,30.732a25.852,25.852,0,1,1,36.561,36.56L59.676,553.852A25.83,25.83,0,0,1,41.4,561.427Z" transform="translate(373.64 575.417)"/>
  </g>
</svg>
