<svg xmlns="http://www.w3.org/2000/svg" viewBox="0 0 1319.283 1525.52">
  <defs>
    <style>
      .cls-1 {
        fill: #fcd462;
      }

      .cls-2 {
        fill: #f6c358;
      }

      .cls-3 {
        fill: #FA8100;
      }

      .cls-4 {
        fill: #dc8744;
      }

      .cls-5 {
        fill: #fff6e1;
      }

      .cls-6 {
        fill: #ffeebd;
      }
    </style>
  </defs>
  <g id="money-bag" transform="translate(-33.64)">
    <path id="Path_848" data-name="Path 848" class="cls-1" d="M1352.923,941.788c0,299.17-294.264,282-659.642,282s-659.642,14.713-659.642-282C33.64,642.619,327.9,144.82,693.282,144.82,1058.659,147.272,1352.923,645.071,1352.923,941.788Z" transform="translate(0 299.093)"/>
    <path id="Path_849" data-name="Path 849" class="cls-2" d="M248.84,145.62c365.378,0,659.642,497.8,659.642,796.968s-294.264,282-659.642,282" transform="translate(444.442 300.745)"/>
    <path id="Path_850" data-name="Path 850" class="cls-1" d="M144.04,137.386C144.04-7.294,288.72.062,465.278.062S786.516-7.294,786.516,137.386,641.836,524.835,465.278,524.835,144.04,282.066,144.04,137.386Z" transform="translate(228.004 0)"/>
    <path id="Path_851" data-name="Path 851" class="cls-2" d="M248.84.062C425.4.062,570.078-7.294,570.078,137.386S425.4,524.835,248.84,524.835" transform="translate(444.442 0)"/>
    <path id="Path_852" data-name="Path 852" class="cls-3" d="M720.846,192.421a43.956,43.956,0,0,1-44.14,44.14H200.979a43.956,43.956,0,0,1-44.139-44.14V180.16a43.956,43.956,0,0,1,44.139-44.14H679.158a43.956,43.956,0,0,1,44.14,44.14v12.261Z" transform="translate(254.439 280.918)"/>
    <path id="Path_853" data-name="Path 853" class="cls-4" d="M168.84,136.82H654.375a43.956,43.956,0,0,1,44.139,44.14v12.261c0,24.522-24.522,44.14-49.044,44.14" transform="translate(279.222 282.57)"/>
    <path id="Path_858" data-name="Path 858" class="cls-3" d="M294.264,0C456.781,0,588.528,131.747,588.528,294.265S456.781,588.531,294.264,588.531,0,456.784,0,294.265,131.746,0,294.264,0Z" transform="translate(399.018 745.534)"/>
    <path id="Path_854" data-name="Path 854" class="cls-4" d="M180.84,329.46c115.253-115.254,301.62-115.254,416.874,0s115.254,301.622,0,416.876" transform="translate(304.005 501.901)"/>
    <path id="Path_855" data-name="Path 855" class="cls-5" d="M306.928,730.74V669.434c-49.044-2.451-76.018-12.26-98.088-24.522l14.713-66.21c24.522,12.261,56.4,24.522,93.184,24.522,31.878,0,53.948-12.26,53.948-34.331s-17.165-34.331-61.3-49.044c-61.305-19.617-100.54-49.044-100.54-102.992,0-49.044,22.07-88.28,95.636-100.541v-51.5H353.52v49.044c49.044,2.453,66.209,9.81,83.375,19.618l-14.713,63.758c-14.713-7.357-39.235-19.618-80.922-19.618-36.783,0-49.044,14.713-49.044,31.879,0,19.617,19.617,29.426,68.661,49.044,66.21,24.523,93.184,53.949,93.184,105.445s-26.974,93.184-100.54,105.444V730.74Z" transform="translate(361.832 546.924)"/>
    <g id="Group_895" data-name="Group 895" transform="translate(693.282 811.744)">
      <path id="Path_856" data-name="Path 856" class="cls-6" d="M248.84,264.82v112.8H261.1c41.688,0,66.21,12.261,80.923,19.618l14.713-63.758c-19.618-9.808-34.331-19.618-83.375-19.618V264.82Z" transform="translate(-248.84 -264.82)"/>
      <path id="Path_857" data-name="Path 857" class="cls-6" d="M280.719,335.481c-12.261-4.9-24.523-9.808-31.879-12.261V406.6c24.522,12.261,39.235,24.522,39.235,41.688,0,19.617-14.713,29.426-39.235,34.33V610.129h24.522V546.372c73.566-12.261,100.54-53.948,100.54-105.445S346.928,360,280.719,335.481Z" transform="translate(-248.84 -144.208)"/>
    </g>
  </g>
</svg>
