<svg xmlns="http://www.w3.org/2000/svg" viewBox="0 0 1584.34 1613.146">
  <defs>
    <style>
      .cls-1 {
        fill: #fcd462;
      }

      .cls-2 {
        fill: #dbb765;
      }

      .cls-3 {
        fill: #c49a44;
      }

      .cls-4 {
        fill: #ffb950;
      }

      .cls-5 {
        fill: #dc8744;
      }

      .cls-6 {
        fill: #b5794a;
      }
    </style>
  </defs>
  <g id="Group_1222" data-name="Group 1222" transform="translate(-4725 -2628)">
    <g id="coin" transform="translate(4725 2628)">
      <path id="XMLID_93_" class="cls-1" d="M712.251,1613.146C322.475,1613.146,6.5,1252.031,6.5,806.573S322.475,0,712.251,0,1418,361.114,1418,806.573s-315.975,806.573-705.751,806.573" transform="translate(166.337 0)"/>
      <path id="XMLID_133_" class="cls-2" d="M173.337,806.573c0-411.986,270.346-751.611,619.333-800.322A621.466,621.466,0,0,0,706.251,0C316.475,0,.5,361.114.5,806.573s315.975,806.573,705.751,806.573a625.906,625.906,0,0,0,86.418-6.222c-348.987-48.74-619.333-388.365-619.333-800.351" transform="translate(-0.5 0)"/>
      <path id="XMLID_132_" class="cls-3" d="M173.28,29H.5q.821,29.08,3.428,57.612H176.852Q174.13,58.138,173.28,29" transform="translate(-0.472 806.407)"/>
      <path id="XMLID_131_" class="cls-3" d="M178.6,24H5.875C3.484,42.984,1.785,62.227.546,81.613H173.383c1.21-19.358,2.852-38.6,5.214-57.612" transform="translate(0.779 667.376)"/>
      <path id="XMLID_130_" class="cls-3" d="M173.914,34H1.048Q6.665,63.21,14.04,91.613H186.848Q179.459,63.268,173.914,34" transform="translate(14.738 945.438)"/>
      <path id="XMLID_129_" class="cls-3" d="M175.4,39H2.444C9.79,58.647,17.913,77.8,26.555,96.613H199.449Q186.443,68.484,175.4,39" transform="translate(53.555 1084.469)"/>
      <path id="XMLID_128_" class="cls-3" d="M189.124,19H16.46C10.871,37.927,5.629,57.083,1.25,76.613H174.289C178.638,57.169,183.535,37.9,189.124,19" transform="translate(20.355 528.345)"/>
      <path id="XMLID_127_" class="cls-3" d="M202.322,14H29.456C19.979,32.755,11.02,51.94,2.839,71.614H175.791Q188.063,42.1,202.322,14" transform="translate(64.539 389.342)"/>
      <path id="XMLID_126_" class="cls-3" d="M225.978,8H52.94Q28.354,35.483,6.216,65.614H179.2Q201.32,35.5,225.978,8" transform="translate(158.44 222.505)"/>
      <path id="XMLID_125_" class="cls-3" d="M268.824,3H95.584A694.959,694.959,0,0,0,11.009,60.613h173.1A698.644,698.644,0,0,1,268.824,3" transform="translate(291.715 83.446)"/>
      <path id="XMLID_124_" class="cls-3" d="M178.412,45H5.517C18.912,64.964,33,84.177,47.948,102.613H220.987Q198.518,74.959,178.412,45" transform="translate(139.004 1251.306)"/>
      <path id="XMLID_123_" class="cls-3" d="M9.834,50a710.515,710.515,0,0,0,72.707,57.612H255.81A712.516,712.516,0,0,1,182.585,50Z" transform="translate(259.043 1390.336)"/>
      <path id="XMLID_106_" class="cls-3" d="M584.956,1303.136h-2.449a513.4,513.4,0,0,1-60.349-3.572,28.787,28.787,0,0,1-25.177-32.032c1.844-15.786,15.757-26.79,32-25.177a452.3,452.3,0,0,0,53.493,3.169c15.93,0,30.016,12.905,30.016,28.806.029,15.9-11.609,28.806-27.539,28.806m167.537-31.024a28.812,28.812,0,0,1-10.2-55.769,475,475,0,0,0,49.143-21.806,28.794,28.794,0,1,1,26.329,51.218A525.239,525.239,0,0,1,762.6,1270.24a28.277,28.277,0,0,1-10.111,1.873M362.6,1250.1a28.427,28.427,0,0,1-13.02-3.14,543.656,543.656,0,0,1-52.11-30.189,28.795,28.795,0,1,1,31.571-48.164A488.12,488.12,0,0,0,375.65,1195.6a28.822,28.822,0,0,1-13.049,54.5m579.321-102.492a28.806,28.806,0,0,1-20.51-49.057c12.588-12.675,24.716-26.3,36.267-40.415a28.8,28.8,0,0,1,44.678,36.353c-12.675,15.556-26.127,30.563-39.954,44.563a28.751,28.751,0,0,1-20.481,8.555m-755.3-40.53a28.649,28.649,0,0,1-22.267-10.543c-12.444-15.123-24.428-31.255-35.662-47.934a28.8,28.8,0,1,1,47.732-32.234c10.255,15.181,21.2,29.9,32.522,43.67a28.807,28.807,0,0,1-22.325,47.041m881.843-148.035a29.164,29.164,0,0,1-11.494-2.391,28.848,28.848,0,0,1-14.893-37.938c7.23-16.592,13.8-33.761,19.646-50.958a28.813,28.813,0,1,1,54.616,18.378c-6.366,18.782-13.568,37.477-21.4,55.6a28.955,28.955,0,0,1-26.473,17.313M76.815,908.175a28.826,28.826,0,0,1-27.279-19.531c-6.366-18.666-12.041-37.909-16.852-57.094a28.823,28.823,0,0,1,55.942-13.913c4.35,17.6,9.564,35.259,15.411,52.427a28.824,28.824,0,0,1-27.222,38.111m1046.125-169.9c-.691,0-1.5-.029-2.247-.086a28.773,28.773,0,0,1-26.5-30.938c1.383-17.37,2.016-35.172,2.016-52.946,0-15.9,12.905-29.757,28.806-29.757,15.93,0,28.806,11.955,28.806,27.884v1.872c0,19.271-.72,38.572-2.189,57.382a28.793,28.793,0,0,1-28.691,26.588M39.972,683.429a28.524,28.524,0,0,1-28.806-28.46v-.663c0-19.444.807-39.176,2.333-58.649,1.21-15.872,15.382-27.51,30.967-26.444a28.814,28.814,0,0,1,26.473,30.967c-1.411,17.975-2.16,36.181-2.16,54.127a29.07,29.07,0,0,1-28.806,29.123m1064.042-171.8a28.842,28.842,0,0,1-27.942-21.777c-4.379-17.6-9.65-35.23-15.556-52.4a28.828,28.828,0,0,1,54.53-18.724c6.4,18.7,12.1,37.909,16.909,57.065a28.793,28.793,0,0,1-20.971,34.942,26.462,26.462,0,0,1-6.971.893M76.412,459.317a28.888,28.888,0,0,1-27.251-38.082C55.527,402.4,62.787,383.7,70.708,365.668A28.81,28.81,0,0,1,123.481,388.8c-7.259,16.535-13.913,33.675-19.79,50.929a28.814,28.814,0,0,1-27.279,19.588m935.394-155.381a28.742,28.742,0,0,1-23.88-12.646c-10.169-14.979-21.115-29.642-32.58-43.584a28.815,28.815,0,0,1,44.505-36.613c12.588,15.325,24.6,31.456,35.778,47.876a28.85,28.85,0,0,1-7.749,40.012,28.527,28.527,0,0,1-16.074,4.955M185.789,260.151a28.773,28.773,0,0,1-22.3-47.012c12.646-15.5,26.127-30.477,40.012-44.477a28.8,28.8,0,1,1,40.9,40.559c-12.588,12.7-24.773,26.3-36.325,40.357a28.6,28.6,0,0,1-22.3,10.572M850.722,144.062a28.926,28.926,0,0,1-15.728-4.667,477.289,477.289,0,0,0-46.637-26.876,28.805,28.805,0,0,1,25.925-51.448,540.142,540.142,0,0,1,52.226,30.074,28.785,28.785,0,0,1-15.786,52.917M361.507,116.725a28.81,28.81,0,0,1-13.164-54.472,531.651,531.651,0,0,1,55.221-24.341,28.81,28.81,0,1,1,20.222,53.954,470.957,470.957,0,0,0-49.2,21.691,28.871,28.871,0,0,1-13.078,3.169M638.219,66.315a26.2,26.2,0,0,1-3.313-.2,455.767,455.767,0,0,0-52.4-3.025c-15.9,0-29.411-12.905-29.411-28.806S565.339,5.476,581.24,5.476h1.267a511.306,511.306,0,0,1,59,3.428,28.8,28.8,0,0,1-3.284,57.411" transform="translate(296.081 152.267)"/>
    </g>
    <g id="Group_1212" data-name="Group 1212" transform="translate(5413.737 3036.695)">
      <path id="Path_815" data-name="Path 815" class="cls-4" d="M451.151,459.555,238.345,354.482v-230.9Z" transform="translate(-25.544 -123.586)"/>
      <path id="Path_816" data-name="Path 816" class="cls-5" d="M380.53,123.586v230.9L167.724,459.555Z" transform="translate(-167.724 -123.586)"/>
      <path id="Path_817" data-name="Path 817" class="cls-4" d="M451.151,276.92,238.345,612.89v-230.9Z" transform="translate(-25.544 185.14)"/>
      <path id="Path_818" data-name="Path 818" class="cls-5" d="M380.53,381.993v230.9L167.724,276.92Z" transform="translate(-167.724 185.14)"/>
      <path id="Path_819" data-name="Path 819" class="cls-6" d="M593.337,305.265,380.53,410.258,167.724,305.265,380.53,200.245Z" transform="translate(-167.724 30.756)"/>
    </g>
  </g>
</svg>
