<svg xmlns="http://www.w3.org/2000/svg" viewBox="0 0 2696.063 1186.846">
  <defs>
    <style>
      .cls-1 {
        fill: #d5d6db;
      }

      .cls-2 {
        fill: #ebf0f3;
      }

      .cls-3 {
        fill: #f6c358;
      }

      .cls-4 {
        fill: #fcd462;
      }

      .cls-5 {
        fill: #e1e6e9;
      }

      .cls-6 {
        fill: #ffb950;
      }

      .cls-7 {
        fill: #dc8744;
      }

      .cls-8 {
        fill: #b5794a;
      }
    </style>
  </defs>
  <g id="bitcoin_4_" data-name="bitcoin (4)" transform="translate(0.001 -131.071)">
    <path id="Path_999" data-name="Path 999" class="cls-1" d="M862.249,231.848s-176.988-29.69-326.5-75.373c0,0,66.45,94.786,155.738,126.3,0,0-292.788-11.889-409.078-83.635,0,0,137.05,122.7,224.266,154.224,0,0-211.807-12.753-323.94-81.983,0,0,124.591,146.429,228.417,150.735,0,0-263.461-16.31-357.165-89.064,0,0,124.592,128.034,323.94,139.773,0,0-278.257,22.465-377.926-36.886,0,0,211.807,162.769,494.215,72.472C494.22,508.407,816.566,243,862.249,231.848Z" transform="translate(0 120.852)"/>
    <path id="Path_1000" data-name="Path 1000" class="cls-2" d="M64.444,661.923,716.188,191.416l665.78-47.192L1801.323,251.4l428.7,283.162,159.463,127.361L2158.568,840.857,1302.7,1184.706,711.72,1132.431l-285.794-197.8Z" transform="translate(306.578 62.571)"/>
    <circle id="Ellipse_110" data-name="Ellipse 110" class="cls-3" cx="527.026" cy="527.026" r="527.026" transform="translate(1006.496 199.985)"/>
    <circle id="Ellipse_111" data-name="Ellipse 111" class="cls-4" cx="449.701" cy="449.701" r="449.701" transform="translate(1083.82 277.309)"/>
    <path id="Path_1001" data-name="Path 1001" class="cls-3" d="M591.754,953.231a396.45,396.45,0,0,1-76.548-7.4l5.837-29.7a366.2,366.2,0,0,0,70.468,6.828l.364,27.359-.006,2.9A.762.762,0,0,1,591.754,953.231Zm76.888-7.543-5.913-29.695a361.92,361.92,0,0,0,68.079-20.686l11.617,27.951A392.488,392.488,0,0,1,668.642,945.688ZM441.376,923.576a392.818,392.818,0,0,1-68.026-36.317l16.8-25.171a363.271,363.271,0,0,0,62.777,33.507Zm369-36.767-16.851-25.14A365.919,365.919,0,0,0,848.5,816.451l21.416,21.389A395.128,395.128,0,0,1,810.372,886.809ZM313.711,838.42a397.051,397.051,0,0,1-49.034-59.471L289.8,762.058a366.366,366.366,0,0,0,45.28,54.935Zm605.11-60.168-25.154-16.834a363.065,363.065,0,0,0,33.569-62.748L955.2,710.259A393.7,393.7,0,0,1,918.821,778.252ZM228.159,711.026a391.127,391.127,0,0,1-22.495-73.766l29.678-5.925a361.361,361.361,0,0,0,20.75,68.044Zm749.38-74.574-29.7-5.866a366.258,366.258,0,0,0,6.9-70.848V558.15h30.271v1.588A396.2,396.2,0,0,1,977.538,636.452ZM198.019,560.537v-.8a396.108,396.108,0,0,1,7.318-75.9l29.706,5.809a366.47,366.47,0,0,0-6.753,70.094Zm749.536-73.145A361.149,361.149,0,0,0,926.649,419.4l27.917-11.7a390.555,390.555,0,0,1,22.649,73.715ZM255.516,421.507l-27.991-11.526a392.707,392.707,0,0,1,36.23-68.066l25.2,16.776A361.964,361.964,0,0,0,255.516,421.507Zm637.3-64.729a366.209,366.209,0,0,0-45.395-54.831l21.325-21.474a396.14,396.14,0,0,1,49.149,59.368ZM334,303.566l-21.463-21.343a396.293,396.293,0,0,1,59.436-49.1l16.91,25.113A365.107,365.107,0,0,0,334,303.566Zm458.239-46.6a362.476,362.476,0,0,0-62.857-33.375l11.5-28.008a393.594,393.594,0,0,1,68.108,36.166ZM451.526,224.466,439.85,196.533a392.143,392.143,0,0,1,73.727-22.568l5.97,29.679A360.241,360.241,0,0,0,451.526,224.466Zm209.713-21.279a366.409,366.409,0,0,0-69.715-6.679l-.835-21.106.554-9.164a410.307,410.307,0,0,1,75.776,7.242Z" transform="translate(942.02 167.301)"/>
    <path id="Path_1003" data-name="Path 1003" class="cls-5" d="M1226.961,131.071c-642.043,0-1162.517,593.422-1162.517,593.422S584.924,365.78,1226.961,365.78,2389.478,724.493,2389.478,724.493,1869,131.071,1226.961,131.071Z" transform="translate(306.578 0)"/>
    <path id="Path_1004" data-name="Path 1004" class="cls-1" d="M1226.961,827.569c-642.043,0-1162.517-593.422-1162.517-593.422s520.48,358.713,1162.517,358.713S2389.478,234.146,2389.478,234.146,1869,827.569,1226.961,827.569Z" transform="translate(306.578 490.347)"/>
    <g id="Group_1020" data-name="Group 1020" transform="translate(1424.769 503.873)">
      <path id="Path_815" data-name="Path 815" class="cls-6" d="M350.28,300.3,238.345,245.036V123.586Z" transform="translate(-126.414 -123.586)"/>
      <path id="Path_816" data-name="Path 816" class="cls-7" d="M279.658,123.586v121.45L167.724,300.3Z" transform="translate(-167.724 -123.586)"/>
      <path id="Path_817" data-name="Path 817" class="cls-6" d="M350.28,276.921,238.345,453.638V332.188Z" transform="translate(-126.414 -33.881)"/>
      <path id="Path_818" data-name="Path 818" class="cls-7" d="M279.658,332.188v121.45L167.724,276.921Z" transform="translate(-167.724 -33.881)"/>
      <path id="Path_819" data-name="Path 819" class="cls-8" d="M391.593,255.484,279.658,310.71,167.724,255.484l111.934-55.239Z" transform="translate(-167.724 -78.74)"/>
    </g>
  </g>
</svg>
