<svg id="bitcoin_1_" data-name="bitcoin (1)" xmlns="http://www.w3.org/2000/svg" viewBox="0 0 1551.425 1525.568">
  <defs>
    <style>
      .cls-1 {
        fill: #f6c358;
      }

      .cls-2 {
        fill: #fcd462;
      }

      .cls-3 {
        fill: #FA8100;
      }

      .cls-4 {
        fill: #dc8744;
      }

      .cls-5 {
        fill: #b5794a;
      }
    </style>
  </defs>
  <g id="Group_1004" data-name="Group 1004" transform="translate(206.857 413.713)">
    <path id="Path_957" data-name="Path 957" class="cls-1" d="M64,268H503.571v51.714H64Z" transform="translate(-64 171.571)"/>
    <path id="Path_958" data-name="Path 958" class="cls-1" d="M112,132H836v51.714H112Z" transform="translate(43.143 -132)"/>
    <path id="Path_959" data-name="Path 959" class="cls-1" d="M144,404H764.57v51.715H144Z" transform="translate(114.571 475.141)"/>
    <path id="Path_960" data-name="Path 960" class="cls-1" d="M112,340H474v51.715H112Z" transform="translate(43.143 332.284)"/>
    <path id="Path_961" data-name="Path 961" class="cls-1" d="M112,196H474v51.714H112Z" transform="translate(43.143 10.857)"/>
  </g>
  <path id="Path_962" data-name="Path 962" class="cls-2" d="M639.571,140C396.8,140,200,336.8,200,579.571s196.8,439.57,439.571,439.57,439.571-196.8,439.571-439.57c.17-242.6-196.353-439.4-438.951-439.571Z" transform="translate(446.427 299.57)"/>
  <g id="Group_1005" data-name="Group 1005" transform="translate(0 413.713)">
    <path id="Path_964" data-name="Path 964" class="cls-1" d="M657.428,1062.856C400.38,1062.856,192,854.476,192,597.428S400.38,132,657.428,132s465.427,208.379,465.427,465.428C1122.556,854.353,914.354,1062.555,657.428,1062.856Zm0-879.141c-228.486,0-413.714,185.227-413.714,413.713s185.228,413.713,413.714,413.713,413.713-185.227,413.713-413.713C1070.87,369.052,885.8,183.986,657.428,183.714Z" transform="translate(428.57 -132)"/>
    <path id="Path_965" data-name="Path 965" class="cls-1" d="M586.335,888H586a363.541,363.541,0,0,1-84.061-9.825l11.946-50.292a312.274,312.274,0,0,0,72.116,8.4Zm56.6-4.447-8.093-51.042a308.978,308.978,0,0,0,70.124-19.832l19.858,47.784a362.055,362.055,0,0,1-81.941,23.09ZM447.845,860.668a359.859,359.859,0,0,1-74.262-41.526l30.382-41.811a310.73,310.73,0,0,0,63.609,35.683ZM775.35,834.6l-27.1-43.958a311.421,311.421,0,0,0,57.222-45.224l36.51,36.562A364.2,364.2,0,0,1,775.35,834.6ZM330.376,782.321A364.039,364.039,0,0,1,277.6,715.636l43.957-27.124a312.81,312.81,0,0,0,45.353,57.273Zm548.558-43.57L837.1,708.292a310.3,310.3,0,0,0,35.683-63.557l47.757,19.781a361.612,361.612,0,0,1-41.6,74.236ZM251.719,665.163A359.6,359.6,0,0,1,228.448,583.3l51.068-8.145a307.846,307.846,0,0,0,19.883,70.1Zm686.376-54.688L887.777,598.4a310.488,310.488,0,0,0,8.506-72.4l38.657-1.035,13.058.362A365.629,365.629,0,0,1,938.095,610.475ZM224,526.671V526a363.27,363.27,0,0,1,9.722-83.7l50.344,11.92A310.456,310.456,0,0,0,275.714,526Zm668.3-50.5a308.2,308.2,0,0,0-20.013-70.047l47.705-19.988a360.938,360.938,0,0,1,23.272,81.812ZM298.985,407.884l-47.784-19.7a360.806,360.806,0,0,1,41.371-74.287l41.888,30.3a310.053,310.053,0,0,0-35.476,63.686Zm551.067-44.965a313.321,313.321,0,0,0-45.38-57.066L841.1,269.136a364.856,364.856,0,0,1,52.9,66.582ZM366.059,307.145l-36.64-36.51a365.955,365.955,0,0,1,66.556-52.826L423.2,261.766a313.176,313.176,0,0,0-57.143,45.379Zm401.457-32.813a308.864,308.864,0,0,0-63.686-35.347l19.625-47.836a360.6,360.6,0,0,1,74.364,41.372Zm-301.08-34.726-20.065-47.732A360.37,360.37,0,0,1,528.235,168.6l8.17,51.042a309.69,309.69,0,0,0-69.969,19.962ZM657.52,223.963A313.352,313.352,0,0,0,586,215.715L584.965,164H586a365.354,365.354,0,0,1,83.337,9.619Z" transform="translate(499.999 -60.572)"/>
    <path id="Path_966" data-name="Path 966" class="cls-1" d="M0,268H155.143v51.714H0Z" transform="translate(0 171.571)"/>
    <path id="Path_967" data-name="Path 967" class="cls-1" d="M64,132H167.428v51.714H64Z" transform="translate(142.857 -132)"/>
    <path id="Path_968" data-name="Path 968" class="cls-1" d="M96,404H199.429v51.715H96Z" transform="translate(214.285 475.141)"/>
    <path id="Path_969" data-name="Path 969" class="cls-1" d="M80,340h51.714v51.715H80Z" transform="translate(178.571 332.284)"/>
    <path id="Path_970" data-name="Path 970" class="cls-1" d="M32,340H135.428v51.715H32Z" transform="translate(71.428 332.284)"/>
    <path id="Path_971" data-name="Path 971" class="cls-1" d="M80,196h51.714v51.714H80Z" transform="translate(178.571 10.857)"/>
    <path id="Path_972" data-name="Path 972" class="cls-1" d="M32,132H83.714v51.714H32Z" transform="translate(71.428 -132)"/>
    <g id="Group_1007" data-name="Group 1007" transform="translate(996.742 290.439)">
      <path id="Path_815" data-name="Path 815" class="cls-3" d="M328.879,266.518l-90.534-44.7v-98.23Z" transform="translate(-147.813 -123.586)"/>
      <path id="Path_816" data-name="Path 816" class="cls-4" d="M258.258,123.586v98.23l-90.534,44.7Z" transform="translate(-167.724 -123.586)"/>
      <path id="Path_817" data-name="Path 817" class="cls-3" d="M328.879,276.921l-90.534,142.93V321.622Z" transform="translate(-147.813 -80.347)"/>
      <path id="Path_818" data-name="Path 818" class="cls-4" d="M258.258,321.622v98.229l-90.534-142.93Z" transform="translate(-167.724 -80.347)"/>
      <path id="Path_819" data-name="Path 819" class="cls-5" d="M348.793,244.924l-90.536,44.667-90.534-44.667,90.534-44.679Z" transform="translate(-167.724 -101.97)"/>
    </g>
  </g>
  <g id="Group_1006" data-name="Group 1006" transform="translate(25.857)">
    <path id="Path_973" data-name="Path 973" class="cls-4" d="M313.286,4s0,129.285,129.286,129.285c0,0-129.286,0-129.286,129.285,0,0,0-129.285-129.285-129.285C184,133.285,313.286,133.285,313.286,4Z" transform="translate(384.856 -4)"/>
    <path id="Path_974" data-name="Path 974" class="cls-4" d="M513.287,52s0,129.285,129.285,129.285c0,0-129.285,0-129.285,129.286,0,0,0-129.286-129.286-129.286C384,181.286,513.287,181.286,513.287,52Z" transform="translate(831.282 103.142)"/>
    <path id="Path_975" data-name="Path 975" class="cls-4" d="M137.285,396s0,129.286,129.285,129.286c0,0-129.285,0-129.285,129.285,0,0,0-129.285-129.285-129.285C8,525.286,137.285,525.286,137.285,396Z" transform="translate(-8 870.997)"/>
  </g>
</svg>
