<svg xmlns="http://www.w3.org/2000/svg" viewBox="0 0 1627.84 1498.532">
  <defs>
    <style>
      .cls-1 {
        fill: #dd9f3a;
      }

      .cls-2 {
        fill: #f4b74a;
      }

      .cls-3 {
        fill: #f9c662;
      }

      .cls-4 {
        fill: #ffd488;
      }

      .cls-5 {
        fill: #ffb950;
      }

      .cls-6 {
        fill: #dc8744;
      }

      .cls-7 {
        fill: #b5794a;
      }
    </style>
  </defs>
  <g id="Group_1216" data-name="Group 1216" transform="translate(-4893 -2004)">
    <g id="coins" transform="translate(4893 2004)">
      <g id="Group_1198" data-name="Group 1198" transform="translate(0 299.716)">
        <path id="Path_1121" data-name="Path 1121" class="cls-1" d="M1082.725,189.033V339.827a74.459,74.459,0,0,1-74.461,74.461H116.53a74.459,74.459,0,0,1-74.461-74.461V189.033A74.452,74.452,0,0,1,116.53,114.6h891.731A74.453,74.453,0,0,1,1082.725,189.033Z" transform="translate(91.684 -114.604)"/>
        <path id="Path_1122" data-name="Path 1122" class="cls-1" d="M1040.656,283.3V434.1a74.459,74.459,0,0,1-74.461,74.46H74.461A74.459,74.459,0,0,1,0,434.1V283.3a74.452,74.452,0,0,1,74.461-74.429H966.192A74.453,74.453,0,0,1,1040.656,283.3Z" transform="translate(0 90.839)"/>
        <path id="Path_1123" data-name="Path 1123" class="cls-1" d="M1056.432,377.565V528.36a74.46,74.46,0,0,1-74.461,74.461H90.237A74.46,74.46,0,0,1,15.776,528.36V377.565a74.452,74.452,0,0,1,74.461-74.429H981.968A74.453,74.453,0,0,1,1056.432,377.565Z" transform="translate(34.382 296.277)"/>
        <path id="Path_1124" data-name="Path 1124" class="cls-1" d="M1040.656,471.831v150.8a74.458,74.458,0,0,1-74.461,74.46H74.461A74.459,74.459,0,0,1,0,622.627v-150.8A74.452,74.452,0,0,1,74.461,397.4H966.192A74.453,74.453,0,0,1,1040.656,471.831Z" transform="translate(0 501.721)"/>
      </g>
      <path id="SVGCleanerId_0" class="cls-2" d="M915.015,471.833V575.818a74.491,74.491,0,0,1-66.57,74.059,76.99,76.99,0,0,1-7.891.4H132.082a74.452,74.452,0,0,1-74.429-74.46V471.833a74.446,74.446,0,0,1,74.429-74.43H840.555A74.453,74.453,0,0,1,915.015,471.833Z" transform="translate(125.647 801.439)"/>
      <g id="Group_1199" data-name="Group 1199" transform="translate(183.3 1198.843)">
        <path id="SVGCleanerId_0_1_" class="cls-2" d="M915.015,471.833V575.818a74.491,74.491,0,0,1-66.57,74.059,76.99,76.99,0,0,1-7.891.4H132.082a74.452,74.452,0,0,1-74.429-74.46V471.833a74.446,74.446,0,0,1,74.429-74.43H840.555A74.453,74.453,0,0,1,915.015,471.833Z" transform="translate(-57.653 -397.404)"/>
      </g>
      <g id="Group_1200" data-name="Group 1200" transform="translate(183.297 299.723)">
        <path id="Path_1125" data-name="Path 1125" class="cls-2" d="M915.014,377.564V481.549a74.49,74.49,0,0,1-66.57,74.06,77.152,77.152,0,0,1-7.891.4H132.081a74.452,74.452,0,0,1-74.429-74.46V377.564a74.446,74.446,0,0,1,74.429-74.43H840.553A74.446,74.446,0,0,1,915.014,377.564Z" transform="translate(-57.652 296.269)"/>
        <path id="Path_1126" data-name="Path 1126" class="cls-2" d="M915.014,283.305V387.289a74.491,74.491,0,0,1-66.57,74.06,77.169,77.169,0,0,1-7.891.4H132.081a74.452,74.452,0,0,1-74.429-74.461V283.305a74.446,74.446,0,0,1,74.429-74.429H840.553A74.45,74.45,0,0,1,915.014,283.305Z" transform="translate(-57.652 90.844)"/>
        <path id="Path_1127" data-name="Path 1127" class="cls-2" d="M957.081,189.035V293.019a74.491,74.491,0,0,1-66.57,74.06,76.992,76.992,0,0,1-7.891.4H174.147a74.452,74.452,0,0,1-74.429-74.461V189.035a74.445,74.445,0,0,1,74.429-74.429H882.62A74.45,74.45,0,0,1,957.081,189.035Z" transform="translate(34.026 -114.606)"/>
      </g>
      <g id="Group_1201" data-name="Group 1201" transform="translate(0 0.006)">
        <path id="Path_1128" data-name="Path 1128" class="cls-1" d="M710.022,471.833V622.628a74.491,74.491,0,0,1-66.569,74.06q-10.182.4-20.364.4a520.692,520.692,0,0,1-210.913-44.5A517.2,517.2,0,0,1,285.554,572.81c-10.431-8.891-20.529-18.256-30.392-28.086A519.021,519.021,0,0,1,151.712,397.4h483.85A74.451,74.451,0,0,1,710.022,471.833Z" transform="translate(330.637 801.435)"/>
        <path id="Path_1129" data-name="Path 1129" class="cls-1" d="M709.217,377.564V528.359a74.457,74.457,0,0,1-74.461,74.46H200.995a521.69,521.69,0,0,1-42.9-299.684H634.756A74.45,74.45,0,0,1,709.217,377.564Z" transform="translate(331.443 595.985)"/>
        <path id="Path_1130" data-name="Path 1130" class="cls-1" d="M1040.656,94.766V245.561A74.459,74.459,0,0,1,966.2,320.021H74.461A74.454,74.454,0,0,1,0,245.564V94.766A74.452,74.452,0,0,1,74.461,20.337H966.192A74.457,74.457,0,0,1,1040.656,94.766Z" transform="translate(0 -20.337)"/>
      </g>
      <path id="Path_1131" data-name="Path 1131" class="cls-2" d="M915.015,94.764V198.749a74.491,74.491,0,0,1-66.57,74.06,77.077,77.077,0,0,1-7.891.4H132.082a74.452,74.452,0,0,1-74.429-74.461V94.764a74.445,74.445,0,0,1,74.429-74.429H840.555A74.456,74.456,0,0,1,915.015,94.764Z" transform="translate(125.647 -20.335)"/>
      <g id="Group_1202" data-name="Group 1202" transform="translate(674.199 0.003)">
        <rect id="Rectangle_774" data-name="Rectangle 774" class="cls-3" width="109.202" height="252.875" transform="translate(134.847)"/>
        <rect id="Rectangle_775" data-name="Rectangle 775" class="cls-3" width="54.599" height="252.875"/>
        <rect id="Rectangle_776" data-name="Rectangle 776" class="cls-3" width="109.215" height="299.719" transform="translate(266.384 299.729)"/>
        <rect id="Rectangle_777" data-name="Rectangle 777" class="cls-3" width="54.609" height="299.719" transform="translate(131.505 299.729)"/>
      </g>
      <g id="Group_1203" data-name="Group 1203" transform="translate(439.383 457.919)">
        <path id="Path_1132" data-name="Path 1132" class="cls-1" d="M707.856,182.676v48.717a74.459,74.459,0,0,1-74.46,74.461H214.074C350.126,177.588,538.37,136.533,707.856,182.676Z" transform="translate(27.164 -164.363)"/>
        <path id="Path_1133" data-name="Path 1133" class="cls-1" d="M739.475,283.305V434.1a74.46,74.46,0,0,1-74.461,74.461H138.2A517.8,517.8,0,0,1,284.579,219.743q5.566-5.565,11.236-10.867h369.2A74.453,74.453,0,0,1,739.475,283.305Z" transform="translate(-138.198 -67.353)"/>
      </g>
      <path id="Path_1134" data-name="Path 1134" class="cls-2" d="M1072.944,1052.608C916.43,1209.093,685.057,1245.069,494.12,1160.481A516.953,516.953,0,0,1,367.5,1080.717q-15.651-13.33-30.417-28.109c-203.187-203.212-203.187-532.65,0-735.862,203.213-203.187,532.65-203.187,735.863,0q14.789,14.789,28.109,30.417a516.316,516.316,0,0,1,79.764,126.623C1265.4,664.7,1229.429,896.1,1072.944,1052.608Z" transform="translate(402.511 293.538)"/>
      <path id="Path_1135" data-name="Path 1135" class="cls-3" d="M1055.5,348.474l-686.693,686.7a516.91,516.91,0,0,1-126.622-79.764L975.743,221.853A516.405,516.405,0,0,1,1055.5,348.474Z" transform="translate(527.82 418.848)"/>
      <path id="Path_1136" data-name="Path 1136" class="cls-4" d="M968.477,580.214c0,203.2-164.73,367.927-367.927,367.927-114.7,0-217.129-52.47-284.618-134.742a366.346,366.346,0,0,1-83.309-233.184c0-203.2,164.729-367.927,367.927-367.927a366.373,366.373,0,0,1,233.2,83.357C916,363.1,968.477,465.537,968.477,580.214Z" transform="translate(506.975 398.003)"/>
      <path id="Path_1137" data-name="Path 1137" class="cls-3" d="M833.756,295.644,315.979,813.421l-.047-.022a366.548,366.548,0,0,1-83.309-233.185c0-203.2,164.729-367.927,367.926-367.927a367.053,367.053,0,0,1,233.207,83.357Z" transform="translate(506.972 398)"/>
      <path id="Path_1138" data-name="Path 1138" class="cls-4" d="M765.151,246.9,267.21,744.818a364.265,364.265,0,0,1-30.581-77.036l451.49-451.49A364.433,364.433,0,0,1,765.151,246.9Z" transform="translate(515.703 406.728)"/>
    </g>
    <g id="Group_1214" data-name="Group 1214" transform="translate(5867.5 2753.266)">
      <path id="Path_815" data-name="Path 815" class="cls-5" d="M371.2,333.33l-132.854-65.6V123.586Z" transform="translate(-105.493 -123.586)"/>
      <path id="Path_816" data-name="Path 816" class="cls-6" d="M300.578,123.586V267.734l-132.854,65.6Z" transform="translate(-167.724 -123.586)"/>
      <path id="Path_817" data-name="Path 817" class="cls-5" d="M371.2,276.921,238.345,486.665V342.518Z" transform="translate(-105.493 11.542)"/>
      <path id="Path_818" data-name="Path 818" class="cls-6" d="M300.578,342.518V486.665L167.724,276.921Z" transform="translate(-167.724 11.542)"/>
      <path id="Path_819" data-name="Path 819" class="cls-7" d="M433.434,265.809,300.578,331.356,167.724,265.809l132.854-65.564Z" transform="translate(-167.724 -56.031)"/>
    </g>
  </g>
</svg>
