<svg id="Token_Transfer_Menu" xmlns="http://www.w3.org/2000/svg" viewBox="0 0 3284.884 3418.316">
  <defs>
    <style>
      .cls-1 {
        fill: #fa8100;
      }
    </style>
  </defs>
  <path id="Path_1263" data-name="Path 1263" class="cls-1" d="M452.771,299.524A66.764,66.764,0,1,0,386,232.76,66.794,66.794,0,0,0,452.771,299.524Zm0,0" transform="translate(2191.167 942.258)"/>
  <path id="Path_1264" data-name="Path 1264" class="cls-1" d="M2557.63,2952.608c35.234,44.048,106.329,27.2,117.6-28.5L3249.278,80.534a66.842,66.842,0,0,0-14.371-56.984c-.026,0-.026,0-.052-.026V23.5c-17.761-20.89-41.52-22.3-42.2-22.976-10.041-1.043-19.169-.73-29.914,2.895L52.7,977.775C-7.7,996.709-10.149,1081.729,49.21,1104l1018.019,381.754L941.287,2367.327c-.052.339-.026.652-.052.965-6.7,52.6,48.014,92.191,96.027,68.2l791.037-395.55Zm14.97-195.023c-42.875-53.62-899.664-1124.558-940.01-1174.992L3077.854,254.852ZM277.906,1047.152l2488.026-779.5L1132.163,1367.486Zm924.908,433.758L2486.8,616.524l-990.451,909.919c-.261.235-.47.5-.73.73-.861.809-1.669,1.669-2.5,2.53-.756.809-1.513,1.617-2.217,2.452-.625.73-1.226,1.461-1.8,2.217-.86,1.069-1.669,2.139-2.425,3.26-.235.339-.5.626-.7.965l-370.861,556.253Zm-.417,723.708,344.024-516.013,196.566,245.7Zm0,0" transform="translate(34.17 0)"/>
  <path id="Path_1265" data-name="Path 1265" class="cls-1" d="M416,1207.588a66.79,66.79,0,0,0,75.946-56.124L622.32,282a66.761,66.761,0,1,0-132.043-19.82L359.871,1131.645A66.774,66.774,0,0,0,416,1207.588Zm0,0" transform="translate(2038.574 1165.456)"/>
  <path id="Path_1266" data-name="Path 1266" class="cls-1" d="M19.56,980.617a66.763,66.763,0,0,0,94.41,0l440.678-440.64a66.777,66.777,0,0,0-94.436-94.437L19.56,886.183a66.77,66.77,0,0,0,0,94.434Zm0,0" transform="translate(0 2418.136)"/>
  <path id="Path_1267" data-name="Path 1267" class="cls-1" d="M560.212,445.54,119.56,886.21A66.766,66.766,0,0,0,214,980.617L654.648,539.974a66.776,66.776,0,0,0-94.436-94.434Zm0,0" transform="translate(567.656 2418.139)"/>
  <path id="Path_1268" data-name="Path 1268" class="cls-1" d="M19.56,880.632a66.791,66.791,0,0,0,94.41,0L554.648,439.99a66.776,66.776,0,0,0-94.436-94.434L19.56,786.2a66.77,66.77,0,0,0,0,94.434Zm0,0" transform="translate(0 1850.481)"/>
</svg>
