<svg xmlns="http://www.w3.org/2000/svg" viewBox="0 0 3869.005 4439.137">
  <defs>
    <style>
      .cls-1 {
        fill: #879499;
      }

      .cls-2 {
        fill: #c9dfff;
      }

      .cls-3 {
        fill: #bcced5;
      }

      .cls-4 {
        fill: #b1d1ff;
      }
    </style>
  </defs>
  <g id="Transfer_Token_Icon" transform="translate(-32.879)">
    <path id="Path_1257" data-name="Path 1257" class="cls-1" d="M814.721,542.39,284.147,1065.074c-33.666,33.164-90.638,9.312-90.638-37.941V294.951h621.2V542.39Z" transform="translate(1232.066 2262.333)"/>
    <path id="Path_1258" data-name="Path 1258" class="cls-2" d="M1793.209,2607.875l1184.212,975.234c30.372,25.014,76.463,9.589,85.644-28.681L3900.348,65.8c10.3-42.918-33.086-79.029-73.42-61.1L64.508,1676.885c-42.172,18.745-42.172,78.6,0,97.341l1214,539.556Z" transform="translate(0 0)"/>
    <path id="Path_1259" data-name="Path 1259" class="cls-3" d="M2422.019,130.26,691.254,2278.8,409.2,2987.372c-22.135,48.7-94.21,38.028-101.286-15L176.547,1984.706,2345.157,57.058C2394,13.62,2463.012,79.375,2422.019,130.26Z" transform="translate(1101.964 329.085)"/>
    <g id="Group_1279" data-name="Group 1279" transform="translate(35.495 2692.951)">
      <path id="Path_1260" data-name="Path 1260" class="cls-4" d="M870.727,414.369a66.568,66.568,0,0,0-94.15.009l-588.2,588.214a66.571,66.571,0,1,0,94.141,94.15l588.2-588.213A66.571,66.571,0,0,0,870.727,414.369Z" transform="translate(1007.598 335.8)"/>
      <path id="Path_1261" data-name="Path 1261" class="cls-4" d="M670.751,330.086,87.133,913.712a66.577,66.577,0,0,0,94.141,94.167L764.892,424.253a66.577,66.577,0,0,0-94.141-94.167Z" transform="translate(231.066 -310.598)"/>
      <path id="Path_1262" data-name="Path 1262" class="cls-4" d="M935,414.371,52.682,1296.713a66.571,66.571,0,1,0,94.141,94.149l882.324-882.341A66.574,66.574,0,1,0,935,414.371Z" transform="translate(-33.181 335.824)"/>
    </g>
  </g>
</svg>
