<?xml version="1.0" encoding="iso-8859-1"?>
<!-- Generator: Adobe Illustrator 18.0.0, SVG Export Plug-In . SVG Version: 6.00 Build 0)  -->
<!DOCTYPE svg PUBLIC "-//W3C//DTD SVG 1.1//EN" "http://www.w3.org/Graphics/SVG/1.1/DTD/svg11.dtd">
<svg xmlns="http://www.w3.org/2000/svg" xmlns:xlink="http://www.w3.org/1999/xlink" version="1.1" id="Capa_1" x="0px" y="0px" viewBox="0 0 59.018 59.018" style="enable-background:new 0 0 59.018 59.018;" xml:space="preserve" width="512px" height="512px">
<g>
	<path d="M58.741,56.809l-5.969-6.244c1.746-1.919,2.82-4.458,2.82-7.25c0-5.953-4.843-10.796-10.796-10.796S34,37.361,34,43.314   S38.843,54.11,44.796,54.11c2.441,0,4.688-0.824,6.499-2.196l6.001,6.277c0.196,0.205,0.459,0.309,0.723,0.309   c0.249,0,0.497-0.092,0.691-0.277C59.108,57.841,59.123,57.208,58.741,56.809z M36,43.314c0-4.85,3.946-8.796,8.796-8.796   s8.796,3.946,8.796,8.796s-3.946,8.796-8.796,8.796S36,48.164,36,43.314z" fill="#fa8100"/>
	<path d="M27.5,53.518c-0.634,0-1.266-0.031-1.895-0.078c-0.109-0.008-0.218-0.015-0.326-0.025c-0.634-0.056-1.265-0.131-1.89-0.233   c-0.028-0.005-0.056-0.01-0.084-0.015c-1.322-0.221-2.623-0.546-3.89-0.971c-0.039-0.013-0.079-0.026-0.118-0.04   c-0.629-0.214-1.251-0.45-1.862-0.713c-0.004-0.002-0.009-0.004-0.013-0.006c-0.578-0.249-1.145-0.525-1.705-0.816   c-0.073-0.038-0.147-0.074-0.219-0.113c-0.511-0.273-1.011-0.568-1.504-0.876c-0.146-0.092-0.291-0.185-0.435-0.279   c-0.454-0.297-0.902-0.606-1.338-0.933c-0.045-0.034-0.088-0.07-0.133-0.104c0.032-0.018,0.064-0.036,0.096-0.054l7.907-4.313   c1.36-0.742,2.205-2.165,2.205-3.714l-0.001-3.602l-0.23-0.278c-0.022-0.025-2.184-2.655-3.001-6.216l-0.091-0.396l-0.341-0.221   c-0.481-0.311-0.769-0.831-0.769-1.392v-3.545c0-0.465,0.197-0.898,0.557-1.223l0.33-0.298v-5.57l-0.009-0.131   c-0.003-0.024-0.298-2.429,1.396-4.36c1.446-1.649,3.924-2.486,7.363-2.486c3.426,0,5.896,0.83,7.346,2.466   c1.692,1.911,1.415,4.361,1.413,4.381l-0.009,5.701l0.33,0.298c0.359,0.324,0.557,0.758,0.557,1.223v3.545   c0,0.713-0.485,1.36-1.181,1.575c-0.527,0.162-0.823,0.723-0.66,1.25c0.162,0.527,0.721,0.821,1.25,0.66   c1.55-0.478,2.591-1.879,2.591-3.485v-3.545c0-0.867-0.318-1.708-0.887-2.369v-4.667c0.052-0.52,0.236-3.448-1.883-5.864   c-1.843-2.103-4.826-3.168-8.867-3.168s-7.024,1.065-8.867,3.168c-2.119,2.416-1.935,5.346-1.883,5.864v4.667   c-0.568,0.661-0.887,1.502-0.887,2.369v3.545c0,1.101,0.494,2.128,1.34,2.821c0.81,3.173,2.477,5.575,3.093,6.389v2.894   c0,0.816-0.445,1.566-1.162,1.958l-7.907,4.313c-0.252,0.137-0.502,0.297-0.752,0.476C5.276,42.31,2,35.541,2,28.018   c0-14.061,11.439-25.5,25.5-25.5S53,13.958,53,28.018c0,0.553,0.447,1,1,1s1-0.447,1-1c0-15.163-12.337-27.5-27.5-27.5   S0,12.855,0,28.018c0,8.009,3.444,15.228,8.926,20.258L8.899,48.3l0.892,0.752c0.058,0.049,0.121,0.089,0.178,0.137   c0.474,0.393,0.965,0.766,1.465,1.127c0.162,0.117,0.324,0.235,0.489,0.348c0.534,0.368,1.082,0.717,1.642,1.048   c0.122,0.072,0.245,0.142,0.368,0.212c0.613,0.349,1.239,0.678,1.88,0.98c0.047,0.022,0.094,0.042,0.142,0.064   c2.089,0.971,4.319,1.684,6.651,2.105c0.061,0.011,0.122,0.022,0.184,0.033c0.724,0.125,1.456,0.225,2.197,0.292   c0.09,0.008,0.181,0.013,0.271,0.021c0.741,0.06,1.487,0.099,2.243,0.099c0.553,0,1-0.447,1-1S28.053,53.518,27.5,53.518z" fill="#fa8100"/>
</g>
<g>
</g>
<g>
</g>
<g>
</g>
<g>
</g>
<g>
</g>
<g>
</g>
<g>
</g>
<g>
</g>
<g>
</g>
<g>
</g>
<g>
</g>
<g>
</g>
<g>
</g>
<g>
</g>
<g>
</g>
</svg>
