<svg id="Group_1150" data-name="Group 1150" xmlns="http://www.w3.org/2000/svg" viewBox="0 0 1512.559 1525.568">
  <defs>
    <style>
      .cls-1 {
        fill: #e8eded;
      }

      .cls-2 {
        fill: #dc8744;
      }

      .cls-3 {
        fill: #ffbf69;
      }

      .cls-4 {
        fill: #ff9f1c;
      }

      .cls-5 {
        fill: #f6c358;
      }

      .cls-6 {
        fill: #fcd462;
      }

      .cls-7 {
        fill: #ffb950;
      }

      .cls-8 {
        fill: #b5794a;
      }
    </style>
  </defs>
  <g id="wallet_" data-name="wallet " transform="translate(0 0)">
    <g id="Group_883" data-name="Group 883" transform="translate(277.302 374.489)">
      <path id="Path_791" data-name="Path 791" class="cls-1" d="M88,180.756c0-14.218.857-28.234,2.118-42.124C88.806,152.522,88,166.538,88,180.756Z" transform="translate(-88 -63.257)"/>
      <path id="Path_792" data-name="Path 792" class="cls-1" d="M89.656,142.147c.757-5.32,1.487-10.664,2.42-15.907C91.118,131.483,90.463,136.828,89.656,142.147Z" transform="translate(-84.438 -89.914)"/>
      <path id="Path_793" data-name="Path 793" class="cls-1" d="M372.465,120.636c-.5-1.966-.983-3.958-1.513-5.924C371.481,116.7,371.96,118.67,372.465,120.636Z" transform="translate(520.674 -114.712)"/>
      <path id="Path_794" data-name="Path 794" class="cls-1" d="M377.446,180.756c0-14.218-.806-28.234-2.118-42.124C376.59,152.522,377.446,166.538,377.446,180.756Z" transform="translate(530.088 -63.257)"/>
      <path id="Path_795" data-name="Path 795" class="cls-1" d="M376,142.147c-.782-5.32-1.461-10.664-2.419-15.907C374.51,131.483,375.214,136.828,376,142.147Z" transform="translate(526.32 -89.914)"/>
      <path id="Path_796" data-name="Path 796" class="cls-1" d="M92.568,120.636c.5-1.966.984-3.958,1.513-5.924C93.551,116.7,93.072,118.67,92.568,120.636Z" transform="translate(-78.173 -114.712)"/>
    </g>
    <g id="Group_884" data-name="Group 884" transform="translate(0 340.709)">
      <path id="Path_797" data-name="Path 797" class="cls-2" d="M126.046,356.109H288.924A455.078,455.078,0,0,1,277.3,255.273c0-14.218.807-28.235,2.118-42.125.731-7.815,1.992-15.453,3.1-23.168.781-5.319,1.462-10.663,2.42-15.907,1.865-10.285,4.21-20.344,6.731-30.377.5-1.967.983-3.958,1.513-5.924,3.076-11.445,6.529-22.688,10.462-33.78h-177.6a126.059,126.059,0,0,0,0,252.117Z" transform="translate(0 -103.992)"/>
      <path id="Path_798" data-name="Path 798" class="cls-2" d="M379.605,143.679c2.547,10.033,4.866,20.092,6.732,30.377.984,5.243,1.637,10.613,2.418,15.907,1.11,7.689,2.37,15.353,3.1,23.167,1.336,13.89,2.145,27.907,2.145,42.125A455.06,455.06,0,0,1,382.38,356.092H620.885V104H367.632c3.934,11.066,7.386,22.31,10.463,33.78C378.624,139.747,379.1,141.713,379.605,143.679Z" transform="translate(790.835 -103.975)"/>
    </g>
    <g id="Group_885" data-name="Group 885" transform="translate(279.42 340.734)">
      <path id="Path_799" data-name="Path 799" class="cls-1" d="M88.672,154.447c.756-7.815,1.941-15.479,3.1-23.167C90.663,138.994,89.4,146.633,88.672,154.447Z" transform="translate(-88.672 -45.317)"/>
      <path id="Path_800" data-name="Path 800" class="cls-1" d="M103.51,104h0c-3.933,11.066-7.386,22.31-10.462,33.78C96.149,126.36,99.6,115.066,103.51,104Z" transform="translate(-79.258 -104)"/>
      <path id="Path_801" data-name="Path 801" class="cls-1" d="M90.432,146.969q2.874-15.353,6.731-30.377C94.616,126.625,92.272,136.709,90.432,146.969Z" transform="translate(-84.886 -76.913)"/>
      <path id="Path_802" data-name="Path 802" class="cls-1" d="M377.445,154.447c-.732-7.815-1.992-15.454-3.1-23.167C375.478,138.968,376.688,146.657,377.445,154.447Z" transform="translate(525.854 -45.317)"/>
      <path id="Path_803" data-name="Path 803" class="cls-1" d="M378.163,146.969c-1.867-10.285-4.211-20.344-6.731-30.377C374,126.6,376.273,136.734,378.163,146.969Z" transform="translate(519.59 -76.913)"/>
      <path id="Path_804" data-name="Path 804" class="cls-1" d="M378.095,137.78c-3.077-11.445-6.529-22.688-10.463-33.78h0C371.538,115.066,374.992,126.36,378.095,137.78Z" transform="translate(511.415 -104)"/>
    </g>
    <ellipse id="Ellipse_66" data-name="Ellipse 66" class="cls-3" cx="478.976" cy="478.975" rx="478.976" ry="478.975" transform="translate(252.093 13.014)"/>
    <ellipse id="Ellipse_67" data-name="Ellipse 67" class="cls-4" cx="403.348" cy="403.348" rx="403.348" ry="403.348" transform="translate(327.721 88.642)"/>
    <g id="Group_888" data-name="Group 888" transform="translate(249.572 0)">
      <ellipse id="Ellipse_68" data-name="Ellipse 68" class="cls-5" cx="479.181" cy="479.18" rx="479.181" ry="479.18"/>
      <ellipse id="Ellipse_69" data-name="Ellipse 69" class="cls-6" cx="408.894" cy="408.893" rx="408.894" ry="408.893" transform="translate(70.288 70.292)"/>
      <path id="Path_811" data-name="Path 811" class="cls-5" d="M591.811,943.34a360.189,360.189,0,0,1-69.6-6.727l5.307-27a333,333,0,0,0,64.076,6.211l.33,24.873-.007,2.642Zm69.906-6.86-5.375-27a329.259,329.259,0,0,0,61.9-18.807L728.8,916.089A356.55,356.55,0,0,1,661.717,936.48ZM455.079,916.374a357.051,357.051,0,0,1-61.849-33.018l15.279-22.885a330.233,330.233,0,0,0,57.081,30.467Zm335.51-33.429-15.32-22.861a332.341,332.341,0,0,0,49.987-41.117l19.472,19.446A359.26,359.26,0,0,1,790.589,882.946ZM339,838.949a360.87,360.87,0,0,1-44.581-54.076l22.845-15.362a333.245,333.245,0,0,0,41.172,49.951Zm550.2-54.708-22.871-15.309a330.314,330.314,0,0,0,30.527-57.052l25.427,10.536A358.532,358.532,0,0,1,889.194,784.241ZM261.208,723.115a355.644,355.644,0,0,1-20.455-67.071l26.986-5.39A328.5,328.5,0,0,0,286.6,712.526Zm681.377-67.807-27-5.337a333.158,333.158,0,0,0,6.275-64.419v-1.446h27.522v1.446A360.466,360.466,0,0,1,942.585,655.308ZM233.8,586.281v-.725a360.491,360.491,0,0,1,6.653-69.014l27.012,5.283a333.047,333.047,0,0,0-6.143,63.734ZM915.32,519.774a328.493,328.493,0,0,0-19.008-61.825L921.7,447.305a355.289,355.289,0,0,1,20.594,67.025Zm-629.239-59.9L260.63,449.39A357.344,357.344,0,0,1,293.573,387.5l22.914,15.254A329.487,329.487,0,0,0,286.081,459.872Zm579.466-58.855a333.232,333.232,0,0,0-41.276-49.857l19.392-19.526a360.339,360.339,0,0,1,44.688,53.983Zm-508.1-48.387-19.512-19.405a360.394,360.394,0,0,1,54.044-44.643l15.372,22.833A332.592,332.592,0,0,0,357.446,352.63Zm416.661-42.376a329.752,329.752,0,0,0-57.153-30.345l10.455-25.466a358.141,358.141,0,0,1,61.924,32.883ZM464.3,280.709l-10.617-25.4a356.221,356.221,0,0,1,67.039-20.52l5.43,26.985A327.737,327.737,0,0,0,464.3,280.709Zm190.683-19.345a332.971,332.971,0,0,0-63.392-6.074l-.761-19.192.5-8.33a373.1,373.1,0,0,1,68.9,6.585Z" transform="translate(-112.416 -106.339)"/>
    </g>
    <g id="Group_889" data-name="Group 889" transform="translate(526.881 249.193)">
      <path id="Path_812" data-name="Path 812" class="cls-7" d="M439.485,441.137l-201.14-99.313V123.586Z" transform="translate(-37.21 -123.586)"/>
      <path id="Path_813" data-name="Path 813" class="cls-2" d="M368.864,123.586V341.824l-201.14,99.313Z" transform="translate(-167.724 -123.586)"/>
      <path id="Path_814" data-name="Path 814" class="cls-8" d="M570.005,299.507,368.864,398.745l-201.14-99.238,201.14-99.262Z" transform="translate(-167.724 18.093)"/>
    </g>
    <path id="Path_807" data-name="Path 807" class="cls-7" d="M126.046,270.046A126.06,126.06,0,0,1,0,144v932.742a126.06,126.06,0,0,0,126.046,126.046H1411.72V270.046Z" transform="translate(0 322.78)"/>
    <path id="Path_808" data-name="Path 808" class="cls-6" d="M380.837,288,280,414.047,380.837,540.093H557.3V288Z" transform="translate(602.325 632.547)"/>
    <rect id="Rectangle_605" data-name="Rectangle 605" class="cls-5" width="100.837" height="403.348" transform="translate(1159.627 844.919)"/>
    <path id="Path_809" data-name="Path 809" class="cls-6" d="M551.255,356.837H400V608.929H551.255A100.841,100.841,0,0,0,652.094,508.093V256A100.843,100.843,0,0,1,551.255,356.837Z" transform="translate(860.465 563.709)"/>
    <path id="Path_810" data-name="Path 810" class="cls-2" d="M448,224V425.673A100.837,100.837,0,1,0,448,224Z" transform="translate(963.72 494.873)"/>
    <g id="Group_887" data-name="Group 887" transform="translate(100.837 794.5)">
      <rect id="Rectangle_606" data-name="Rectangle 606" class="cls-6" width="50.419" height="428.557" transform="translate(0 302.511)"/>
      <rect id="Rectangle_607" data-name="Rectangle 607" class="cls-6" width="50.419" height="50.418" transform="translate(0 201.674)"/>
      <rect id="Rectangle_608" data-name="Rectangle 608" class="cls-6" width="50.419" height="50.418" transform="translate(0 100.837)"/>
      <rect id="Rectangle_609" data-name="Rectangle 609" class="cls-6" width="50.419" height="50.418"/>
      <rect id="Rectangle_610" data-name="Rectangle 610" class="cls-6" width="50.419" height="50.418" transform="translate(1159.627 605.021)"/>
    </g>
  </g>
</svg>
